ISO-10303-21;
HEADER;
FILE_DESCRIPTION (( 'STEP AP214' ),
    '1' );
FILE_NAME ('摄像头支架1.STEP',
    '2026-07-29T04:05:28',
    ( 'HXX' ),
    ( '' ),
    'SwSTEP 2.0',
    'SolidWorks 2018',
    '' );
FILE_SCHEMA (( 'AUTOMOTIVE_DESIGN' ));
ENDSEC;

DATA;
#1 = DIRECTION ( 'NONE',  ( 0.000000000000000000, 0.000000000000000000, 1.000000000000000000 ) ) ;
#2 = PRESENTATION_STYLE_ASSIGNMENT (( #483 ) ) ;
#3 = DIRECTION ( 'NONE',  ( 0.000000000000000000, 0.000000000000000000, 1.000000000000000000 ) ) ;
#4 = EDGE_CURVE ( 'NONE', #19, #230, #148, .T. ) ;
#5 = CIRCLE ( 'NONE', #791, 6.000000000000001776 ) ;
#6 = DIRECTION ( 'NONE',  ( 1.000000000000000000, 0.000000000000000000, 0.000000000000000000 ) ) ;
#7 = VECTOR ( 'NONE', #349, 1000.000000000000000 ) ;
#8 = ORIENTED_EDGE ( 'NONE', *, *, #732, .T. ) ;
#9 = CARTESIAN_POINT ( 'NONE',  ( -3.399999999999983924, 108.0000000000000000, 5.000000000000000000 ) ) ;
#10 = EDGE_CURVE ( 'NONE', #516, #707, #524, .T. ) ;
#11 = DIRECTION ( 'NONE',  ( -0.000000000000000000, -0.000000000000000000, -1.000000000000000000 ) ) ;
#12 = CARTESIAN_POINT ( 'NONE',  ( 9.899494936611612061, -9.899494936611718643, 0.000000000000000000 ) ) ;
#13 = DIRECTION ( 'NONE',  ( -0.000000000000000000, -0.000000000000000000, -1.000000000000000000 ) ) ;
#14 = VERTEX_POINT ( 'NONE', #832 ) ;
#15 = ORIENTED_EDGE ( 'NONE', *, *, #146, .F. ) ;
#16 = LINE ( 'NONE', #755, #422 ) ;
#17 = ORIENTED_EDGE ( 'NONE', *, *, #260, .F. ) ;
#18 = DIRECTION ( 'NONE',  ( 0.000000000000000000, 0.000000000000000000, 1.000000000000000000 ) ) ;
#19 = VERTEX_POINT ( 'NONE', #367 ) ;
#20 = EDGE_CURVE ( 'NONE', #820, #150, #344, .T. ) ;
#21 = AXIS2_PLACEMENT_3D ( 'NONE', #812, #285, #680 ) ;
#22 = EDGE_CURVE ( 'NONE', #731, #100, #5, .T. ) ;
#23 = VERTEX_POINT ( 'NONE', #706 ) ;
#24 = FACE_BOUND ( 'NONE', #295, .T. ) ;
#25 = VERTEX_POINT ( 'NONE', #573 ) ;
#26 = DIRECTION ( 'NONE',  ( -0.000000000000000000, -0.000000000000000000, -1.000000000000000000 ) ) ;
#27 = ADVANCED_FACE ( 'NONE', ( #157 ), #473, .F. ) ;
#28 = CARTESIAN_POINT ( 'NONE',  ( -3.399999999999954170, 60.00000000000000000, 5.000000000000000000 ) ) ;
#29 = CARTESIAN_POINT ( 'NONE',  ( 5.000000000000033751, 108.0000000000000000, 5.000000000000000000 ) ) ;
#30 = VECTOR ( 'NONE', #652, 1000.000000000000000 ) ;
#31 = CIRCLE ( 'NONE', #811, 2.000000000000000000 ) ;
#32 = VERTEX_POINT ( 'NONE', #406 ) ;
#33 = VERTEX_POINT ( 'NONE', #214 ) ;
#34 = DIRECTION ( 'NONE',  ( -7.228014483236695816E-17, -1.000000000000000000, 0.000000000000000000 ) ) ;
#35 = ORIENTED_EDGE ( 'NONE', *, *, #773, .F. ) ;
#36 = CARTESIAN_POINT ( 'NONE',  ( 18.00000000000002842, 2.204364238465239372E-15, 5.000000000000000000 ) ) ;
#37 = AXIS2_PLACEMENT_3D ( 'NONE', #698, #699, #248 ) ;
#38 = DIRECTION ( 'NONE',  ( -1.000000000000000000, 0.000000000000000000, 0.000000000000000000 ) ) ;
#39 = FACE_BOUND ( 'NONE', #780, .T. ) ;
#40 = ORIENTED_EDGE ( 'NONE', *, *, #823, .F. ) ;
#41 = DIRECTION ( 'NONE',  ( 1.000000000000000000, 0.000000000000000000, 0.000000000000000000 ) ) ;
#42 = VECTOR ( 'NONE', #705, 1000.000000000000000 ) ;
#43 = ORIENTED_EDGE ( 'NONE', *, *, #215, .T. ) ;
#44 = EDGE_LOOP ( 'NONE', ( #726, #804, #580, #455 ) ) ;
#45 = DIRECTION ( 'NONE',  ( -0.000000000000000000, -0.000000000000000000, -1.000000000000000000 ) ) ;
#46 = EDGE_CURVE ( 'NONE', #336, #651, #802, .T. ) ;
#47 = VECTOR ( 'NONE', #503, 1000.000000000000000 ) ;
#48 = ORIENTED_EDGE ( 'NONE', *, *, #101, .F. ) ;
#49 = CIRCLE ( 'NONE', #254, 1.599999999999984324 ) ;
#50 =( LENGTH_UNIT ( ) NAMED_UNIT ( * ) SI_UNIT ( .MILLI., .METRE. ) );
#51 = CARTESIAN_POINT ( 'NONE',  ( 9.899494936611612061, -9.899494936611718643, 5.000000000000000000 ) ) ;
#52 = ORIENTED_EDGE ( 'NONE', *, *, #215, .F. ) ;
#53 =( GEOMETRIC_REPRESENTATION_CONTEXT ( 3 ) GLOBAL_UNCERTAINTY_ASSIGNED_CONTEXT ( ( #199 ) ) GLOBAL_UNIT_ASSIGNED_CONTEXT ( ( #50, #506, #373 ) ) REPRESENTATION_CONTEXT ( 'NONE', 'WORKASPACE' ) );
#54 = ADVANCED_FACE ( 'NONE', ( #645, #750, #39, #792, #514 ), #428, .T. ) ;
#55 = EDGE_CURVE ( 'NONE', #294, #636, #576, .T. ) ;
#56 = DIRECTION ( 'NONE',  ( -1.000000000000000000, -8.098135949695001548E-16, 0.000000000000000000 ) ) ;
#57 = CYLINDRICAL_SURFACE ( 'NONE', #777, 18.00000000000002842 ) ;
#58 = EDGE_CURVE ( 'NONE', #62, #687, #833, .T. ) ;
#59 = VERTEX_POINT ( 'NONE', #246 ) ;
#60 = CIRCLE ( 'NONE', #430, 1.599999999999995426 ) ;
#61 = EDGE_LOOP ( 'NONE', ( #519, #130, #530, #195 ) ) ;
#62 = VERTEX_POINT ( 'NONE', #639 ) ;
#63 = VECTOR ( 'NONE', #728, 1000.000000000000000 ) ;
#64 = EDGE_CURVE ( 'NONE', #363, #120, #397, .T. ) ;
#65 = CARTESIAN_POINT ( 'NONE',  ( 9.899494936611612061, -9.899494936611718643, 5.000000000000000000 ) ) ;
#66 = CARTESIAN_POINT ( 'NONE',  ( 3.400000000000049649, 108.0000000000000000, 0.000000000000000000 ) ) ;
#67 = CARTESIAN_POINT ( 'NONE',  ( 6.600000000000018296, 108.0000000000000000, 5.000000000000000000 ) ) ;
#68 = CYLINDRICAL_SURFACE ( 'NONE', #724, 1.599999999999998979 ) ;
#69 = CARTESIAN_POINT ( 'NONE',  ( 6.600000000000018296, 108.0000000000000000, 0.000000000000000000 ) ) ;
#70 = ORIENTED_EDGE ( 'NONE', *, *, #105, .T. ) ;
#71 = AXIS2_PLACEMENT_3D ( 'NONE', #590, #598, #196 ) ;
#72 = CARTESIAN_POINT ( 'NONE',  ( 0.000000000000000000, 0.000000000000000000, 5.000000000000000000 ) ) ;
#73 = CIRCLE ( 'NONE', #640, 1.599999999999998979 ) ;
#74 = EDGE_LOOP ( 'NONE', ( #741, #379, #8, #70 ) ) ;
#75 = DIRECTION ( 'NONE',  ( -3.252606517456513302E-16, -1.000000000000000000, 0.000000000000000000 ) ) ;
#76 = ORIENTED_EDGE ( 'NONE', *, *, #727, .T. ) ;
#77 = DIRECTION ( 'NONE',  ( -1.000000000000000000, -0.000000000000000000, -0.000000000000000000 ) ) ;
#78 = CARTESIAN_POINT ( 'NONE',  ( -6.599999999999952571, 108.0000000000000000, 0.000000000000000000 ) ) ;
#79 = AXIS2_PLACEMENT_3D ( 'NONE', #387, #13, #124 ) ;
#80 = FILL_AREA_STYLE_COLOUR ( '', #673 ) ;
#81 = VECTOR ( 'NONE', #178, 1000.000000000000000 ) ;
#82 = LINE ( 'NONE', #619, #620 ) ;
#83 = ORIENTED_EDGE ( 'NONE', *, *, #20, .T. ) ;
#84 = AXIS2_PLACEMENT_3D ( 'NONE', #245, #759, #175 ) ;
#85 = CARTESIAN_POINT ( 'NONE',  ( 11.49949493661160993, -9.899494936611718643, 5.000000000000000000 ) ) ;
#86 = DIRECTION ( 'NONE',  ( -0.000000000000000000, -0.000000000000000000, -1.000000000000000000 ) ) ;
#87 = DIRECTION ( 'NONE',  ( 0.000000000000000000, 0.000000000000000000, 1.000000000000000000 ) ) ;
#88 = CARTESIAN_POINT ( 'NONE',  ( 12.00000000000003553, 13.41640786499874594, 5.000000000000000000 ) ) ;
#89 = VECTOR ( 'NONE', #768, 1000.000000000000000 ) ;
#90 = EDGE_CURVE ( 'NONE', #102, #538, #118, .T. ) ;
#91 = ORIENTED_EDGE ( 'NONE', *, *, #319, .F. ) ;
#92 = FACE_OUTER_BOUND ( 'NONE', #366, .T. ) ;
#93 = ORIENTED_EDGE ( 'NONE', *, *, #400, .F. ) ;
#94 = DIRECTION ( 'NONE',  ( 1.000000000000000000, 0.000000000000000000, 0.000000000000000000 ) ) ;
#95 = DIRECTION ( 'NONE',  ( 3.252606517456513302E-16, 1.000000000000000000, 0.000000000000000000 ) ) ;
#96 = CARTESIAN_POINT ( 'NONE',  ( 3.400000000000049649, 108.0000000000000000, 5.000000000000000000 ) ) ;
#97 = CARTESIAN_POINT ( 'NONE',  ( -7.999999999999954703, 112.0000000000000000, 5.000000000000000000 ) ) ;
#98 = CIRCLE ( 'NONE', #79, 5.999999999999998224 ) ;
#99 = FACE_OUTER_BOUND ( 'NONE', #331, .T. ) ;
#100 = VERTEX_POINT ( 'NONE', #702 ) ;
#101 = EDGE_CURVE ( 'NONE', #100, #788, #653, .T. ) ;
#102 = VERTEX_POINT ( 'NONE', #505 ) ;
#103 = CARTESIAN_POINT ( 'NONE',  ( 6.600000000000019185, 108.0000000000000000, 0.000000000000000000 ) ) ;
#104 = DIRECTION ( 'NONE',  ( 1.000000000000000000, 0.000000000000000000, 0.000000000000000000 ) ) ;
#105 = EDGE_CURVE ( 'NONE', #336, #102, #498, .T. ) ;
#106 = CARTESIAN_POINT ( 'NONE',  ( 0.000000000000000000, 0.000000000000000000, 0.000000000000000000 ) ) ;
#107 = ORIENTED_EDGE ( 'NONE', *, *, #611, .F. ) ;
#108 = SURFACE_SIDE_STYLE ('',( #354 ) ) ;
#109 = EDGE_LOOP ( 'NONE', ( #369, #541, #15, #527 ) ) ;
#110 = AXIS2_PLACEMENT_3D ( 'NONE', #257, #11, #268 ) ;
#111 = UNCERTAINTY_MEASURE_WITH_UNIT (LENGTH_MEASURE( 1.000000000000000082E-05 ), #835, 'distance_accuracy_value', 'NONE');
#112 = CARTESIAN_POINT ( 'NONE',  ( 3.400000000000049649, 108.0000000000000000, 5.000000000000000000 ) ) ;
#113 = ADVANCED_FACE ( 'NONE', ( #125 ), #115, .F. ) ;
#114 = DIRECTION ( 'NONE',  ( 0.000000000000000000, 0.000000000000000000, 1.000000000000000000 ) ) ;
#115 = PLANE ( 'NONE',  #247 ) ;
#116 = AXIS2_PLACEMENT_3D ( 'NONE', #787, #325, #6 ) ;
#117 = CARTESIAN_POINT ( 'NONE',  ( 8.299494936611612417, -9.899494936611718643, 5.000000000000000000 ) ) ;
#118 = CIRCLE ( 'NONE', #704, 1.599999999999999423 ) ;
#119 = CIRCLE ( 'NONE', #612, 2.000000000000000000 ) ;
#120 = VERTEX_POINT ( 'NONE', #371 ) ;
#121 = ORIENTED_EDGE ( 'NONE', *, *, #55, .T. ) ;
#122 = CARTESIAN_POINT ( 'NONE',  ( -6.599999999999948130, 60.00000000000000000, 5.000000000000000000 ) ) ;
#123 = DIRECTION ( 'NONE',  ( -0.000000000000000000, -0.000000000000000000, -1.000000000000000000 ) ) ;
#124 = DIRECTION ( 'NONE',  ( -1.000000000000000000, 0.000000000000000000, 0.000000000000000000 ) ) ;
#125 = FACE_OUTER_BOUND ( 'NONE', #359, .T. ) ;
#126 = ORIENTED_EDGE ( 'NONE', *, *, #10, .T. ) ;
#127 = FACE_OUTER_BOUND ( 'NONE', #546, .T. ) ;
#128 = CARTESIAN_POINT ( 'NONE',  ( 5.000000000000033751, 108.0000000000000000, 0.000000000000000000 ) ) ;
#129 = EDGE_CURVE ( 'NONE', #646, #184, #599, .T. ) ;
#130 = ORIENTED_EDGE ( 'NONE', *, *, #305, .F. ) ;
#131 = CARTESIAN_POINT ( 'NONE',  ( 9.899494936611612061, -9.899494936611718643, 5.000000000000000000 ) ) ;
#132 = CARTESIAN_POINT ( 'NONE',  ( -9.999999999999971578, 109.9999999999999858, 5.000000000000000000 ) ) ;
#133 = DIRECTION ( 'NONE',  ( 0.000000000000000000, 0.000000000000000000, 1.000000000000000000 ) ) ;
#134 = PLANE ( 'NONE',  #291 ) ;
#135 = CARTESIAN_POINT ( 'NONE',  ( -11.99999999999996625, 13.41640786499877258, 5.000000000000000000 ) ) ;
#136 = LINE ( 'NONE', #587, #442 ) ;
#137 = CARTESIAN_POINT ( 'NONE',  ( -7.999999999999954703, 112.0000000000000000, 0.000000000000000000 ) ) ;
#138 = VECTOR ( 'NONE', #627, 1000.000000000000000 ) ;
#139 = EDGE_LOOP ( 'NONE', ( #424, #517, #558, #252 ) ) ;
#140 = DIRECTION ( 'NONE',  ( -1.000000000000000000, 0.000000000000000000, 0.000000000000000000 ) ) ;
#141 = ORIENTED_EDGE ( 'NONE', *, *, #716, .F. ) ;
#142 = ORIENTED_EDGE ( 'NONE', *, *, #187, .T. ) ;
#143 = ADVANCED_FACE ( 'NONE', ( #206 ), #309, .T. ) ;
#144 = EDGE_CURVE ( 'NONE', #707, #667, #98, .T. ) ;
#145 = DIRECTION ( 'NONE',  ( 0.000000000000000000, 0.000000000000000000, 1.000000000000000000 ) ) ;
#146 = EDGE_CURVE ( 'NONE', #33, #261, #136, .T. ) ;
#147 = PRESENTATION_STYLE_ASSIGNMENT (( #435 ) ) ;
#148 = LINE ( 'NONE', #112, #30 ) ;
#149 = CYLINDRICAL_SURFACE ( 'NONE', #110, 2.000000000000001776 ) ;
#150 = VERTEX_POINT ( 'NONE', #717 ) ;
#151 = CARTESIAN_POINT ( 'NONE',  ( -9.999999999999971578, 109.9999999999999858, 5.000000000000000000 ) ) ;
#152 = ORIENTED_EDGE ( 'NONE', *, *, #757, .F. ) ;
#153 = DIRECTION ( 'NONE',  ( 0.000000000000000000, 0.000000000000000000, 1.000000000000000000 ) ) ;
#154 = AXIS2_PLACEMENT_3D ( 'NONE', #800, #87, #217 ) ;
#155 = DIRECTION ( 'NONE',  ( 7.228014483236695816E-17, 1.000000000000000000, 0.000000000000000000 ) ) ;
#156 = DIRECTION ( 'NONE',  ( 0.000000000000000000, 0.000000000000000000, 1.000000000000000000 ) ) ;
#157 = FACE_OUTER_BOUND ( 'NONE', #271, .T. ) ;
#158 = EDGE_LOOP ( 'NONE', ( #272, #818 ) ) ;
#159 = CARTESIAN_POINT ( 'NONE',  ( -9.999999999999959144, 17.88854381999835752, 0.000000000000000000 ) ) ;
#160 = CIRCLE ( 'NONE', #154, 1.599999999999995426 ) ;
#161 = VERTEX_POINT ( 'NONE', #522 ) ;
#162 = AXIS2_PLACEMENT_3D ( 'NONE', #164, #222, #38 ) ;
#163 = ORIENTED_EDGE ( 'NONE', *, *, #353, .T. ) ;
#164 = CARTESIAN_POINT ( 'NONE',  ( 5.000000000000033751, 108.0000000000000000, 5.000000000000000000 ) ) ;
#165 = CARTESIAN_POINT ( 'NONE',  ( 16.00000000000004619, 17.88854381999836107, 5.000000000000000000 ) ) ;
#166 = CARTESIAN_POINT ( 'NONE',  ( -7.999999999999968914, 110.0000000000000000, 5.000000000000000000 ) ) ;
#167 = MECHANICAL_DESIGN_GEOMETRIC_PRESENTATION_REPRESENTATION (  '', ( #364 ), #659 ) ;
#168 = SURFACE_SIDE_STYLE ('',( #280 ) ) ;
#169 = FACE_OUTER_BOUND ( 'NONE', #589, .T. ) ;
#170 = EDGE_LOOP ( 'NONE', ( #778, #592, #436, #212 ) ) ;
#171 = CARTESIAN_POINT ( 'NONE',  ( -11.99999999999996625, 13.41640786499877258, 5.000000000000000000 ) ) ;
#172 = LINE ( 'NONE', #404, #190 ) ;
#173 = ORIENTED_EDGE ( 'NONE', *, *, #805, .F. ) ;
#174 = DIRECTION ( 'NONE',  ( 1.000000000000000000, 0.000000000000000000, 0.000000000000000000 ) ) ;
#175 = DIRECTION ( 'NONE',  ( 3.252606517456513302E-16, -1.000000000000000000, 0.000000000000000000 ) ) ;
#176 = EDGE_CURVE ( 'NONE', #708, #59, #762, .T. ) ;
#177 = DIRECTION ( 'NONE',  ( -0.000000000000000000, -0.000000000000000000, -1.000000000000000000 ) ) ;
#178 = DIRECTION ( 'NONE',  ( -0.000000000000000000, -0.000000000000000000, -1.000000000000000000 ) ) ;
#179 = ORIENTED_EDGE ( 'NONE', *, *, #449, .F. ) ;
#180 = LINE ( 'NONE', #85, #733 ) ;
#181 = ORIENTED_EDGE ( 'NONE', *, *, #819, .F. ) ;
#182 = ORIENTED_EDGE ( 'NONE', *, *, #189, .F. ) ;
#183 = PRODUCT_DEFINITION ( '未知', '', #213, #493 ) ;
#184 = VERTEX_POINT ( 'NONE', #456 ) ;
#185 = CARTESIAN_POINT ( 'NONE',  ( 9.899494936611612061, -9.899494936611718643, 0.000000000000000000 ) ) ;
#186 = CARTESIAN_POINT ( 'NONE',  ( 0.000000000000000000, 0.000000000000000000, 5.000000000000000000 ) ) ;
#187 = EDGE_CURVE ( 'NONE', #19, #708, #730, .T. ) ;
#188 = EDGE_LOOP ( 'NONE', ( #489, #281 ) ) ;
#189 = EDGE_CURVE ( 'NONE', #14, #150, #772, .T. ) ;
#190 = VECTOR ( 'NONE', #679, 1000.000000000000000 ) ;
#191 = ORIENTED_EDGE ( 'NONE', *, *, #501, .F. ) ;
#192 = DIRECTION ( 'NONE',  ( 0.000000000000000000, 0.000000000000000000, 1.000000000000000000 ) ) ;
#193 = DIRECTION ( 'NONE',  ( -3.252606517456513302E-16, -1.000000000000000000, 0.000000000000000000 ) ) ;
#194 = AXIS2_PLACEMENT_3D ( 'NONE', #478, #737, #742 ) ;
#195 = ORIENTED_EDGE ( 'NONE', *, *, #539, .F. ) ;
#196 = DIRECTION ( 'NONE',  ( -1.000000000000000000, 0.000000000000000000, 0.000000000000000000 ) ) ;
#197 = CYLINDRICAL_SURFACE ( 'NONE', #297, 1.599999999999984324 ) ;
#198 = VERTEX_POINT ( 'NONE', #789 ) ;
#199 = UNCERTAINTY_MEASURE_WITH_UNIT (LENGTH_MEASURE( 1.000000000000000082E-05 ), #50, 'distance_accuracy_value', 'NONE');
#200 = FILL_AREA_STYLE ('',( #80 ) ) ;
#201 = EDGE_LOOP ( 'NONE', ( #91, #745, #528, #548 ) ) ;
#202 = ORIENTED_EDGE ( 'NONE', *, *, #716, .T. ) ;
#203 = CARTESIAN_POINT ( 'NONE',  ( 3.400000000000049649, 108.0000000000000000, 0.000000000000000000 ) ) ;
#204 = AXIS2_PLACEMENT_3D ( 'NONE', #298, #492, #104 ) ;
#205 = CARTESIAN_POINT ( 'NONE',  ( 16.00000000000004619, 17.88854381999836107, 0.000000000000000000 ) ) ;
#206 = FACE_OUTER_BOUND ( 'NONE', #413, .T. ) ;
#207 = ORIENTED_EDGE ( 'NONE', *, *, #799, .T. ) ;
#208 = ADVANCED_FACE ( 'NONE', ( #169 ), #57, .T. ) ;
#209 = FACE_OUTER_BOUND ( 'NONE', #654, .T. ) ;
#210 = EDGE_LOOP ( 'NONE', ( #381, #734, #579, #824, #202, #689, #715, #766, #339, #121 ) ) ;
#211 = CARTESIAN_POINT ( 'NONE',  ( -9.999999999999969802, 109.9999999999999858, 5.000000000000000000 ) ) ;
#212 = ORIENTED_EDGE ( 'NONE', *, *, #805, .T. ) ;
#213 = PRODUCT_DEFINITION_FORMATION_WITH_SPECIFIED_SOURCE ( '任何', '', #438, .NOT_KNOWN. ) ;
#214 = CARTESIAN_POINT ( 'NONE',  ( 7.999999999999956479, 112.0000000000000000, 5.000000000000000000 ) ) ;
#215 = EDGE_CURVE ( 'NONE', #794, #731, #588, .T. ) ;
#216 = CIRCLE ( 'NONE', #692, 1.599999999999998979 ) ;
#217 = DIRECTION ( 'NONE',  ( 1.000000000000000000, 0.000000000000000000, 0.000000000000000000 ) ) ;
#218 = ORIENTED_EDGE ( 'NONE', *, *, #463, .F. ) ;
#219 = ORIENTED_EDGE ( 'NONE', *, *, #317, .F. ) ;
#220 = DIRECTION ( 'NONE',  ( -1.000000000000000000, 0.000000000000000000, 0.000000000000000000 ) ) ;
#221 = DIRECTION ( 'NONE',  ( 0.000000000000000000, 0.000000000000000000, 1.000000000000000000 ) ) ;
#222 = DIRECTION ( 'NONE',  ( 0.000000000000000000, 0.000000000000000000, 1.000000000000000000 ) ) ;
#223 = DIRECTION ( 'NONE',  ( 0.000000000000000000, -1.000000000000000000, 0.000000000000000000 ) ) ;
#224 = DIRECTION ( 'NONE',  ( -0.000000000000000000, -0.000000000000000000, -1.000000000000000000 ) ) ;
#225 = VECTOR ( 'NONE', #782, 1000.000000000000000 ) ;
#226 = EDGE_CURVE ( 'NONE', #261, #566, #299, .T. ) ;
#227 = ORIENTED_EDGE ( 'NONE', *, *, #718, .T. ) ;
#228 = DIRECTION ( 'NONE',  ( 0.000000000000000000, 0.000000000000000000, 1.000000000000000000 ) ) ;
#229 = FACE_BOUND ( 'NONE', #158, .T. ) ;
#230 = VERTEX_POINT ( 'NONE', #66 ) ;
#231 = CYLINDRICAL_SURFACE ( 'NONE', #71, 1.599999999999984324 ) ;
#232 = VERTEX_POINT ( 'NONE', #460 ) ;
#233 = PLANE ( 'NONE',  #334 ) ;
#234 = EDGE_CURVE ( 'NONE', #25, #566, #452, .T. ) ;
#235 = DIRECTION ( 'NONE',  ( -0.000000000000000000, -0.000000000000000000, -1.000000000000000000 ) ) ;
#236 = DIRECTION ( 'NONE',  ( -5.601711224508438918E-16, 1.000000000000000000, -0.000000000000000000 ) ) ;
#237 = EDGE_LOOP ( 'NONE', ( #510, #152, #764, #601 ) ) ;
#238 = ORIENTED_EDGE ( 'NONE', *, *, #582, .F. ) ;
#239 = FACE_OUTER_BOUND ( 'NONE', #139, .T. ) ;
#240 = ORIENTED_EDGE ( 'NONE', *, *, #277, .T. ) ;
#241 = AXIS2_PLACEMENT_3D ( 'NONE', #748, #289, #345 ) ;
#242 = CARTESIAN_POINT ( 'NONE',  ( -9.999999999999959144, 17.88854381999835752, 5.000000000000000000 ) ) ;
#243 = ORIENTED_EDGE ( 'NONE', *, *, #582, .T. ) ;
#244 = DIRECTION ( 'NONE',  ( 0.000000000000000000, 0.000000000000000000, 1.000000000000000000 ) ) ;
#245 = CARTESIAN_POINT ( 'NONE',  ( 6.600000000000018296, 108.0000000000000000, 5.000000000000000000 ) ) ;
#246 = CARTESIAN_POINT ( 'NONE',  ( 3.400000000000034106, 60.00000000000000000, 0.000000000000000000 ) ) ;
#247 = AXIS2_PLACEMENT_3D ( 'NONE', #377, #56, #711 ) ;
#248 = DIRECTION ( 'NONE',  ( -1.000000000000000000, 0.000000000000000000, 0.000000000000000000 ) ) ;
#249 = ORIENTED_EDGE ( 'NONE', *, *, #631, .F. ) ;
#250 = ADVANCED_FACE ( 'NONE', ( #535 ), #134, .T. ) ;
#251 = CYLINDRICAL_SURFACE ( 'NONE', #532, 18.00000000000002842 ) ;
#252 = ORIENTED_EDGE ( 'NONE', *, *, #64, .F. ) ;
#253 = LINE ( 'NONE', #203, #606 ) ;
#254 = AXIS2_PLACEMENT_3D ( 'NONE', #464, #264, #721 ) ;
#255 = AXIS2_PLACEMENT_3D ( 'NONE', #287, #26, #676 ) ;
#256 = CIRCLE ( 'NONE', #650, 1.599999999999995426 ) ;
#257 = CARTESIAN_POINT ( 'NONE',  ( -7.999999999999968914, 110.0000000000000000, 5.000000000000000000 ) ) ;
#258 = ORIENTED_EDGE ( 'NONE', *, *, #129, .F. ) ;
#259 = DIRECTION ( 'NONE',  ( 0.000000000000000000, 0.000000000000000000, 1.000000000000000000 ) ) ;
#260 = EDGE_CURVE ( 'NONE', #756, #230, #378, .T. ) ;
#261 = VERTEX_POINT ( 'NONE', #594 ) ;
#262 = VECTOR ( 'NONE', #386, 1000.000000000000000 ) ;
#263 = ORIENTED_EDGE ( 'NONE', *, *, #539, .T. ) ;
#264 = DIRECTION ( 'NONE',  ( 0.000000000000000000, 0.000000000000000000, 1.000000000000000000 ) ) ;
#265 = EDGE_LOOP ( 'NONE', ( #40, #173, #675, #446 ) ) ;
#266 = MANIFOLD_SOLID_BREP ( '凸台-拉伸1', #481 ) ;
#267 = CARTESIAN_POINT ( 'NONE',  ( -15.99999999999995559, 17.88854381999835752, 5.000000000000000000 ) ) ;
#268 = DIRECTION ( 'NONE',  ( -1.000000000000000000, 0.000000000000000000, 0.000000000000000000 ) ) ;
#269 = FACE_OUTER_BOUND ( 'NONE', #201, .T. ) ;
#270 = DIRECTION ( 'NONE',  ( -1.000000000000000000, 0.000000000000000000, 0.000000000000000000 ) ) ;
#271 = EDGE_LOOP ( 'NONE', ( #347, #614, #263, #423 ) ) ;
#272 = ORIENTED_EDGE ( 'NONE', *, *, #374, .T. ) ;
#273 = CYLINDRICAL_SURFACE ( 'NONE', #593, 6.000000000000000000 ) ;
#274 = EDGE_CURVE ( 'NONE', #232, #363, #256, .T. ) ;
#275 = DIRECTION ( 'NONE',  ( -0.000000000000000000, -0.000000000000000000, -1.000000000000000000 ) ) ;
#276 = DIRECTION ( 'NONE',  ( -1.000000000000000000, 0.000000000000000000, 0.000000000000000000 ) ) ;
#277 = EDGE_CURVE ( 'NONE', #687, #756, #462, .T. ) ;
#278 = ADVANCED_FACE ( 'NONE', ( #269 ), #388, .F. ) ;
#279 = SHAPE_DEFINITION_REPRESENTATION ( #671, #439 ) ;
#280 = SURFACE_STYLE_FILL_AREA ( #200 ) ;
#281 = ORIENTED_EDGE ( 'NONE', *, *, #274, .F. ) ;
#282 = CARTESIAN_POINT ( 'NONE',  ( -11.49949493661159927, -9.899494936611725748, 5.000000000000000000 ) ) ;
#283 = ORIENTED_EDGE ( 'NONE', *, *, #129, .T. ) ;
#284 = CARTESIAN_POINT ( 'NONE',  ( -3.399999999999981259, 108.0000000000000000, 0.000000000000000000 ) ) ;
#285 = DIRECTION ( 'NONE',  ( -0.000000000000000000, -0.000000000000000000, -1.000000000000000000 ) ) ;
#286 = ORIENTED_EDGE ( 'NONE', *, *, #690, .F. ) ;
#287 = CARTESIAN_POINT ( 'NONE',  ( 16.00000000000004619, 17.88854381999836107, 5.000000000000000000 ) ) ;
#288 = AXIS2_PLACEMENT_3D ( 'NONE', #166, #351, #618 ) ;
#289 = DIRECTION ( 'NONE',  ( 0.000000000000000000, 0.000000000000000000, 1.000000000000000000 ) ) ;
#290 = FACE_OUTER_BOUND ( 'NONE', #74, .T. ) ;
#291 = AXIS2_PLACEMENT_3D ( 'NONE', #9, #321, #454 ) ;
#292 = DIRECTION ( 'NONE',  ( 1.000000000000000000, -7.228014483236695816E-17, 0.000000000000000000 ) ) ;
#293 = VECTOR ( 'NONE', #392, 1000.000000000000000 ) ;
#294 = VERTEX_POINT ( 'NONE', #36 ) ;
#295 = EDGE_LOOP ( 'NONE', ( #488, #453 ) ) ;
#296 = CARTESIAN_POINT ( 'NONE',  ( 0.000000000000000000, 0.000000000000000000, 5.000000000000000000 ) ) ;
#297 = AXIS2_PLACEMENT_3D ( 'NONE', #29, #672, #276 ) ;
#298 = CARTESIAN_POINT ( 'NONE',  ( -4.999999999999948486, 60.00000000000000000, 5.000000000000000000 ) ) ;
#299 = LINE ( 'NONE', #518, #356 ) ;
#300 = AXIS2_PLACEMENT_3D ( 'NONE', #470, #192, #333 ) ;
#301 = CARTESIAN_POINT ( 'NONE',  ( 18.00000000000002842, 2.204364238465239372E-15, 0.000000000000000000 ) ) ;
#302 = CIRCLE ( 'NONE', #769, 1.599999999999984324 ) ;
#303 = ORIENTED_EDGE ( 'NONE', *, *, #400, .T. ) ;
#304 = DIRECTION ( 'NONE',  ( 1.000000000000000000, 0.000000000000000000, 0.000000000000000000 ) ) ;
#305 = EDGE_CURVE ( 'NONE', #687, #19, #555, .T. ) ;
#306 = DIRECTION ( 'NONE',  ( -8.098135949695002534E-16, 1.000000000000000000, -0.000000000000000000 ) ) ;
#307 = CARTESIAN_POINT ( 'NONE',  ( 9.899494936611612061, -9.899494936611718643, 5.000000000000000000 ) ) ;
#308 = ADVANCED_FACE ( 'NONE', ( #290 ), #752, .T. ) ;
#309 = CYLINDRICAL_SURFACE ( 'NONE', #375, 18.00000000000002842 ) ;
#310 = CIRCLE ( 'NONE', #549, 2.000000000000001776 ) ;
#311 = EDGE_LOOP ( 'NONE', ( #303, #348, #403, #283 ) ) ;
#312 = CARTESIAN_POINT ( 'NONE',  ( 18.00000000000002842, 2.204364238465239372E-15, 5.000000000000000000 ) ) ;
#313 = CARTESIAN_POINT ( 'NONE',  ( -8.299494936611608864, -9.899494936611725748, 0.000000000000000000 ) ) ;
#314 = ORIENTED_EDGE ( 'NONE', *, *, #781, .T. ) ;
#315 = ADVANCED_FACE ( 'NONE', ( #739 ), #686, .T. ) ;
#316 = EDGE_CURVE ( 'NONE', #120, #384, #408, .T. ) ;
#317 = EDGE_CURVE ( 'NONE', #198, #820, #216, .T. ) ;
#318 = VECTOR ( 'NONE', #596, 1000.000000000000000 ) ;
#319 = EDGE_CURVE ( 'NONE', #232, #384, #565, .T. ) ;
#320 = ORIENTED_EDGE ( 'NONE', *, *, #305, .T. ) ;
#321 = DIRECTION ( 'NONE',  ( -1.000000000000000000, -5.601711224508438918E-16, 0.000000000000000000 ) ) ;
#322 = ORIENTED_EDGE ( 'NONE', *, *, #694, .F. ) ;
#323 = ORIENTED_EDGE ( 'NONE', *, *, #463, .T. ) ;
#324 = DIRECTION ( 'NONE',  ( 1.129972458096977195E-16, -1.000000000000000000, 0.000000000000000000 ) ) ;
#325 = DIRECTION ( 'NONE',  ( 0.000000000000000000, 0.000000000000000000, 1.000000000000000000 ) ) ;
#326 = DIRECTION ( 'NONE',  ( -0.000000000000000000, -0.000000000000000000, -1.000000000000000000 ) ) ;
#327 = CARTESIAN_POINT ( 'NONE',  ( 0.000000000000000000, 0.000000000000000000, 5.000000000000000000 ) ) ;
#328 = CARTESIAN_POINT ( 'NONE',  ( -18.00000000000002842, 0.000000000000000000, 0.000000000000000000 ) ) ;
#329 = FACE_OUTER_BOUND ( 'NONE', #390, .T. ) ;
#330 = CIRCLE ( 'NONE', #241, 1.599999999999999867 ) ;
#331 = EDGE_LOOP ( 'NONE', ( #17, #632, #320, #391 ) ) ;
#332 = AXIS2_PLACEMENT_3D ( 'NONE', #165, #624, #643 ) ;
#333 = DIRECTION ( 'NONE',  ( 1.000000000000000000, 0.000000000000000000, 0.000000000000000000 ) ) ;
#334 = AXIS2_PLACEMENT_3D ( 'NONE', #97, #223, #494 ) ;
#335 = VECTOR ( 'NONE', #840, 1000.000000000000000 ) ;
#336 = VERTEX_POINT ( 'NONE', #568 ) ;
#337 = ADVANCED_FACE ( 'NONE', ( #700 ), #68, .F. ) ;
#338 = FACE_OUTER_BOUND ( 'NONE', #237, .T. ) ;
#339 = ORIENTED_EDGE ( 'NONE', *, *, #512, .T. ) ;
#340 = DIRECTION ( 'NONE',  ( 1.000000000000000000, 0.000000000000000000, 0.000000000000000000 ) ) ;
#341 = AXIS2_PLACEMENT_3D ( 'NONE', #607, #153, #615 ) ;
#342 = CARTESIAN_POINT ( 'NONE',  ( -7.999999999999954703, 112.0000000000000000, 0.000000000000000000 ) ) ;
#343 =( NAMED_UNIT ( * ) SI_UNIT ( $, .STERADIAN. ) SOLID_ANGLE_UNIT ( ) );
#344 = LINE ( 'NONE', #642, #81 ) ;
#345 = DIRECTION ( 'NONE',  ( -1.000000000000000000, 0.000000000000000000, 0.000000000000000000 ) ) ;
#346 = VERTEX_POINT ( 'NONE', #171 ) ;
#347 = ORIENTED_EDGE ( 'NONE', *, *, #670, .F. ) ;
#348 = ORIENTED_EDGE ( 'NONE', *, *, #10, .F. ) ;
#349 = DIRECTION ( 'NONE',  ( 1.129972458096977195E-16, -1.000000000000000000, 0.000000000000000000 ) ) ;
#350 = DIRECTION ( 'NONE',  ( 1.000000000000000000, -3.252606517456513302E-16, 0.000000000000000000 ) ) ;
#351 = DIRECTION ( 'NONE',  ( 0.000000000000000000, 0.000000000000000000, 1.000000000000000000 ) ) ;
#352 = CARTESIAN_POINT ( 'NONE',  ( -9.899494936611604956, -9.899494936611725748, 5.000000000000000000 ) ) ;
#353 = EDGE_CURVE ( 'NONE', #445, #794, #432, .T. ) ;
#354 = SURFACE_STYLE_FILL_AREA ( #362 ) ;
#355 = DIRECTION ( 'NONE',  ( 1.000000000000000000, 0.000000000000000000, 0.000000000000000000 ) ) ;
#356 = VECTOR ( 'NONE', #393, 1000.000000000000000 ) ;
#357 = EDGE_LOOP ( 'NONE', ( #622, #695, #322, #477 ) ) ;
#358 = VECTOR ( 'NONE', #657, 1000.000000000000000 ) ;
#359 = EDGE_LOOP ( 'NONE', ( #616, #181, #722, #474 ) ) ;
#360 = EDGE_CURVE ( 'NONE', #636, #731, #421, .T. ) ;
#361 = DIRECTION ( 'NONE',  ( 1.000000000000000000, 0.000000000000000000, 0.000000000000000000 ) ) ;
#362 = FILL_AREA_STYLE ('',( #572 ) ) ;
#363 = VERTEX_POINT ( 'NONE', #701 ) ;
#364 = STYLED_ITEM ( 'NONE', ( #147 ), #439 ) ;
#365 = CARTESIAN_POINT ( 'NONE',  ( 9.999999999999971578, 109.9999999999999858, 5.000000000000000000 ) ) ;
#366 = EDGE_LOOP ( 'NONE', ( #815, #648, #491, #838 ) ) ;
#367 = CARTESIAN_POINT ( 'NONE',  ( 3.400000000000049649, 108.0000000000000000, 5.000000000000000000 ) ) ;
#368 = LINE ( 'NONE', #662, #293 ) ;
#369 = ORIENTED_EDGE ( 'NONE', *, *, #234, .T. ) ;
#370 = ADVANCED_FACE ( 'NONE', ( #479 ), #779, .F. ) ;
#371 = CARTESIAN_POINT ( 'NONE',  ( -11.49949493661159927, -9.899494936611725748, 0.000000000000000000 ) ) ;
#372 = VECTOR ( 'NONE', #224, 1000.000000000000000 ) ;
#373 =( NAMED_UNIT ( * ) SI_UNIT ( $, .STERADIAN. ) SOLID_ANGLE_UNIT ( ) );
#374 = EDGE_CURVE ( 'NONE', #150, #14, #656, .T. ) ;
#375 = AXIS2_PLACEMENT_3D ( 'NONE', #327, #725, #591 ) ;
#376 = DIRECTION ( 'NONE',  ( -1.000000000000000000, 0.000000000000000000, 0.000000000000000000 ) ) ;
#377 = CARTESIAN_POINT ( 'NONE',  ( 9.999999999999971578, 109.9999999999999858, 5.000000000000000000 ) ) ;
#378 = CIRCLE ( 'NONE', #600, 1.599999999999984324 ) ;
#379 = ORIENTED_EDGE ( 'NONE', *, *, #781, .F. ) ;
#380 = FACE_OUTER_BOUND ( 'NONE', #109, .T. ) ;
#381 = ORIENTED_EDGE ( 'NONE', *, *, #597, .T. ) ;
#382 = CARTESIAN_POINT ( 'NONE',  ( -6.599999999999952571, 108.0000000000000000, 0.000000000000000000 ) ) ;
#383 = ORIENTED_EDGE ( 'NONE', *, *, #760, .F. ) ;
#384 = VERTEX_POINT ( 'NONE', #313 ) ;
#385 = AXIS2_PLACEMENT_3D ( 'NONE', #211, #409, #484 ) ;
#386 = DIRECTION ( 'NONE',  ( -0.000000000000000000, -0.000000000000000000, -1.000000000000000000 ) ) ;
#387 = CARTESIAN_POINT ( 'NONE',  ( -15.99999999999995559, 17.88854381999835752, 0.000000000000000000 ) ) ;
#388 = CYLINDRICAL_SURFACE ( 'NONE', #21, 1.599999999999995426 ) ;
#389 = VECTOR ( 'NONE', #177, 1000.000000000000000 ) ;
#390 = EDGE_LOOP ( 'NONE', ( #107, #841, #83, #182 ) ) ;
#391 = ORIENTED_EDGE ( 'NONE', *, *, #4, .T. ) ;
#392 = DIRECTION ( 'NONE',  ( -0.000000000000000000, -0.000000000000000000, -1.000000000000000000 ) ) ;
#393 = DIRECTION ( 'NONE',  ( -0.000000000000000000, -0.000000000000000000, -1.000000000000000000 ) ) ;
#394 = AXIS2_PLACEMENT_3D ( 'NONE', #185, #3, #376 ) ;
#395 = CARTESIAN_POINT ( 'NONE',  ( -3.399999999999956835, 60.00000000000000000, 0.000000000000000000 ) ) ;
#396 = COLOUR_RGB ( '',1.000000000000000000, 1.000000000000000000, 1.000000000000000000 ) ;
#397 = LINE ( 'NONE', #282, #630 ) ;
#398 = VERTEX_POINT ( 'NONE', #382 ) ;
#399 = VECTOR ( 'NONE', #560, 1000.000000000000000 ) ;
#400 = EDGE_CURVE ( 'NONE', #184, #707, #807, .T. ) ;
#401 = CARTESIAN_POINT ( 'NONE',  ( -3.399999999999983924, 108.0000000000000000, 5.000000000000000000 ) ) ;
#402 = LINE ( 'NONE', #78, #63 ) ;
#403 = ORIENTED_EDGE ( 'NONE', *, *, #677, .F. ) ;
#404 = CARTESIAN_POINT ( 'NONE',  ( 9.999999999999971578, 109.9999999999999858, 5.000000000000000000 ) ) ;
#405 = EDGE_CURVE ( 'NONE', #33, #25, #559, .T. ) ;
#406 = CARTESIAN_POINT ( 'NONE',  ( -6.599999999999952571, 108.0000000000000000, 5.000000000000000000 ) ) ;
#407 = CARTESIAN_POINT ( 'NONE',  ( 9.999999999999971578, 109.9999999999999858, 5.000000000000000000 ) ) ;
#408 = CIRCLE ( 'NONE', #747, 1.599999999999995426 ) ;
#409 = DIRECTION ( 'NONE',  ( 1.000000000000000000, 1.129972458096977195E-16, -0.000000000000000000 ) ) ;
#410 = ORIENTED_EDGE ( 'NONE', *, *, #360, .F. ) ;
#411 = ORIENTED_EDGE ( 'NONE', *, *, #819, .T. ) ;
#412 = UNCERTAINTY_MEASURE_WITH_UNIT (LENGTH_MEASURE( 1.000000000000000082E-05 ), #486, 'distance_accuracy_value', 'NONE');
#413 = EDGE_LOOP ( 'NONE', ( #556, #207, #43, #410 ) ) ;
#414 = CARTESIAN_POINT ( 'NONE',  ( -9.899494936611604956, -9.899494936611725748, 5.000000000000000000 ) ) ;
#415 = AXIS2_PLACEMENT_3D ( 'NONE', #765, #641, #361 ) ;
#416 = CARTESIAN_POINT ( 'NONE',  ( -3.399999999999983924, 108.0000000000000000, 5.000000000000000000 ) ) ;
#417 = EDGE_CURVE ( 'NONE', #577, #32, #49, .T. ) ;
#418 = CARTESIAN_POINT ( 'NONE',  ( 3.400000000000034106, 60.00000000000000000, 5.000000000000000000 ) ) ;
#419 = STYLED_ITEM ( 'NONE', ( #2 ), #266 ) ;
#420 = DIRECTION ( 'NONE',  ( 0.000000000000000000, 0.000000000000000000, 1.000000000000000000 ) ) ;
#421 = LINE ( 'NONE', #633, #613 ) ;
#422 = VECTOR ( 'NONE', #746, 1000.000000000000000 ) ;
#423 = ORIENTED_EDGE ( 'NONE', *, *, #690, .T. ) ;
#424 = ORIENTED_EDGE ( 'NONE', *, *, #626, .T. ) ;
#425 = LINE ( 'NONE', #69, #547 ) ;
#426 = CARTESIAN_POINT ( 'NONE',  ( 6.600000000000018296, 108.0000000000000000, 5.000000000000000000 ) ) ;
#427 = DIRECTION ( 'NONE',  ( -0.000000000000000000, -0.000000000000000000, -1.000000000000000000 ) ) ;
#428 = PLANE ( 'NONE',  #332 ) ;
#429 = CARTESIAN_POINT ( 'NONE',  ( -15.99999999999995559, 17.88854381999835752, 5.000000000000000000 ) ) ;
#430 = AXIS2_PLACEMENT_3D ( 'NONE', #414, #482, #94 ) ;
#431 = APPLICATION_PROTOCOL_DEFINITION ( 'draft international standard', 'automotive_design', 1998, #826 ) ;
#432 = CIRCLE ( 'NONE', #520, 18.00000000000002842 ) ;
#433 = ORIENTED_EDGE ( 'NONE', *, *, #58, .T. ) ;
#434 = EDGE_LOOP ( 'NONE', ( #238, #191, #621, #314 ) ) ;
#435 = SURFACE_STYLE_USAGE ( .BOTH. , #108 ) ;
#436 = ORIENTED_EDGE ( 'NONE', *, *, #46, .T. ) ;
#437 = CARTESIAN_POINT ( 'NONE',  ( 6.600000000000018296, 108.0000000000000000, 5.000000000000000000 ) ) ;
#438 = PRODUCT ( '摄像头支架1', '摄像头支架1', '', ( #771 ) ) ;
#439 = ADVANCED_BREP_SHAPE_REPRESENTATION ( '摄像头支架1', ( #266, #415 ), #53 ) ;
#440 = APPLICATION_PROTOCOL_DEFINITION ( 'draft international standard', 'automotive_design', 1998, #561 ) ;
#441 = ADVANCED_FACE ( 'NONE', ( #92 ), #273, .F. ) ;
#442 = VECTOR ( 'NONE', #584, 1000.000000000000000 ) ;
#443 = AXIS2_PLACEMENT_3D ( 'NONE', #797, #145, #340 ) ;
#444 = VECTOR ( 'NONE', #816, 1000.000000000000000 ) ;
#445 = VERTEX_POINT ( 'NONE', #328 ) ;
#446 = ORIENTED_EDGE ( 'NONE', *, *, #501, .T. ) ;
#447 = FACE_OUTER_BOUND ( 'NONE', #674, .T. ) ;
#448 = DIRECTION ( 'NONE',  ( 1.000000000000000000, 0.000000000000000000, 0.000000000000000000 ) ) ;
#449 = EDGE_CURVE ( 'NONE', #161, #756, #425, .T. ) ;
#450 = DIRECTION ( 'NONE',  ( -1.000000000000000000, 0.000000000000000000, 0.000000000000000000 ) ) ;
#451 = EDGE_CURVE ( 'NONE', #230, #59, #253, .T. ) ;
#452 = LINE ( 'NONE', #137, #712 ) ;
#453 = ORIENTED_EDGE ( 'NONE', *, *, #585, .T. ) ;
#454 = DIRECTION ( 'NONE',  ( 5.601711224508438918E-16, -1.000000000000000000, 0.000000000000000000 ) ) ;
#455 = ORIENTED_EDGE ( 'NONE', *, *, #449, .T. ) ;
#456 = CARTESIAN_POINT ( 'NONE',  ( -9.999999999999971578, 109.9999999999999858, 0.000000000000000000 ) ) ;
#457 = DIRECTION ( 'NONE',  ( -3.252606517456513302E-16, 1.000000000000000000, -0.000000000000000000 ) ) ;
#458 = DIRECTION ( 'NONE',  ( -0.000000000000000000, -0.000000000000000000, -1.000000000000000000 ) ) ;
#459 = DIRECTION ( 'NONE',  ( -0.000000000000000000, -0.000000000000000000, -1.000000000000000000 ) ) ;
#460 = CARTESIAN_POINT ( 'NONE',  ( -8.299494936611608864, -9.899494936611725748, 5.000000000000000000 ) ) ;
#461 = LINE ( 'NONE', #564, #507 ) ;
#462 = LINE ( 'NONE', #67, #664 ) ;
#463 = EDGE_CURVE ( 'NONE', #820, #198, #73, .T. ) ;
#464 = CARTESIAN_POINT ( 'NONE',  ( -4.999999999999968026, 108.0000000000000000, 5.000000000000000000 ) ) ;
#465 = CIRCLE ( 'NONE', #575, 18.00000000000002842 ) ;
#466 = ORIENTED_EDGE ( 'NONE', *, *, #144, .T. ) ;
#467 = MECHANICAL_DESIGN_GEOMETRIC_PRESENTATION_REPRESENTATION (  '', ( #419 ), #485 ) ;
#468 = ADVANCED_FACE ( 'NONE', ( #239 ), #754, .F. ) ;
#469 = ORIENTED_EDGE ( 'NONE', *, *, #234, .F. ) ;
#470 = CARTESIAN_POINT ( 'NONE',  ( 0.000000000000000000, 0.000000000000000000, 5.000000000000000000 ) ) ;
#471 = ADVANCED_FACE ( 'NONE', ( #743 ), #231, .F. ) ;
#472 = PLANE ( 'NONE',  #194 ) ;
#473 = CYLINDRICAL_SURFACE ( 'NONE', #571, 1.599999999999999867 ) ;
#474 = ORIENTED_EDGE ( 'NONE', *, *, #536, .T. ) ;
#475 = ADVANCED_FACE ( 'NONE', ( #447 ), #735, .F. ) ;
#476 = LINE ( 'NONE', #586, #358 ) ;
#477 = ORIENTED_EDGE ( 'NONE', *, *, #46, .F. ) ;
#478 = CARTESIAN_POINT ( 'NONE',  ( 16.00000000000004619, 17.88854381999836107, 0.000000000000000000 ) ) ;
#479 = FACE_OUTER_BOUND ( 'NONE', #678, .T. ) ;
#480 = AXIS2_PLACEMENT_3D ( 'NONE', #523, #459, #140 ) ;
#481 = CLOSED_SHELL ( 'NONE', ( #370, #468, #143, #208, #54, #637, #441, #113, #798, #763, #534, #563, #475, #729, #278, #827, #471, #308, #337, #250, #608, #315, #27, #801 ) ) ;
#482 = DIRECTION ( 'NONE',  ( 0.000000000000000000, 0.000000000000000000, 1.000000000000000000 ) ) ;
#483 = SURFACE_STYLE_USAGE ( .BOTH. , #168 ) ;
#484 = DIRECTION ( 'NONE',  ( -1.129972458096977195E-16, 1.000000000000000000, 0.000000000000000000 ) ) ;
#485 =( GEOMETRIC_REPRESENTATION_CONTEXT ( 3 ) GLOBAL_UNCERTAINTY_ASSIGNED_CONTEXT ( ( #412 ) ) GLOBAL_UNIT_ASSIGNED_CONTEXT ( ( #486, #545, #343 ) ) REPRESENTATION_CONTEXT ( 'NONE', 'WORKASPACE' ) );
#486 =( LENGTH_UNIT ( ) NAMED_UNIT ( * ) SI_UNIT ( .MILLI., .METRE. ) );
#487 = CIRCLE ( 'NONE', #341, 1.599999999999999867 ) ;
#488 = ORIENTED_EDGE ( 'NONE', *, *, #316, .T. ) ;
#489 = ORIENTED_EDGE ( 'NONE', *, *, #626, .F. ) ;
#490 = CARTESIAN_POINT ( 'NONE',  ( -6.599999999999952571, 108.0000000000000000, 5.000000000000000000 ) ) ;
#491 = ORIENTED_EDGE ( 'NONE', *, *, #597, .F. ) ;
#492 = DIRECTION ( 'NONE',  ( 0.000000000000000000, 0.000000000000000000, 1.000000000000000000 ) ) ;
#493 = PRODUCT_DEFINITION_CONTEXT ( 'detailed design', #826, 'design' ) ;
#494 = DIRECTION ( 'NONE',  ( 0.000000000000000000, -0.000000000000000000, -1.000000000000000000 ) ) ;
#495 = DIRECTION ( 'NONE',  ( 0.000000000000000000, 0.000000000000000000, 1.000000000000000000 ) ) ;
#496 = EDGE_CURVE ( 'NONE', #398, #102, #402, .T. ) ;
#497 = CARTESIAN_POINT ( 'NONE',  ( -4.999999999999948486, 60.00000000000000000, 5.000000000000000000 ) ) ;
#498 = LINE ( 'NONE', #122, #89 ) ;
#499 = ORIENTED_EDGE ( 'NONE', *, *, #226, .T. ) ;
#500 = CARTESIAN_POINT ( 'NONE',  ( -9.999999999999969802, 109.9999999999999858, 5.000000000000000000 ) ) ;
#501 = EDGE_CURVE ( 'NONE', #577, #569, #368, .T. ) ;
#502 = ORIENTED_EDGE ( 'NONE', *, *, #451, .F. ) ;
#503 = DIRECTION ( 'NONE',  ( -0.000000000000000000, -0.000000000000000000, -1.000000000000000000 ) ) ;
#504 = DIRECTION ( 'NONE',  ( -0.000000000000000000, -0.000000000000000000, -1.000000000000000000 ) ) ;
#505 = CARTESIAN_POINT ( 'NONE',  ( -6.599999999999948130, 60.00000000000000000, 0.000000000000000000 ) ) ;
#506 =( NAMED_UNIT ( * ) PLANE_ANGLE_UNIT ( ) SI_UNIT ( $, .RADIAN. ) );
#507 = VECTOR ( 'NONE', #236, 1000.000000000000000 ) ;
#508 = ORIENTED_EDGE ( 'NONE', *, *, #90, .T. ) ;
#509 = CIRCLE ( 'NONE', #300, 18.00000000000002842 ) ;
#510 = ORIENTED_EDGE ( 'NONE', *, *, #727, .F. ) ;
#511 = ORIENTED_EDGE ( 'NONE', *, *, #374, .F. ) ;
#512 = EDGE_CURVE ( 'NONE', #23, #294, #509, .T. ) ;
#513 = PRESENTATION_LAYER_ASSIGNMENT (  '', '', ( #419 ) ) ;
#514 = FACE_BOUND ( 'NONE', #61, .T. ) ;
#515 = LINE ( 'NONE', #365, #47 ) ;
#516 = VERTEX_POINT ( 'NONE', #595 ) ;
#517 = ORIENTED_EDGE ( 'NONE', *, *, #319, .T. ) ;
#518 = CARTESIAN_POINT ( 'NONE',  ( -7.999999999999954703, 112.0000000000000000, 5.000000000000000000 ) ) ;
#519 = ORIENTED_EDGE ( 'NONE', *, *, #187, .F. ) ;
#520 = AXIS2_PLACEMENT_3D ( 'NONE', #106, #562, #174 ) ;
#521 = DIRECTION ( 'NONE',  ( -1.000000000000000000, 0.000000000000000000, 0.000000000000000000 ) ) ;
#522 = CARTESIAN_POINT ( 'NONE',  ( 6.600000000000027178, 60.00000000000000000, 0.000000000000000000 ) ) ;
#523 = CARTESIAN_POINT ( 'NONE',  ( -9.899494936611604956, -9.899494936611725748, 5.000000000000000000 ) ) ;
#524 = LINE ( 'NONE', #242, #783 ) ;
#525 = AXIS2_PLACEMENT_3D ( 'NONE', #12, #18, #521 ) ;
#526 = FACE_OUTER_BOUND ( 'NONE', #311, .T. ) ;
#527 = ORIENTED_EDGE ( 'NONE', *, *, #405, .T. ) ;
#528 = ORIENTED_EDGE ( 'NONE', *, *, #64, .T. ) ;
#529 = CARTESIAN_POINT ( 'NONE',  ( 3.400000000000034106, 60.00000000000000000, 5.000000000000000000 ) ) ;
#530 = ORIENTED_EDGE ( 'NONE', *, *, #58, .F. ) ;
#531 = DIRECTION ( 'NONE',  ( -1.000000000000000000, 0.000000000000000000, 0.000000000000000000 ) ) ;
#532 = AXIS2_PLACEMENT_3D ( 'NONE', #758, #810, #220 ) ;
#533 = DIRECTION ( 'NONE',  ( 1.000000000000000000, 0.000000000000000000, 0.000000000000000000 ) ) ;
#534 = ADVANCED_FACE ( 'NONE', ( #603 ), #149, .T. ) ;
#535 = FACE_OUTER_BOUND ( 'NONE', #265, .T. ) ;
#536 = EDGE_CURVE ( 'NONE', #655, #100, #476, .T. ) ;
#537 = DIRECTION ( 'NONE',  ( -0.000000000000000000, -0.000000000000000000, -1.000000000000000000 ) ) ;
#538 = VERTEX_POINT ( 'NONE', #395 ) ;
#539 = EDGE_CURVE ( 'NONE', #708, #62, #487, .T. ) ;
#540 = CYLINDRICAL_SURFACE ( 'NONE', #37, 2.000000000000000888 ) ;
#541 = ORIENTED_EDGE ( 'NONE', *, *, #226, .F. ) ;
#542 = ORIENTED_EDGE ( 'NONE', *, *, #176, .T. ) ;
#543 = EDGE_CURVE ( 'NONE', #346, #667, #806, .T. ) ;
#544 = CARTESIAN_POINT ( 'NONE',  ( -11.99999999999996625, 13.41640786499877258, 0.000000000000000000 ) ) ;
#545 =( NAMED_UNIT ( * ) PLANE_ANGLE_UNIT ( ) SI_UNIT ( $, .RADIAN. ) );
#546 = EDGE_LOOP ( 'NONE', ( #551, #52, #550, #249, #634, #93, #703, #469, #751, #48 ) ) ;
#547 = VECTOR ( 'NONE', #457, 1000.000000000000000 ) ;
#548 = ORIENTED_EDGE ( 'NONE', *, *, #585, .F. ) ;
#549 = AXIS2_PLACEMENT_3D ( 'NONE', #822, #688, #691 ) ;
#550 = ORIENTED_EDGE ( 'NONE', *, *, #353, .F. ) ;
#551 = ORIENTED_EDGE ( 'NONE', *, *, #22, .F. ) ;
#552 = CARTESIAN_POINT ( 'NONE',  ( -6.599999999999952571, 108.0000000000000000, 5.000000000000000000 ) ) ;
#553 = EDGE_CURVE ( 'NONE', #655, #605, #172, .T. ) ;
#554 = DIRECTION ( 'NONE',  ( 1.000000000000000000, 0.000000000000000000, 0.000000000000000000 ) ) ;
#555 = CIRCLE ( 'NONE', #162, 1.599999999999984324 ) ;
#556 = ORIENTED_EDGE ( 'NONE', *, *, #55, .F. ) ;
#557 = LINE ( 'NONE', #416, #444 ) ;
#558 = ORIENTED_EDGE ( 'NONE', *, *, #316, .F. ) ;
#559 = LINE ( 'NONE', #784, #262 ) ;
#560 = DIRECTION ( 'NONE',  ( -0.000000000000000000, -0.000000000000000000, -1.000000000000000000 ) ) ;
#561 = APPLICATION_CONTEXT ( 'automotive_design' ) ;
#562 = DIRECTION ( 'NONE',  ( 0.000000000000000000, 0.000000000000000000, 1.000000000000000000 ) ) ;
#563 = ADVANCED_FACE ( 'NONE', ( #526 ), #803, .F. ) ;
#564 = CARTESIAN_POINT ( 'NONE',  ( -3.399999999999983924, 108.0000000000000000, 0.000000000000000000 ) ) ;
#565 = LINE ( 'NONE', #623, #372 ) ;
#566 = VERTEX_POINT ( 'NONE', #342 ) ;
#567 = DIRECTION ( 'NONE',  ( -1.000000000000000000, 0.000000000000000000, 0.000000000000000000 ) ) ;
#568 = CARTESIAN_POINT ( 'NONE',  ( -6.599999999999948130, 60.00000000000000000, 5.000000000000000000 ) ) ;
#569 = VERTEX_POINT ( 'NONE', #284 ) ;
#570 = DIRECTION ( 'NONE',  ( 1.000000000000000000, 0.000000000000000000, 0.000000000000000000 ) ) ;
#571 = AXIS2_PLACEMENT_3D ( 'NONE', #836, #504, #602 ) ;
#572 = FILL_AREA_STYLE_COLOUR ( '', #396 ) ;
#573 = CARTESIAN_POINT ( 'NONE',  ( 7.999999999999956479, 112.0000000000000000, 0.000000000000000000 ) ) ;
#574 = CARTESIAN_POINT ( 'NONE',  ( -9.999999999999969802, 109.9999999999999858, 0.000000000000000000 ) ) ;
#575 = AXIS2_PLACEMENT_3D ( 'NONE', #296, #221, #355 ) ;
#576 = CIRCLE ( 'NONE', #834, 18.00000000000002842 ) ;
#577 = VERTEX_POINT ( 'NONE', #401 ) ;
#578 = CIRCLE ( 'NONE', #786, 5.999999999999998224 ) ;
#579 = ORIENTED_EDGE ( 'NONE', *, *, #760, .T. ) ;
#580 = ORIENTED_EDGE ( 'NONE', *, *, #670, .T. ) ;
#581 = DIRECTION ( 'NONE',  ( -1.000000000000000000, 0.000000000000000000, 0.000000000000000000 ) ) ;
#582 = EDGE_CURVE ( 'NONE', #569, #398, #302, .T. ) ;
#583 = EDGE_LOOP ( 'NONE', ( #179, #286, #433, #240 ) ) ;
#584 = DIRECTION ( 'NONE',  ( -1.000000000000000000, -0.000000000000000000, -0.000000000000000000 ) ) ;
#585 = EDGE_CURVE ( 'NONE', #384, #120, #160, .T. ) ;
#586 = CARTESIAN_POINT ( 'NONE',  ( 10.00000000000004619, 17.88854381999836107, 5.000000000000000000 ) ) ;
#587 = CARTESIAN_POINT ( 'NONE',  ( -7.999999999999954703, 112.0000000000000000, 5.000000000000000000 ) ) ;
#588 = CIRCLE ( 'NONE', #116, 18.00000000000002842 ) ;
#589 = EDGE_LOOP ( 'NONE', ( #723, #713, #76, #163 ) ) ;
#590 = CARTESIAN_POINT ( 'NONE',  ( -4.999999999999968026, 108.0000000000000000, 5.000000000000000000 ) ) ;
#591 = DIRECTION ( 'NONE',  ( -1.000000000000000000, 0.000000000000000000, 0.000000000000000000 ) ) ;
#592 = ORIENTED_EDGE ( 'NONE', *, *, #105, .F. ) ;
#593 = AXIS2_PLACEMENT_3D ( 'NONE', #719, #326, #790 ) ;
#594 = CARTESIAN_POINT ( 'NONE',  ( -7.999999999999954703, 112.0000000000000000, 5.000000000000000000 ) ) ;
#595 = CARTESIAN_POINT ( 'NONE',  ( -9.999999999999959144, 17.88854381999835752, 5.000000000000000000 ) ) ;
#596 = DIRECTION ( 'NONE',  ( -0.000000000000000000, -0.000000000000000000, -1.000000000000000000 ) ) ;
#597 = EDGE_CURVE ( 'NONE', #636, #655, #793, .T. ) ;
#598 = DIRECTION ( 'NONE',  ( -0.000000000000000000, -0.000000000000000000, -1.000000000000000000 ) ) ;
#599 = LINE ( 'NONE', #132, #318 ) ;
#600 = AXIS2_PLACEMENT_3D ( 'NONE', #128, #259, #720 ) ;
#601 = ORIENTED_EDGE ( 'NONE', *, *, #631, .T. ) ;
#602 = DIRECTION ( 'NONE',  ( -1.000000000000000000, 0.000000000000000000, 0.000000000000000000 ) ) ;
#603 = FACE_OUTER_BOUND ( 'NONE', #744, .T. ) ;
#604 = DIRECTION ( 'NONE',  ( 0.000000000000000000, 0.000000000000000000, 1.000000000000000000 ) ) ;
#605 = VERTEX_POINT ( 'NONE', #407 ) ;
#606 = VECTOR ( 'NONE', #75, 1000.000000000000000 ) ;
#607 = CARTESIAN_POINT ( 'NONE',  ( 5.000000000000026645, 60.00000000000000000, 5.000000000000000000 ) ) ;
#608 = ADVANCED_FACE ( 'NONE', ( #99 ), #197, .F. ) ;
#609 = VECTOR ( 'NONE', #306, 1000.000000000000000 ) ;
#610 = DIRECTION ( 'NONE',  ( 1.000000000000000000, 0.000000000000000000, 0.000000000000000000 ) ) ;
#611 = EDGE_CURVE ( 'NONE', #198, #14, #180, .T. ) ;
#612 = AXIS2_PLACEMENT_3D ( 'NONE', #625, #228, #41 ) ;
#613 = VECTOR ( 'NONE', #427, 1000.000000000000000 ) ;
#614 = ORIENTED_EDGE ( 'NONE', *, *, #176, .F. ) ;
#615 = DIRECTION ( 'NONE',  ( -1.000000000000000000, 0.000000000000000000, 0.000000000000000000 ) ) ;
#616 = ORIENTED_EDGE ( 'NONE', *, *, #101, .T. ) ;
#617 = CARTESIAN_POINT ( 'NONE',  ( -9.899494936611604956, -9.899494936611725748, 0.000000000000000000 ) ) ;
#618 = DIRECTION ( 'NONE',  ( -1.000000000000000000, 0.000000000000000000, 0.000000000000000000 ) ) ;
#619 = CARTESIAN_POINT ( 'NONE',  ( -6.599999999999952571, 108.0000000000000000, 5.000000000000000000 ) ) ;
#620 = VECTOR ( 'NONE', #34, 1000.000000000000000 ) ;
#621 = ORIENTED_EDGE ( 'NONE', *, *, #417, .T. ) ;
#622 = ORIENTED_EDGE ( 'NONE', *, *, #732, .F. ) ;
#623 = CARTESIAN_POINT ( 'NONE',  ( -8.299494936611608864, -9.899494936611725748, 5.000000000000000000 ) ) ;
#624 = DIRECTION ( 'NONE',  ( 0.000000000000000000, 0.000000000000000000, 1.000000000000000000 ) ) ;
#625 = CARTESIAN_POINT ( 'NONE',  ( 7.999999999999970690, 110.0000000000000000, 5.000000000000000000 ) ) ;
#626 = EDGE_CURVE ( 'NONE', #363, #232, #60, .T. ) ;
#627 = DIRECTION ( 'NONE',  ( -0.000000000000000000, -0.000000000000000000, -1.000000000000000000 ) ) ;
#628 = DIRECTION ( 'NONE',  ( -1.000000000000000000, 0.000000000000000000, 0.000000000000000000 ) ) ;
#629 =( NAMED_UNIT ( * ) PLANE_ANGLE_UNIT ( ) SI_UNIT ( $, .RADIAN. ) );
#630 = VECTOR ( 'NONE', #681, 1000.000000000000000 ) ;
#631 = EDGE_CURVE ( 'NONE', #667, #445, #714, .T. ) ;
#632 = ORIENTED_EDGE ( 'NONE', *, *, #277, .F. ) ;
#633 = CARTESIAN_POINT ( 'NONE',  ( 12.00000000000003553, 13.41640786499874594, 5.000000000000000000 ) ) ;
#634 = ORIENTED_EDGE ( 'NONE', *, *, #144, .F. ) ;
#635 = VECTOR ( 'NONE', #324, 1000.000000000000000 ) ;
#636 = VERTEX_POINT ( 'NONE', #88 ) ;
#637 = ADVANCED_FACE ( 'NONE', ( #817, #127, #24, #229, #647 ), #472, .F. ) ;
#638 = DIRECTION ( 'NONE',  ( -1.000000000000000000, 0.000000000000000000, 0.000000000000000000 ) ) ;
#639 = CARTESIAN_POINT ( 'NONE',  ( 6.600000000000034284, 60.00000000000000000, 5.000000000000000000 ) ) ;
#640 = AXIS2_PLACEMENT_3D ( 'NONE', #131, #133, #531 ) ;
#641 = DIRECTION ( 'NONE',  ( 0.000000000000000000, 0.000000000000000000, 1.000000000000000000 ) ) ;
#642 = CARTESIAN_POINT ( 'NONE',  ( 8.299494936611612417, -9.899494936611718643, 5.000000000000000000 ) ) ;
#643 = DIRECTION ( 'NONE',  ( 1.000000000000000000, 0.000000000000000000, -0.000000000000000000 ) ) ;
#644 = CYLINDRICAL_SURFACE ( 'NONE', #697, 1.599999999999998979 ) ;
#645 = FACE_BOUND ( 'NONE', #188, .T. ) ;
#646 = VERTEX_POINT ( 'NONE', #151 ) ;
#647 = FACE_BOUND ( 'NONE', #44, .T. ) ;
#648 = ORIENTED_EDGE ( 'NONE', *, *, #536, .F. ) ;
#649 = EDGE_CURVE ( 'NONE', #788, #25, #31, .T. ) ;
#650 = AXIS2_PLACEMENT_3D ( 'NONE', #352, #420, #809 ) ;
#651 = VERTEX_POINT ( 'NONE', #28 ) ;
#652 = DIRECTION ( 'NONE',  ( -0.000000000000000000, -0.000000000000000000, -1.000000000000000000 ) ) ;
#653 = LINE ( 'NONE', #709, #609 ) ;
#654 = EDGE_LOOP ( 'NONE', ( #776, #665, #383, #411 ) ) ;
#655 = VERTEX_POINT ( 'NONE', #736 ) ;
#656 = CIRCLE ( 'NONE', #394, 1.599999999999998979 ) ;
#657 = DIRECTION ( 'NONE',  ( -0.000000000000000000, -0.000000000000000000, -1.000000000000000000 ) ) ;
#658 = ORIENTED_EDGE ( 'NONE', *, *, #496, .T. ) ;
#659 =( GEOMETRIC_REPRESENTATION_CONTEXT ( 3 ) GLOBAL_UNCERTAINTY_ASSIGNED_CONTEXT ( ( #111 ) ) GLOBAL_UNIT_ASSIGNED_CONTEXT ( ( #835, #629, #770 ) ) REPRESENTATION_CONTEXT ( 'NONE', 'WORKASPACE' ) );
#660 = DIRECTION ( 'NONE',  ( -0.000000000000000000, -0.000000000000000000, -1.000000000000000000 ) ) ;
#661 = CARTESIAN_POINT ( 'NONE',  ( 3.400000000000049649, 108.0000000000000000, 5.000000000000000000 ) ) ;
#662 = CARTESIAN_POINT ( 'NONE',  ( -3.399999999999983924, 108.0000000000000000, 5.000000000000000000 ) ) ;
#663 = AXIS2_PLACEMENT_3D ( 'NONE', #96, #350, #95 ) ;
#664 = VECTOR ( 'NONE', #660, 1000.000000000000000 ) ;
#665 = ORIENTED_EDGE ( 'NONE', *, *, #405, .F. ) ;
#666 = CIRCLE ( 'NONE', #288, 2.000000000000001776 ) ;
#667 = VERTEX_POINT ( 'NONE', #544 ) ;
#668 = EDGE_LOOP ( 'NONE', ( #243, #658, #508, #683 ) ) ;
#669 = DIRECTION ( 'NONE',  ( -0.000000000000000000, -0.000000000000000000, -1.000000000000000000 ) ) ;
#670 = EDGE_CURVE ( 'NONE', #59, #161, #330, .T. ) ;
#671 = PRODUCT_DEFINITION_SHAPE ( 'NONE', 'NONE',  #183 ) ;
#672 = DIRECTION ( 'NONE',  ( -0.000000000000000000, -0.000000000000000000, -1.000000000000000000 ) ) ;
#673 = COLOUR_RGB ( '',0.6549019607843137303, 0.6705882352941175961, 0.6980392156862744724 ) ;
#674 = EDGE_LOOP ( 'NONE', ( #466, #785, #35, #126 ) ) ;
#675 = ORIENTED_EDGE ( 'NONE', *, *, #694, .T. ) ;
#676 = DIRECTION ( 'NONE',  ( 1.000000000000000000, 0.000000000000000000, 0.000000000000000000 ) ) ;
#677 = EDGE_CURVE ( 'NONE', #646, #516, #775, .T. ) ;
#678 = EDGE_LOOP ( 'NONE', ( #323, #829, #511, #795 ) ) ;
#679 = DIRECTION ( 'NONE',  ( -8.098135949695002534E-16, 1.000000000000000000, -0.000000000000000000 ) ) ;
#680 = DIRECTION ( 'NONE',  ( -1.000000000000000000, 0.000000000000000000, 0.000000000000000000 ) ) ;
#681 = DIRECTION ( 'NONE',  ( -0.000000000000000000, -0.000000000000000000, -1.000000000000000000 ) ) ;
#682 = CARTESIAN_POINT ( 'NONE',  ( 12.00000000000003553, 13.41640786499874594, 0.000000000000000000 ) ) ;
#683 = ORIENTED_EDGE ( 'NONE', *, *, #823, .T. ) ;
#684 = AXIS2_PLACEMENT_3D ( 'NONE', #267, #669, #270 ) ;
#685 = ORIENTED_EDGE ( 'NONE', *, *, #4, .F. ) ;
#686 = PLANE ( 'NONE',  #663 ) ;
#687 = VERTEX_POINT ( 'NONE', #426 ) ;
#688 = DIRECTION ( 'NONE',  ( 0.000000000000000000, 0.000000000000000000, 1.000000000000000000 ) ) ;
#689 = ORIENTED_EDGE ( 'NONE', *, *, #677, .T. ) ;
#690 = EDGE_CURVE ( 'NONE', #62, #161, #16, .T. ) ;
#691 = DIRECTION ( 'NONE',  ( -1.000000000000000000, 0.000000000000000000, 0.000000000000000000 ) ) ;
#692 = AXIS2_PLACEMENT_3D ( 'NONE', #51, #114, #761 ) ;
#693 = CARTESIAN_POINT ( 'NONE',  ( 7.999999999999970690, 110.0000000000000000, 0.000000000000000000 ) ) ;
#694 = EDGE_CURVE ( 'NONE', #651, #577, #557, .T. ) ;
#695 = ORIENTED_EDGE ( 'NONE', *, *, #417, .F. ) ;
#696 = LINE ( 'NONE', #490, #399 ) ;
#697 = AXIS2_PLACEMENT_3D ( 'NONE', #307, #235, #638 ) ;
#698 = CARTESIAN_POINT ( 'NONE',  ( 7.999999999999970690, 110.0000000000000000, 5.000000000000000000 ) ) ;
#699 = DIRECTION ( 'NONE',  ( -0.000000000000000000, -0.000000000000000000, -1.000000000000000000 ) ) ;
#700 = FACE_OUTER_BOUND ( 'NONE', #170, .T. ) ;
#701 = CARTESIAN_POINT ( 'NONE',  ( -11.49949493661159927, -9.899494936611725748, 5.000000000000000000 ) ) ;
#702 = CARTESIAN_POINT ( 'NONE',  ( 10.00000000000004619, 17.88854381999836107, 0.000000000000000000 ) ) ;
#703 = ORIENTED_EDGE ( 'NONE', *, *, #718, .F. ) ;
#704 = AXIS2_PLACEMENT_3D ( 'NONE', #774, #244, #570 ) ;
#705 = DIRECTION ( 'NONE',  ( -0.000000000000000000, -0.000000000000000000, -1.000000000000000000 ) ) ;
#706 = CARTESIAN_POINT ( 'NONE',  ( -18.00000000000002842, 0.000000000000000000, 5.000000000000000000 ) ) ;
#707 = VERTEX_POINT ( 'NONE', #159 ) ;
#708 = VERTEX_POINT ( 'NONE', #418 ) ;
#709 = CARTESIAN_POINT ( 'NONE',  ( 9.999999999999971578, 109.9999999999999858, 0.000000000000000000 ) ) ;
#710 = DIRECTION ( 'NONE',  ( -0.000000000000000000, -0.000000000000000000, -1.000000000000000000 ) ) ;
#711 = DIRECTION ( 'NONE',  ( 8.098135949695001548E-16, -1.000000000000000000, 0.000000000000000000 ) ) ;
#712 = VECTOR ( 'NONE', #77, 1000.000000000000000 ) ;
#713 = ORIENTED_EDGE ( 'NONE', *, *, #512, .F. ) ;
#714 = CIRCLE ( 'NONE', #443, 18.00000000000002842 ) ;
#715 = ORIENTED_EDGE ( 'NONE', *, *, #773, .T. ) ;
#716 = EDGE_CURVE ( 'NONE', #261, #646, #666, .T. ) ;
#717 = CARTESIAN_POINT ( 'NONE',  ( 8.299494936611612417, -9.899494936611718643, 0.000000000000000000 ) ) ;
#718 = EDGE_CURVE ( 'NONE', #566, #184, #310, .T. ) ;
#719 = CARTESIAN_POINT ( 'NONE',  ( 16.00000000000004619, 17.88854381999836107, 5.000000000000000000 ) ) ;
#720 = DIRECTION ( 'NONE',  ( -1.000000000000000000, 0.000000000000000000, 0.000000000000000000 ) ) ;
#721 = DIRECTION ( 'NONE',  ( 1.000000000000000000, 0.000000000000000000, 0.000000000000000000 ) ) ;
#722 = ORIENTED_EDGE ( 'NONE', *, *, #553, .F. ) ;
#723 = ORIENTED_EDGE ( 'NONE', *, *, #799, .F. ) ;
#724 = AXIS2_PLACEMENT_3D ( 'NONE', #497, #828, #628 ) ;
#725 = DIRECTION ( 'NONE',  ( -0.000000000000000000, -0.000000000000000000, -1.000000000000000000 ) ) ;
#726 = ORIENTED_EDGE ( 'NONE', *, *, #260, .T. ) ;
#727 = EDGE_CURVE ( 'NONE', #23, #445, #837, .T. ) ;
#728 = DIRECTION ( 'NONE',  ( -7.228014483236695816E-17, -1.000000000000000000, 0.000000000000000000 ) ) ;
#729 = ADVANCED_FACE ( 'NONE', ( #338 ), #251, .T. ) ;
#730 = LINE ( 'NONE', #661, #814 ) ;
#731 = VERTEX_POINT ( 'NONE', #682 ) ;
#732 = EDGE_CURVE ( 'NONE', #32, #336, #82, .T. ) ;
#733 = VECTOR ( 'NONE', #275, 1000.000000000000000 ) ;
#734 = ORIENTED_EDGE ( 'NONE', *, *, #553, .T. ) ;
#735 = CYLINDRICAL_SURFACE ( 'NONE', #684, 5.999999999999998224 ) ;
#736 = CARTESIAN_POINT ( 'NONE',  ( 10.00000000000004619, 17.88854381999836107, 5.000000000000000000 ) ) ;
#737 = DIRECTION ( 'NONE',  ( 0.000000000000000000, 0.000000000000000000, 1.000000000000000000 ) ) ;
#738 = PRODUCT_RELATED_PRODUCT_CATEGORY ( 'part', '', ( #438 ) ) ;
#739 = FACE_OUTER_BOUND ( 'NONE', #839, .T. ) ;
#740 = FACE_OUTER_BOUND ( 'NONE', #583, .T. ) ;
#741 = ORIENTED_EDGE ( 'NONE', *, *, #496, .F. ) ;
#742 = DIRECTION ( 'NONE',  ( 1.000000000000000000, 0.000000000000000000, -0.000000000000000000 ) ) ;
#743 = FACE_OUTER_BOUND ( 'NONE', #434, .T. ) ;
#744 = EDGE_LOOP ( 'NONE', ( #227, #258, #141, #499 ) ) ;
#745 = ORIENTED_EDGE ( 'NONE', *, *, #274, .T. ) ;
#746 = DIRECTION ( 'NONE',  ( -0.000000000000000000, -0.000000000000000000, -1.000000000000000000 ) ) ;
#747 = AXIS2_PLACEMENT_3D ( 'NONE', #617, #495, #304 ) ;
#748 = CARTESIAN_POINT ( 'NONE',  ( 5.000000000000026645, 60.00000000000000000, 0.000000000000000000 ) ) ;
#749 = CARTESIAN_POINT ( 'NONE',  ( -18.00000000000002842, 0.000000000000000000, 5.000000000000000000 ) ) ;
#750 = FACE_OUTER_BOUND ( 'NONE', #210, .T. ) ;
#751 = ORIENTED_EDGE ( 'NONE', *, *, #649, .F. ) ;
#752 = PLANE ( 'NONE',  #821 ) ;
#753 = LINE ( 'NONE', #312, #42 ) ;
#754 = CYLINDRICAL_SURFACE ( 'NONE', #480, 1.599999999999995426 ) ;
#755 = CARTESIAN_POINT ( 'NONE',  ( 6.600000000000027178, 60.00000000000000000, 5.000000000000000000 ) ) ;
#756 = VERTEX_POINT ( 'NONE', #103 ) ;
#757 = EDGE_CURVE ( 'NONE', #346, #23, #465, .T. ) ;
#758 = CARTESIAN_POINT ( 'NONE',  ( 0.000000000000000000, 0.000000000000000000, 5.000000000000000000 ) ) ;
#759 = DIRECTION ( 'NONE',  ( -1.000000000000000000, -3.252606517456513302E-16, 0.000000000000000000 ) ) ;
#760 = EDGE_CURVE ( 'NONE', #605, #33, #119, .T. ) ;
#761 = DIRECTION ( 'NONE',  ( -1.000000000000000000, 0.000000000000000000, 0.000000000000000000 ) ) ;
#762 = LINE ( 'NONE', #529, #225 ) ;
#763 = ADVANCED_FACE ( 'NONE', ( #380 ), #233, .F. ) ;
#764 = ORIENTED_EDGE ( 'NONE', *, *, #543, .T. ) ;
#765 = CARTESIAN_POINT ( 'NONE',  ( 0.000000000000000000, 0.000000000000000000, 0.000000000000000000 ) ) ;
#766 = ORIENTED_EDGE ( 'NONE', *, *, #757, .T. ) ;
#767 = PLANE ( 'NONE',  #84 ) ;
#768 = DIRECTION ( 'NONE',  ( -0.000000000000000000, -0.000000000000000000, -1.000000000000000000 ) ) ;
#769 = AXIS2_PLACEMENT_3D ( 'NONE', #808, #604, #610 ) ;
#770 =( NAMED_UNIT ( * ) SI_UNIT ( $, .STERADIAN. ) SOLID_ANGLE_UNIT ( ) );
#771 = PRODUCT_CONTEXT ( 'NONE', #561, 'mechanical' ) ;
#772 = CIRCLE ( 'NONE', #525, 1.599999999999998979 ) ;
#773 = EDGE_CURVE ( 'NONE', #516, #346, #578, .T. ) ;
#774 = CARTESIAN_POINT ( 'NONE',  ( -4.999999999999948486, 60.00000000000000000, 0.000000000000000000 ) ) ;
#775 = LINE ( 'NONE', #500, #7 ) ;
#776 = ORIENTED_EDGE ( 'NONE', *, *, #649, .T. ) ;
#777 = AXIS2_PLACEMENT_3D ( 'NONE', #72, #458, #450 ) ;
#778 = ORIENTED_EDGE ( 'NONE', *, *, #90, .F. ) ;
#779 = CYLINDRICAL_SURFACE ( 'NONE', #796, 1.599999999999998979 ) ;
#780 = EDGE_LOOP ( 'NONE', ( #218, #219 ) ) ;
#781 = EDGE_CURVE ( 'NONE', #32, #398, #696, .T. ) ;
#782 = DIRECTION ( 'NONE',  ( -0.000000000000000000, -0.000000000000000000, -1.000000000000000000 ) ) ;
#783 = VECTOR ( 'NONE', #710, 1000.000000000000000 ) ;
#784 = CARTESIAN_POINT ( 'NONE',  ( 7.999999999999956479, 112.0000000000000000, 5.000000000000000000 ) ) ;
#785 = ORIENTED_EDGE ( 'NONE', *, *, #543, .F. ) ;
#786 = AXIS2_PLACEMENT_3D ( 'NONE', #429, #45, #567 ) ;
#787 = CARTESIAN_POINT ( 'NONE',  ( 0.000000000000000000, 0.000000000000000000, 0.000000000000000000 ) ) ;
#788 = VERTEX_POINT ( 'NONE', #831 ) ;
#789 = CARTESIAN_POINT ( 'NONE',  ( 11.49949493661160993, -9.899494936611718643, 5.000000000000000000 ) ) ;
#790 = DIRECTION ( 'NONE',  ( -1.000000000000000000, 0.000000000000000000, 0.000000000000000000 ) ) ;
#791 = AXIS2_PLACEMENT_3D ( 'NONE', #205, #86, #533 ) ;
#792 = FACE_BOUND ( 'NONE', #357, .T. ) ;
#793 = CIRCLE ( 'NONE', #255, 6.000000000000001776 ) ;
#794 = VERTEX_POINT ( 'NONE', #301 ) ;
#795 = ORIENTED_EDGE ( 'NONE', *, *, #20, .F. ) ;
#796 = AXIS2_PLACEMENT_3D ( 'NONE', #65, #123, #581 ) ;
#797 = CARTESIAN_POINT ( 'NONE',  ( 0.000000000000000000, 0.000000000000000000, 0.000000000000000000 ) ) ;
#798 = ADVANCED_FACE ( 'NONE', ( #209 ), #540, .T. ) ;
#799 = EDGE_CURVE ( 'NONE', #294, #794, #753, .T. ) ;
#800 = CARTESIAN_POINT ( 'NONE',  ( -9.899494936611604956, -9.899494936611725748, 0.000000000000000000 ) ) ;
#801 = ADVANCED_FACE ( 'NONE', ( #740 ), #767, .T. ) ;
#802 = CIRCLE ( 'NONE', #204, 1.599999999999999423 ) ;
#803 = PLANE ( 'NONE',  #385 ) ;
#804 = ORIENTED_EDGE ( 'NONE', *, *, #451, .T. ) ;
#805 = EDGE_CURVE ( 'NONE', #651, #538, #813, .T. ) ;
#806 = LINE ( 'NONE', #135, #825 ) ;
#807 = LINE ( 'NONE', #574, #635 ) ;
#808 = CARTESIAN_POINT ( 'NONE',  ( -4.999999999999968026, 108.0000000000000000, 0.000000000000000000 ) ) ;
#809 = DIRECTION ( 'NONE',  ( 1.000000000000000000, 0.000000000000000000, 0.000000000000000000 ) ) ;
#810 = DIRECTION ( 'NONE',  ( -0.000000000000000000, -0.000000000000000000, -1.000000000000000000 ) ) ;
#811 = AXIS2_PLACEMENT_3D ( 'NONE', #693, #156, #554 ) ;
#812 = CARTESIAN_POINT ( 'NONE',  ( -9.899494936611604956, -9.899494936611725748, 5.000000000000000000 ) ) ;
#813 = LINE ( 'NONE', #842, #389 ) ;
#814 = VECTOR ( 'NONE', #193, 1000.000000000000000 ) ;
#815 = ORIENTED_EDGE ( 'NONE', *, *, #22, .T. ) ;
#816 = DIRECTION ( 'NONE',  ( -5.601711224508438918E-16, 1.000000000000000000, -0.000000000000000000 ) ) ;
#817 = FACE_BOUND ( 'NONE', #668, .T. ) ;
#818 = ORIENTED_EDGE ( 'NONE', *, *, #189, .T. ) ;
#819 = EDGE_CURVE ( 'NONE', #605, #788, #515, .T. ) ;
#820 = VERTEX_POINT ( 'NONE', #117 ) ;
#821 = AXIS2_PLACEMENT_3D ( 'NONE', #552, #292, #155 ) ;
#822 = CARTESIAN_POINT ( 'NONE',  ( -7.999999999999968914, 110.0000000000000000, 0.000000000000000000 ) ) ;
#823 = EDGE_CURVE ( 'NONE', #538, #569, #461, .T. ) ;
#824 = ORIENTED_EDGE ( 'NONE', *, *, #146, .T. ) ;
#825 = VECTOR ( 'NONE', #537, 1000.000000000000000 ) ;
#826 = APPLICATION_CONTEXT ( 'automotive_design' ) ;
#827 = ADVANCED_FACE ( 'NONE', ( #329 ), #644, .F. ) ;
#828 = DIRECTION ( 'NONE',  ( -0.000000000000000000, -0.000000000000000000, -1.000000000000000000 ) ) ;
#829 = ORIENTED_EDGE ( 'NONE', *, *, #611, .T. ) ;
#830 = PRESENTATION_LAYER_ASSIGNMENT (  '', '', ( #364 ) ) ;
#831 = CARTESIAN_POINT ( 'NONE',  ( 9.999999999999971578, 109.9999999999999858, 0.000000000000000000 ) ) ;
#832 = CARTESIAN_POINT ( 'NONE',  ( 11.49949493661160993, -9.899494936611718643, 0.000000000000000000 ) ) ;
#833 = LINE ( 'NONE', #437, #335 ) ;
#834 = AXIS2_PLACEMENT_3D ( 'NONE', #186, #1, #448 ) ;
#835 =( LENGTH_UNIT ( ) NAMED_UNIT ( * ) SI_UNIT ( .MILLI., .METRE. ) );
#836 = CARTESIAN_POINT ( 'NONE',  ( 5.000000000000026645, 60.00000000000000000, 5.000000000000000000 ) ) ;
#837 = LINE ( 'NONE', #749, #138 ) ;
#838 = ORIENTED_EDGE ( 'NONE', *, *, #360, .T. ) ;
#839 = EDGE_LOOP ( 'NONE', ( #502, #685, #142, #542 ) ) ;
#840 = DIRECTION ( 'NONE',  ( -3.252606517456513302E-16, 1.000000000000000000, -0.000000000000000000 ) ) ;
#841 = ORIENTED_EDGE ( 'NONE', *, *, #317, .T. ) ;
#842 = CARTESIAN_POINT ( 'NONE',  ( -3.399999999999956835, 60.00000000000000000, 5.000000000000000000 ) ) ;
ENDSEC;
END-ISO-10303-21;
