ISO-10303-21;
HEADER;
FILE_DESCRIPTION (( 'STEP AP214' ),
    '1' );
FILE_NAME ('»¬¹ì¹Ì¶¨°å.STEP',
    '2026-07-29T04:04:58',
    ( 'HXX' ),
    ( '' ),
    'SwSTEP 2.0',
    'SolidWorks 2018',
    '' );
FILE_SCHEMA (( 'AUTOMOTIVE_DESIGN' ));
ENDSEC;

DATA;
#1 = CIRCLE ( 'NONE', #305, 1.600000000000000977 ) ;
#2 = EDGE_LOOP ( 'NONE', ( #267, #207, #128, #310 ) ) ;
#3 = AXIS2_PLACEMENT_3D ( 'NONE', #196, #95, #61 ) ;
#4 = CARTESIAN_POINT ( 'NONE',  ( 4.999999999999948486, 2.000000000000000000, 0.000000000000000000 ) ) ;
#5 = DIRECTION ( 'NONE',  ( 1.000000000000000000, -0.000000000000000000, -0.000000000000000000 ) ) ;
#6 = ORIENTED_EDGE ( 'NONE', *, *, #105, .T. ) ;
#7 = DIRECTION ( 'NONE',  ( -0.000000000000000000, -1.000000000000000000, -0.000000000000000000 ) ) ;
#8 = CARTESIAN_POINT ( 'NONE',  ( 9.000000000000031974, 2.000000000000000000, -8.000000000000001776 ) ) ;
#9 = CARTESIAN_POINT ( 'NONE',  ( 4.999999999999948486, 2.000000000000000000, 0.000000000000000000 ) ) ;
#10 = PRESENTATION_STYLE_ASSIGNMENT (( #184 ) ) ;
#11 = FACE_OUTER_BOUND ( 'NONE', #178, .T. ) ;
#12 = EDGE_LOOP ( 'NONE', ( #127, #198, #18, #274 ) ) ;
#13 = CARTESIAN_POINT ( 'NONE',  ( -4.999999999999948486, 2.000000000000000000, 1.600000000000000977 ) ) ;
#14 = CARTESIAN_POINT ( 'NONE',  ( 0.000000000000000000, 2.000000000000000000, 0.000000000000000000 ) ) ;
#15 = DIRECTION ( 'NONE',  ( 0.000000000000000000, 1.000000000000000000, -0.000000000000000000 ) ) ;
#16 = EDGE_CURVE ( 'NONE', #278, #220, #303, .T. ) ;
#17 = VECTOR ( 'NONE', #200, 1000.000000000000000 ) ;
#18 = ORIENTED_EDGE ( 'NONE', *, *, #168, .T. ) ;
#19 = ORIENTED_EDGE ( 'NONE', *, *, #334, .F. ) ;
#20 = EDGE_CURVE ( 'NONE', #290, #22, #54, .T. ) ;
#21 = FACE_BOUND ( 'NONE', #86, .T. ) ;
#22 = VERTEX_POINT ( 'NONE', #163 ) ;
#23 = ORIENTED_EDGE ( 'NONE', *, *, #210, .T. ) ;
#24 = PRODUCT_DEFINITION_CONTEXT ( 'detailed design', #317, 'design' ) ;
#25 = CIRCLE ( 'NONE', #51, 1.600000000000000977 ) ;
#26 = VERTEX_POINT ( 'NONE', #114 ) ;
#27 = CARTESIAN_POINT ( 'NONE',  ( 8.999999999999969802, 2.000000000000000000, 4.000000000000000888 ) ) ;
#28 = VECTOR ( 'NONE', #7, 1000.000000000000000 ) ;
#29 = ORIENTED_EDGE ( 'NONE', *, *, #350, .T. ) ;
#30 = ADVANCED_FACE ( 'NONE', ( #227 ), #349, .F. ) ;
#31 = DIRECTION ( 'NONE',  ( 0.000000000000000000, 0.000000000000000000, -1.000000000000000000 ) ) ;
#32 = PRODUCT_DEFINITION_FORMATION_WITH_SPECIFIED_SOURCE ( 'ÈÎºÎ', '', #240, .NOT_KNOWN. ) ;
#33 = DIRECTION ( 'NONE',  ( -0.000000000000000000, -1.000000000000000000, -0.000000000000000000 ) ) ;
#34 = LINE ( 'NONE', #176, #206 ) ;
#35 = UNCERTAINTY_MEASURE_WITH_UNIT (LENGTH_MEASURE( 1.000000000000000082E-05 ), #46, 'distance_accuracy_value', 'NONE');
#36 = VERTEX_POINT ( 'NONE', #219 ) ;
#37 = AXIS2_PLACEMENT_3D ( 'NONE', #307, #223, #89 ) ;
#38 = CARTESIAN_POINT ( 'NONE',  ( -8.999999999999969802, 0.000000000000000000, 4.000000000000000888 ) ) ;
#39 = CARTESIAN_POINT ( 'NONE',  ( 4.999999999999948486, 0.000000000000000000, 0.000000000000000000 ) ) ;
#40 = CARTESIAN_POINT ( 'NONE',  ( -4.999999999999948486, 2.000000000000000000, 1.600000000000000977 ) ) ;
#41 = AXIS2_PLACEMENT_3D ( 'NONE', #222, #92, #281 ) ;
#42 = VECTOR ( 'NONE', #229, 1000.000000000000000 ) ;
#43 = DIRECTION ( 'NONE',  ( 0.000000000000000000, 0.000000000000000000, -1.000000000000000000 ) ) ;
#44 = AXIS2_PLACEMENT_3D ( 'NONE', #14, #101, #204 ) ;
#45 = EDGE_LOOP ( 'NONE', ( #118, #59 ) ) ;
#46 =( LENGTH_UNIT ( ) NAMED_UNIT ( * ) SI_UNIT ( .MILLI., .METRE. ) );
#47 = ADVANCED_FACE ( 'NONE', ( #11 ), #201, .F. ) ;
#48 = FACE_OUTER_BOUND ( 'NONE', #285, .T. ) ;
#49 = ORIENTED_EDGE ( 'NONE', *, *, #173, .T. ) ;
#50 = EDGE_LOOP ( 'NONE', ( #133, #299, #161, #103 ) ) ;
#51 = AXIS2_PLACEMENT_3D ( 'NONE', #124, #309, #306 ) ;
#52 = ADVANCED_FACE ( 'NONE', ( #136 ), #85, .F. ) ;
#53 = VECTOR ( 'NONE', #234, 1000.000000000000000 ) ;
#54 = LINE ( 'NONE', #140, #126 ) ;
#55 = ORIENTED_EDGE ( 'NONE', *, *, #268, .F. ) ;
#56 = AXIS2_PLACEMENT_3D ( 'NONE', #4, #111, #31 ) ;
#57 = MECHANICAL_DESIGN_GEOMETRIC_PRESENTATION_REPRESENTATION (  '', ( #72 ), #81 ) ;
#58 = LINE ( 'NONE', #119, #339 ) ;
#59 = ORIENTED_EDGE ( 'NONE', *, *, #214, .T. ) ;
#60 = DIRECTION ( 'NONE',  ( -1.000000000000000000, 0.000000000000000000, -5.204170427930419706E-15 ) ) ;
#61 = DIRECTION ( 'NONE',  ( 0.000000000000000000, 0.000000000000000000, -1.000000000000000000 ) ) ;
#62 = VECTOR ( 'NONE', #147, 1000.000000000000000 ) ;
#63 = ORIENTED_EDGE ( 'NONE', *, *, #268, .T. ) ;
#64 = PRESENTATION_LAYER_ASSIGNMENT (  '', '', ( #72 ) ) ;
#65 = ORIENTED_EDGE ( 'NONE', *, *, #110, .T. ) ;
#66 = DIRECTION ( 'NONE',  ( 0.000000000000000000, 1.000000000000000000, 0.000000000000000000 ) ) ;
#67 = DIRECTION ( 'NONE',  ( -0.000000000000000000, -1.000000000000000000, -0.000000000000000000 ) ) ;
#68 = FILL_AREA_STYLE ('',( #287 ) ) ;
#69 = CARTESIAN_POINT ( 'NONE',  ( 4.999999999999948486, 2.000000000000000000, 1.600000000000000977 ) ) ;
#70 = CIRCLE ( 'NONE', #41, 1.600000000000000977 ) ;
#71 = DIRECTION ( 'NONE',  ( 9.637352644315594010E-17, -0.000000000000000000, 1.000000000000000000 ) ) ;
#72 = STYLED_ITEM ( 'NONE', ( #102 ), #312 ) ;
#73 = VERTEX_POINT ( 'NONE', #142 ) ;
#74 = ORIENTED_EDGE ( 'NONE', *, *, #137, .F. ) ;
#75 = CARTESIAN_POINT ( 'NONE',  ( 8.999999999999969802, 0.000000000000000000, 4.000000000000000888 ) ) ;
#76 = DIRECTION ( 'NONE',  ( -0.000000000000000000, -1.000000000000000000, -0.000000000000000000 ) ) ;
#77 =( NAMED_UNIT ( * ) SI_UNIT ( $, .STERADIAN. ) SOLID_ANGLE_UNIT ( ) );
#78 = AXIS2_PLACEMENT_3D ( 'NONE', #170, #33, #143 ) ;
#79 = FACE_BOUND ( 'NONE', #45, .T. ) ;
#80 = ORIENTED_EDGE ( 'NONE', *, *, #210, .F. ) ;
#81 =( GEOMETRIC_REPRESENTATION_CONTEXT ( 3 ) GLOBAL_UNCERTAINTY_ASSIGNED_CONTEXT ( ( #247 ) ) GLOBAL_UNIT_ASSIGNED_CONTEXT ( ( #235, #129, #77 ) ) REPRESENTATION_CONTEXT ( 'NONE', 'WORKASPACE' ) );
#82 = LINE ( 'NONE', #75, #53 ) ;
#83 = CIRCLE ( 'NONE', #238, 1.600000000000000977 ) ;
#84 = AXIS2_PLACEMENT_3D ( 'NONE', #275, #300, #87 ) ;
#85 = CYLINDRICAL_SURFACE ( 'NONE', #293, 1.600000000000000977 ) ;
#86 = EDGE_LOOP ( 'NONE', ( #106, #202 ) ) ;
#87 = DIRECTION ( 'NONE',  ( -1.000000000000000000, 0.000000000000000000, -0.000000000000000000 ) ) ;
#88 = ADVANCED_FACE ( 'NONE', ( #295 ), #199, .F. ) ;
#89 = DIRECTION ( 'NONE',  ( 0.000000000000000000, 0.000000000000000000, -1.000000000000000000 ) ) ;
#90 = CARTESIAN_POINT ( 'NONE',  ( 8.999999999999969802, 2.000000000000000000, 4.000000000000000888 ) ) ;
#91 = CIRCLE ( 'NONE', #151, 1.600000000000000977 ) ;
#92 = DIRECTION ( 'NONE',  ( 0.000000000000000000, 1.000000000000000000, -0.000000000000000000 ) ) ;
#93 = ORIENTED_EDGE ( 'NONE', *, *, #301, .F. ) ;
#94 = VERTEX_POINT ( 'NONE', #27 ) ;
#95 = DIRECTION ( 'NONE',  ( 1.000000000000000000, -0.000000000000000000, 0.000000000000000000 ) ) ;
#96 = DIRECTION ( 'NONE',  ( 0.000000000000000000, 0.000000000000000000, 1.000000000000000000 ) ) ;
#97 = CARTESIAN_POINT ( 'NONE',  ( -4.999999999999948486, 2.000000000000000000, -1.600000000000000977 ) ) ;
#98 = ORIENTED_EDGE ( 'NONE', *, *, #326, .T. ) ;
#99 = PRESENTATION_LAYER_ASSIGNMENT (  '', '', ( #171 ) ) ;
#100 = CARTESIAN_POINT ( 'NONE',  ( 8.999999999999969802, 2.000000000000000000, 4.000000000000000888 ) ) ;
#101 = DIRECTION ( 'NONE',  ( 0.000000000000000000, -1.000000000000000000, 0.000000000000000000 ) ) ;
#102 = PRESENTATION_STYLE_ASSIGNMENT (( #291 ) ) ;
#103 = ORIENTED_EDGE ( 'NONE', *, *, #243, .F. ) ;
#104 =( NAMED_UNIT ( * ) SI_UNIT ( $, .STERADIAN. ) SOLID_ANGLE_UNIT ( ) );
#105 = EDGE_CURVE ( 'NONE', #164, #149, #145, .T. ) ;
#106 = ORIENTED_EDGE ( 'NONE', *, *, #130, .F. ) ;
#107 = PRODUCT_CONTEXT ( 'NONE', #132, 'mechanical' ) ;
#108 = ADVANCED_FACE ( 'NONE', ( #48 ), #191, .F. ) ;
#109 = ORIENTED_EDGE ( 'NONE', *, *, #350, .F. ) ;
#110 = EDGE_CURVE ( 'NONE', #213, #277, #346, .T. ) ;
#111 = DIRECTION ( 'NONE',  ( -0.000000000000000000, -1.000000000000000000, -0.000000000000000000 ) ) ;
#112 = FACE_OUTER_BOUND ( 'NONE', #216, .T. ) ;
#113 = VERTEX_POINT ( 'NONE', #225 ) ;
#114 = CARTESIAN_POINT ( 'NONE',  ( 4.999999999999948486, 0.000000000000000000, 1.600000000000000977 ) ) ;
#115 = ADVANCED_FACE ( 'NONE', ( #155 ), #146, .F. ) ;
#116 = DIRECTION ( 'NONE',  ( -0.000000000000000000, -1.000000000000000000, -0.000000000000000000 ) ) ;
#117 = AXIS2_PLACEMENT_3D ( 'NONE', #180, #233, #209 ) ;
#118 = ORIENTED_EDGE ( 'NONE', *, *, #314, .T. ) ;
#119 = CARTESIAN_POINT ( 'NONE',  ( -8.999999999999969802, 0.000000000000000000, -8.000000000000000000 ) ) ;
#120 = CARTESIAN_POINT ( 'NONE',  ( 4.999999999999948486, 0.000000000000000000, -1.600000000000000977 ) ) ;
#121 = AXIS2_PLACEMENT_3D ( 'NONE', #182, #236, #269 ) ;
#122 = LINE ( 'NONE', #340, #17 ) ;
#123 = VECTOR ( 'NONE', #254, 1000.000000000000000 ) ;
#124 = CARTESIAN_POINT ( 'NONE',  ( -4.999999999999948486, 0.000000000000000000, 0.000000000000000000 ) ) ;
#125 = DIRECTION ( 'NONE',  ( 0.000000000000000000, -0.000000000000000000, -1.000000000000000000 ) ) ;
#126 = VECTOR ( 'NONE', #321, 1000.000000000000000 ) ;
#127 = ORIENTED_EDGE ( 'NONE', *, *, #221, .T. ) ;
#128 = ORIENTED_EDGE ( 'NONE', *, *, #20, .F. ) ;
#129 =( NAMED_UNIT ( * ) PLANE_ANGLE_UNIT ( ) SI_UNIT ( $, .RADIAN. ) );
#130 = EDGE_CURVE ( 'NONE', #220, #278, #1, .T. ) ;
#131 = CARTESIAN_POINT ( 'NONE',  ( 4.999999999999948486, 2.000000000000000000, -1.600000000000000977 ) ) ;
#132 = APPLICATION_CONTEXT ( 'automotive_design' ) ;
#133 = ORIENTED_EDGE ( 'NONE', *, *, #130, .T. ) ;
#134 = ORIENTED_EDGE ( 'NONE', *, *, #194, .T. ) ;
#135 = FILL_AREA_STYLE_COLOUR ( '', #195 ) ;
#136 = FACE_OUTER_BOUND ( 'NONE', #50, .T. ) ;
#137 = EDGE_CURVE ( 'NONE', #94, #164, #331, .T. ) ;
#138 = APPLICATION_PROTOCOL_DEFINITION ( 'draft international standard', 'automotive_design', 1998, #132 ) ;
#139 = ORIENTED_EDGE ( 'NONE', *, *, #105, .F. ) ;
#140 = CARTESIAN_POINT ( 'NONE',  ( -8.999999999999969802, 2.000000000000000000, -8.000000000000000000 ) ) ;
#141 = VECTOR ( 'NONE', #327, 1000.000000000000000 ) ;
#142 = CARTESIAN_POINT ( 'NONE',  ( 4.999999999999948486, 2.000000000000000000, -1.600000000000000977 ) ) ;
#143 = DIRECTION ( 'NONE',  ( 0.000000000000000000, 0.000000000000000000, -1.000000000000000000 ) ) ;
#144 = CARTESIAN_POINT ( 'NONE',  ( 8.999999999999969802, 2.000000000000000000, 4.000000000000000888 ) ) ;
#145 = LINE ( 'NONE', #167, #123 ) ;
#146 = PLANE ( 'NONE',  #262 ) ;
#147 = DIRECTION ( 'NONE',  ( -0.000000000000000000, -1.000000000000000000, -0.000000000000000000 ) ) ;
#148 = SURFACE_SIDE_STYLE ('',( #272 ) ) ;
#149 = VERTEX_POINT ( 'NONE', #248 ) ;
#150 = ADVANCED_BREP_SHAPE_REPRESENTATION ( '»¬¹ì¹Ì¶¨°å', ( #312, #121 ), #166 ) ;
#151 = AXIS2_PLACEMENT_3D ( 'NONE', #152, #15, #43 ) ;
#152 = CARTESIAN_POINT ( 'NONE',  ( 4.999999999999948486, 2.000000000000000000, 0.000000000000000000 ) ) ;
#153 =( LENGTH_UNIT ( ) NAMED_UNIT ( * ) SI_UNIT ( .MILLI., .METRE. ) );
#154 = EDGE_LOOP ( 'NONE', ( #80, #98, #29, #244 ) ) ;
#155 = FACE_OUTER_BOUND ( 'NONE', #316, .T. ) ;
#156 = ORIENTED_EDGE ( 'NONE', *, *, #189, .F. ) ;
#157 = LINE ( 'NONE', #13, #282 ) ;
#158 = VERTEX_POINT ( 'NONE', #120 ) ;
#159 =( NAMED_UNIT ( * ) PLANE_ANGLE_UNIT ( ) SI_UNIT ( $, .RADIAN. ) );
#160 = AXIS2_PLACEMENT_3D ( 'NONE', #9, #260, #255 ) ;
#161 = ORIENTED_EDGE ( 'NONE', *, *, #314, .F. ) ;
#162 = PRODUCT_DEFINITION_SHAPE ( 'NONE', 'NONE',  #328 ) ;
#163 = CARTESIAN_POINT ( 'NONE',  ( -8.999999999999969802, 2.000000000000000000, -8.000000000000000000 ) ) ;
#164 = VERTEX_POINT ( 'NONE', #280 ) ;
#165 = EDGE_LOOP ( 'NONE', ( #65, #55, #318, #347 ) ) ;
#166 =( GEOMETRIC_REPRESENTATION_CONTEXT ( 3 ) GLOBAL_UNCERTAINTY_ASSIGNED_CONTEXT ( ( #337 ) ) GLOBAL_UNIT_ASSIGNED_CONTEXT ( ( #153, #342, #104 ) ) REPRESENTATION_CONTEXT ( 'NONE', 'WORKASPACE' ) );
#167 = CARTESIAN_POINT ( 'NONE',  ( 8.999999999999969802, 0.000000000000000000, 4.000000000000000888 ) ) ;
#168 = EDGE_CURVE ( 'NONE', #22, #36, #212, .T. ) ;
#169 = LINE ( 'NONE', #8, #345 ) ;
#170 = CARTESIAN_POINT ( 'NONE',  ( -4.999999999999948486, 2.000000000000000000, 0.000000000000000000 ) ) ;
#171 = STYLED_ITEM ( 'NONE', ( #10 ), #150 ) ;
#172 = DIRECTION ( 'NONE',  ( -5.204170427930419706E-15, 0.000000000000000000, 1.000000000000000000 ) ) ;
#173 = EDGE_CURVE ( 'NONE', #26, #158, #289, .T. ) ;
#174 = CARTESIAN_POINT ( 'NONE',  ( -8.999999999999969802, 0.000000000000000000, 4.000000000000000888 ) ) ;
#175 = CARTESIAN_POINT ( 'NONE',  ( -8.999999999999969802, 0.000000000000000000, -8.000000000000000000 ) ) ;
#176 = CARTESIAN_POINT ( 'NONE',  ( -4.999999999999948486, 2.000000000000000000, -1.600000000000000977 ) ) ;
#177 = FACE_BOUND ( 'NONE', #183, .T. ) ;
#178 = EDGE_LOOP ( 'NONE', ( #203, #23, #256, #109 ) ) ;
#179 = ORIENTED_EDGE ( 'NONE', *, *, #326, .F. ) ;
#180 = CARTESIAN_POINT ( 'NONE',  ( -4.999999999999948486, 0.000000000000000000, 0.000000000000000000 ) ) ;
#181 = EDGE_CURVE ( 'NONE', #73, #113, #70, .T. ) ;
#182 = CARTESIAN_POINT ( 'NONE',  ( 0.000000000000000000, 0.000000000000000000, 0.000000000000000000 ) ) ;
#183 = EDGE_LOOP ( 'NONE', ( #134, #49 ) ) ;
#184 = SURFACE_STYLE_USAGE ( .BOTH. , #187 ) ;
#185 = EDGE_CURVE ( 'NONE', #149, #213, #58, .T. ) ;
#186 = VECTOR ( 'NONE', #5, 1000.000000000000000 ) ;
#187 = SURFACE_SIDE_STYLE ('',( #322 ) ) ;
#188 = FACE_OUTER_BOUND ( 'NONE', #2, .T. ) ;
#189 = EDGE_CURVE ( 'NONE', #36, #94, #259, .T. ) ;
#190 = DIRECTION ( 'NONE',  ( 0.000000000000000000, 1.000000000000000000, 0.000000000000000000 ) ) ;
#191 = CYLINDRICAL_SURFACE ( 'NONE', #78, 1.600000000000000977 ) ;
#192 = ORIENTED_EDGE ( 'NONE', *, *, #221, .F. ) ;
#193 = CARTESIAN_POINT ( 'NONE',  ( 8.999999999999969802, 2.000000000000000000, 4.000000000000000888 ) ) ;
#194 = EDGE_CURVE ( 'NONE', #158, #26, #83, .T. ) ;
#195 = COLOUR_RGB ( '',1.000000000000000000, 1.000000000000000000, 1.000000000000000000 ) ;
#196 = CARTESIAN_POINT ( 'NONE',  ( -8.999999999999969802, 2.000000000000000000, 4.000000000000000888 ) ) ;
#197 = LINE ( 'NONE', #69, #62 ) ;
#198 = ORIENTED_EDGE ( 'NONE', *, *, #20, .T. ) ;
#199 = PLANE ( 'NONE',  #3 ) ;
#200 = DIRECTION ( 'NONE',  ( -0.000000000000000000, -1.000000000000000000, -0.000000000000000000 ) ) ;
#201 = CYLINDRICAL_SURFACE ( 'NONE', #56, 1.600000000000000977 ) ;
#202 = ORIENTED_EDGE ( 'NONE', *, *, #16, .F. ) ;
#203 = ORIENTED_EDGE ( 'NONE', *, *, #181, .T. ) ;
#204 = DIRECTION ( 'NONE',  ( 0.000000000000000000, -0.000000000000000000, -1.000000000000000000 ) ) ;
#205 = PRODUCT_RELATED_PRODUCT_CATEGORY ( 'part', '', ( #240 ) ) ;
#206 = VECTOR ( 'NONE', #329, 1000.000000000000000 ) ;
#207 = ORIENTED_EDGE ( 'NONE', *, *, #253, .F. ) ;
#208 = ORIENTED_EDGE ( 'NONE', *, *, #16, .T. ) ;
#209 = DIRECTION ( 'NONE',  ( 0.000000000000000000, 0.000000000000000000, 1.000000000000000000 ) ) ;
#210 = EDGE_CURVE ( 'NONE', #113, #26, #197, .T. ) ;
#211 = FILL_AREA_STYLE ('',( #135 ) ) ;
#212 = LINE ( 'NONE', #286, #141 ) ;
#213 = VERTEX_POINT ( 'NONE', #175 ) ;
#214 = EDGE_CURVE ( 'NONE', #325, #319, #25, .T. ) ;
#215 = FACE_OUTER_BOUND ( 'NONE', #12, .T. ) ;
#216 = EDGE_LOOP ( 'NONE', ( #139, #19, #232, #266 ) ) ;
#217 = EDGE_LOOP ( 'NONE', ( #273, #179 ) ) ;
#218 = ADVANCED_FACE ( 'NONE', ( #79, #112, #177 ), #288, .T. ) ;
#219 = CARTESIAN_POINT ( 'NONE',  ( -8.999999999999969802, 2.000000000000000000, 4.000000000000000888 ) ) ;
#220 = VERTEX_POINT ( 'NONE', #97 ) ;
#221 = EDGE_CURVE ( 'NONE', #94, #290, #231, .T. ) ;
#222 = CARTESIAN_POINT ( 'NONE',  ( 4.999999999999948486, 2.000000000000000000, 0.000000000000000000 ) ) ;
#223 = DIRECTION ( 'NONE',  ( 0.000000000000000000, 1.000000000000000000, -0.000000000000000000 ) ) ;
#224 = EDGE_CURVE ( 'NONE', #278, #325, #157, .T. ) ;
#225 = CARTESIAN_POINT ( 'NONE',  ( 4.999999999999948486, 2.000000000000000000, 1.600000000000000977 ) ) ;
#226 = CARTESIAN_POINT ( 'NONE',  ( 9.000000000000031974, 2.000000000000000000, -8.000000000000001776 ) ) ;
#227 = FACE_OUTER_BOUND ( 'NONE', #261, .T. ) ;
#228 = DIRECTION ( 'NONE',  ( -0.000000000000000000, -1.000000000000000000, -0.000000000000000000 ) ) ;
#229 = DIRECTION ( 'NONE',  ( 5.204170427930419706E-15, 0.000000000000000000, -1.000000000000000000 ) ) ;
#230 = CARTESIAN_POINT ( 'NONE',  ( -8.999999999999969802, 2.000000000000000000, -8.000000000000000000 ) ) ;
#231 = LINE ( 'NONE', #100, #42 ) ;
#232 = ORIENTED_EDGE ( 'NONE', *, *, #110, .F. ) ;
#233 = DIRECTION ( 'NONE',  ( 0.000000000000000000, 1.000000000000000000, 0.000000000000000000 ) ) ;
#234 = DIRECTION ( 'NONE',  ( 1.000000000000000000, -0.000000000000000000, -0.000000000000000000 ) ) ;
#235 =( LENGTH_UNIT ( ) NAMED_UNIT ( * ) SI_UNIT ( .MILLI., .METRE. ) );
#236 = DIRECTION ( 'NONE',  ( 0.000000000000000000, 0.000000000000000000, 1.000000000000000000 ) ) ;
#237 =( GEOMETRIC_REPRESENTATION_CONTEXT ( 3 ) GLOBAL_UNCERTAINTY_ASSIGNED_CONTEXT ( ( #35 ) ) GLOBAL_UNIT_ASSIGNED_CONTEXT ( ( #46, #159, #344 ) ) REPRESENTATION_CONTEXT ( 'NONE', 'WORKASPACE' ) );
#238 = AXIS2_PLACEMENT_3D ( 'NONE', #39, #258, #335 ) ;
#239 = CIRCLE ( 'NONE', #117, 1.600000000000000977 ) ;
#240 = PRODUCT ( '»¬¹ì¹Ì¶¨°å', '»¬¹ì¹Ì¶¨°å', '', ( #107 ) ) ;
#241 = CARTESIAN_POINT ( 'NONE',  ( -4.999999999999948486, 2.000000000000000000, 0.000000000000000000 ) ) ;
#242 = ADVANCED_FACE ( 'NONE', ( #215, #21, #292 ), #333, .F. ) ;
#243 = EDGE_CURVE ( 'NONE', #220, #319, #34, .T. ) ;
#244 = ORIENTED_EDGE ( 'NONE', *, *, #173, .F. ) ;
#245 = CARTESIAN_POINT ( 'NONE',  ( -4.999999999999948486, 2.000000000000000000, 0.000000000000000000 ) ) ;
#246 = ADVANCED_FACE ( 'NONE', ( #298 ), #249, .F. ) ;
#247 = UNCERTAINTY_MEASURE_WITH_UNIT (LENGTH_MEASURE( 1.000000000000000082E-05 ), #235, 'distance_accuracy_value', 'NONE');
#248 = CARTESIAN_POINT ( 'NONE',  ( 9.000000000000031974, 0.000000000000000000, -8.000000000000001776 ) ) ;
#249 = CYLINDRICAL_SURFACE ( 'NONE', #160, 1.600000000000000977 ) ;
#250 = DIRECTION ( 'NONE',  ( -0.000000000000000000, -1.000000000000000000, -0.000000000000000000 ) ) ;
#251 = MECHANICAL_DESIGN_GEOMETRIC_PRESENTATION_REPRESENTATION (  '', ( #171 ), #237 ) ;
#252 = ORIENTED_EDGE ( 'NONE', *, *, #224, .F. ) ;
#253 = EDGE_CURVE ( 'NONE', #22, #213, #265, .T. ) ;
#254 = DIRECTION ( 'NONE',  ( 5.204170427930419706E-15, 0.000000000000000000, -1.000000000000000000 ) ) ;
#255 = DIRECTION ( 'NONE',  ( 0.000000000000000000, 0.000000000000000000, -1.000000000000000000 ) ) ;
#256 = ORIENTED_EDGE ( 'NONE', *, *, #194, .F. ) ;
#257 = CARTESIAN_POINT ( 'NONE',  ( 0.000000000000000000, 0.000000000000000000, 0.000000000000000000 ) ) ;
#258 = DIRECTION ( 'NONE',  ( 0.000000000000000000, 1.000000000000000000, -0.000000000000000000 ) ) ;
#259 = LINE ( 'NONE', #144, #186 ) ;
#260 = DIRECTION ( 'NONE',  ( -0.000000000000000000, -1.000000000000000000, -0.000000000000000000 ) ) ;
#261 = EDGE_LOOP ( 'NONE', ( #315, #74, #156, #63 ) ) ;
#262 = AXIS2_PLACEMENT_3D ( 'NONE', #90, #60, #172 ) ;
#263 = DIRECTION ( 'NONE',  ( 1.000000000000000000, 0.000000000000000000, -9.637352644315594010E-17 ) ) ;
#264 = CARTESIAN_POINT ( 'NONE',  ( -4.999999999999948486, 0.000000000000000000, -1.600000000000000977 ) ) ;
#265 = LINE ( 'NONE', #336, #28 ) ;
#266 = ORIENTED_EDGE ( 'NONE', *, *, #185, .F. ) ;
#267 = ORIENTED_EDGE ( 'NONE', *, *, #185, .T. ) ;
#268 = EDGE_CURVE ( 'NONE', #36, #277, #122, .T. ) ;
#269 = DIRECTION ( 'NONE',  ( 1.000000000000000000, 0.000000000000000000, 0.000000000000000000 ) ) ;
#270 = APPLICATION_PROTOCOL_DEFINITION ( 'draft international standard', 'automotive_design', 1998, #317 ) ;
#271 = AXIS2_PLACEMENT_3D ( 'NONE', #241, #190, #276 ) ;
#272 = SURFACE_STYLE_FILL_AREA ( #68 ) ;
#273 = ORIENTED_EDGE ( 'NONE', *, *, #181, .F. ) ;
#274 = ORIENTED_EDGE ( 'NONE', *, *, #189, .T. ) ;
#275 = CARTESIAN_POINT ( 'NONE',  ( 8.999999999999969802, 2.000000000000000000, 4.000000000000000888 ) ) ;
#276 = DIRECTION ( 'NONE',  ( 0.000000000000000000, 0.000000000000000000, 1.000000000000000000 ) ) ;
#277 = VERTEX_POINT ( 'NONE', #174 ) ;
#278 = VERTEX_POINT ( 'NONE', #40 ) ;
#279 = AXIS2_PLACEMENT_3D ( 'NONE', #257, #311, #125 ) ;
#280 = CARTESIAN_POINT ( 'NONE',  ( 8.999999999999969802, 0.000000000000000000, 4.000000000000000888 ) ) ;
#281 = DIRECTION ( 'NONE',  ( 0.000000000000000000, 0.000000000000000000, -1.000000000000000000 ) ) ;
#282 = VECTOR ( 'NONE', #67, 1000.000000000000000 ) ;
#283 = DIRECTION ( 'NONE',  ( -0.000000000000000000, -0.000000000000000000, 1.000000000000000000 ) ) ;
#284 = VECTOR ( 'NONE', #283, 1000.000000000000000 ) ;
#285 = EDGE_LOOP ( 'NONE', ( #252, #208, #296, #297 ) ) ;
#286 = CARTESIAN_POINT ( 'NONE',  ( -8.999999999999969802, 2.000000000000000000, 4.000000000000000888 ) ) ;
#287 = FILL_AREA_STYLE_COLOUR ( '', #308 ) ;
#288 = PLANE ( 'NONE',  #279 ) ;
#289 = CIRCLE ( 'NONE', #37, 1.600000000000000977 ) ;
#290 = VERTEX_POINT ( 'NONE', #226 ) ;
#291 = SURFACE_STYLE_USAGE ( .BOTH. , #148 ) ;
#292 = FACE_BOUND ( 'NONE', #217, .T. ) ;
#293 = AXIS2_PLACEMENT_3D ( 'NONE', #245, #116, #304 ) ;
#294 = ORIENTED_EDGE ( 'NONE', *, *, #137, .T. ) ;
#295 = FACE_OUTER_BOUND ( 'NONE', #165, .T. ) ;
#296 = ORIENTED_EDGE ( 'NONE', *, *, #243, .T. ) ;
#297 = ORIENTED_EDGE ( 'NONE', *, *, #214, .F. ) ;
#298 = FACE_OUTER_BOUND ( 'NONE', #154, .T. ) ;
#299 = ORIENTED_EDGE ( 'NONE', *, *, #224, .T. ) ;
#300 = DIRECTION ( 'NONE',  ( 0.000000000000000000, 0.000000000000000000, -1.000000000000000000 ) ) ;
#301 = EDGE_CURVE ( 'NONE', #290, #149, #169, .T. ) ;
#302 = VECTOR ( 'NONE', #76, 1000.000000000000000 ) ;
#303 = CIRCLE ( 'NONE', #271, 1.600000000000000977 ) ;
#304 = DIRECTION ( 'NONE',  ( 0.000000000000000000, 0.000000000000000000, -1.000000000000000000 ) ) ;
#305 = AXIS2_PLACEMENT_3D ( 'NONE', #324, #66, #96 ) ;
#306 = DIRECTION ( 'NONE',  ( 0.000000000000000000, 0.000000000000000000, 1.000000000000000000 ) ) ;
#307 = CARTESIAN_POINT ( 'NONE',  ( 4.999999999999948486, 0.000000000000000000, 0.000000000000000000 ) ) ;
#308 = COLOUR_RGB ( '',0.6313725490196078205, 0.5137254901960783826, 0.8039215686274510109 ) ;
#309 = DIRECTION ( 'NONE',  ( 0.000000000000000000, 1.000000000000000000, 0.000000000000000000 ) ) ;
#310 = ORIENTED_EDGE ( 'NONE', *, *, #301, .T. ) ;
#311 = DIRECTION ( 'NONE',  ( 0.000000000000000000, -1.000000000000000000, 0.000000000000000000 ) ) ;
#312 = MANIFOLD_SOLID_BREP ( 'Í¹Ì¨-À­Éì1', #343 ) ;
#313 = PLANE ( 'NONE',  #320 ) ;
#314 = EDGE_CURVE ( 'NONE', #319, #325, #239, .T. ) ;
#315 = ORIENTED_EDGE ( 'NONE', *, *, #334, .T. ) ;
#316 = EDGE_LOOP ( 'NONE', ( #6, #93, #192, #294 ) ) ;
#317 = APPLICATION_CONTEXT ( 'automotive_design' ) ;
#318 = ORIENTED_EDGE ( 'NONE', *, *, #168, .F. ) ;
#319 = VERTEX_POINT ( 'NONE', #264 ) ;
#320 = AXIS2_PLACEMENT_3D ( 'NONE', #230, #71, #263 ) ;
#321 = DIRECTION ( 'NONE',  ( -1.000000000000000000, -0.000000000000000000, 9.637352644315594010E-17 ) ) ;
#322 = SURFACE_STYLE_FILL_AREA ( #211 ) ;
#323 = VECTOR ( 'NONE', #250, 1000.000000000000000 ) ;
#324 = CARTESIAN_POINT ( 'NONE',  ( -4.999999999999948486, 2.000000000000000000, 0.000000000000000000 ) ) ;
#325 = VERTEX_POINT ( 'NONE', #341 ) ;
#326 = EDGE_CURVE ( 'NONE', #113, #73, #91, .T. ) ;
#327 = DIRECTION ( 'NONE',  ( -0.000000000000000000, -0.000000000000000000, 1.000000000000000000 ) ) ;
#328 = PRODUCT_DEFINITION ( 'Î´Öª', '', #32, #24 ) ;
#329 = DIRECTION ( 'NONE',  ( -0.000000000000000000, -1.000000000000000000, -0.000000000000000000 ) ) ;
#330 = LINE ( 'NONE', #131, #302 ) ;
#331 = LINE ( 'NONE', #193, #323 ) ;
#332 = DIRECTION ( 'NONE',  ( -1.000000000000000000, -0.000000000000000000, 9.637352644315594010E-17 ) ) ;
#333 = PLANE ( 'NONE',  #44 ) ;
#334 = EDGE_CURVE ( 'NONE', #277, #164, #82, .T. ) ;
#335 = DIRECTION ( 'NONE',  ( 0.000000000000000000, 0.000000000000000000, -1.000000000000000000 ) ) ;
#336 = CARTESIAN_POINT ( 'NONE',  ( -8.999999999999969802, 2.000000000000000000, -8.000000000000000000 ) ) ;
#337 = UNCERTAINTY_MEASURE_WITH_UNIT (LENGTH_MEASURE( 1.000000000000000082E-05 ), #153, 'distance_accuracy_value', 'NONE');
#338 = SHAPE_DEFINITION_REPRESENTATION ( #162, #150 ) ;
#339 = VECTOR ( 'NONE', #332, 1000.000000000000000 ) ;
#340 = CARTESIAN_POINT ( 'NONE',  ( -8.999999999999969802, 2.000000000000000000, 4.000000000000000888 ) ) ;
#341 = CARTESIAN_POINT ( 'NONE',  ( -4.999999999999948486, 0.000000000000000000, 1.600000000000000977 ) ) ;
#342 =( NAMED_UNIT ( * ) PLANE_ANGLE_UNIT ( ) SI_UNIT ( $, .RADIAN. ) );
#343 = CLOSED_SHELL ( 'NONE', ( #47, #52, #242, #218, #115, #348, #88, #30, #108, #246 ) ) ;
#344 =( NAMED_UNIT ( * ) SI_UNIT ( $, .STERADIAN. ) SOLID_ANGLE_UNIT ( ) );
#345 = VECTOR ( 'NONE', #228, 1000.000000000000000 ) ;
#346 = LINE ( 'NONE', #38, #284 ) ;
#347 = ORIENTED_EDGE ( 'NONE', *, *, #253, .T. ) ;
#348 = ADVANCED_FACE ( 'NONE', ( #188 ), #313, .F. ) ;
#349 = PLANE ( 'NONE',  #84 ) ;
#350 = EDGE_CURVE ( 'NONE', #73, #158, #330, .T. ) ;
ENDSEC;
END-ISO-10303-21;
