ISO-10303-21;
HEADER;
FILE_DESCRIPTION (( 'STEP AP214' ),
    '1' );
FILE_NAME ('¹öÖé¹ìµÀ.STEP',
    '2026-07-29T04:04:50',
    ( 'HXX' ),
    ( '' ),
    'SwSTEP 2.0',
    'SolidWorks 2018',
    '' );
FILE_SCHEMA (( 'AUTOMOTIVE_DESIGN' ));
ENDSEC;

DATA;
#1 =( LENGTH_UNIT ( ) NAMED_UNIT ( * ) SI_UNIT ( .MILLI., .METRE. ) );
#2 = LINE ( 'NONE', #113, #57 ) ;
#3 = VERTEX_POINT ( 'NONE', #131 ) ;
#4 = FILL_AREA_STYLE ('',( #162 ) ) ;
#5 = ORIENTED_EDGE ( 'NONE', *, *, #39, .F. ) ;
#6 = DIRECTION ( 'NONE',  ( -0.000000000000000000, -0.000000000000000000, -1.000000000000000000 ) ) ;
#7 = FILL_AREA_STYLE ('',( #200 ) ) ;
#8 = DIRECTION ( 'NONE',  ( -1.000000000000000000, 0.000000000000000000, 0.000000000000000000 ) ) ;
#9 = VERTEX_POINT ( 'NONE', #194 ) ;
#10 = FACE_OUTER_BOUND ( 'NONE', #103, .T. ) ;
#11 = MANIFOLD_SOLID_BREP ( 'Í¹Ì¨-À­Éì1', #133 ) ;
#12 = EDGE_CURVE ( 'NONE', #80, #3, #187, .T. ) ;
#13 = LINE ( 'NONE', #25, #206 ) ;
#14 = AXIS2_PLACEMENT_3D ( 'NONE', #109, #197, #72 ) ;
#15 = ORIENTED_EDGE ( 'NONE', *, *, #129, .F. ) ;
#16 = ADVANCED_FACE ( 'NONE', ( #61 ), #63, .T. ) ;
#17 = SURFACE_STYLE_FILL_AREA ( #4 ) ;
#18 = ORIENTED_EDGE ( 'NONE', *, *, #159, .T. ) ;
#19 = EDGE_CURVE ( 'NONE', #3, #130, #2, .T. ) ;
#20 = PLANE ( 'NONE',  #26 ) ;
#21 = CARTESIAN_POINT ( 'NONE',  ( 0.000000000000000000, 0.000000000000000000, -125.0000000000000000 ) ) ;
#22 =( NAMED_UNIT ( * ) PLANE_ANGLE_UNIT ( ) SI_UNIT ( $, .RADIAN. ) );
#23 = ORIENTED_EDGE ( 'NONE', *, *, #151, .F. ) ;
#24 = SURFACE_SIDE_STYLE ('',( #203 ) ) ;
#25 = CARTESIAN_POINT ( 'NONE',  ( 10.00000000000000178, 0.000000000000000000, 125.0000000000000000 ) ) ;
#26 = AXIS2_PLACEMENT_3D ( 'NONE', #123, #199, #73 ) ;
#27 = ORIENTED_EDGE ( 'NONE', *, *, #129, .T. ) ;
#28 =( GEOMETRIC_REPRESENTATION_CONTEXT ( 3 ) GLOBAL_UNCERTAINTY_ASSIGNED_CONTEXT ( ( #126 ) ) GLOBAL_UNIT_ASSIGNED_CONTEXT ( ( #169, #22, #136 ) ) REPRESENTATION_CONTEXT ( 'NONE', 'WORKASPACE' ) );
#29 = EDGE_CURVE ( 'NONE', #9, #80, #110, .T. ) ;
#30 =( NAMED_UNIT ( * ) PLANE_ANGLE_UNIT ( ) SI_UNIT ( $, .RADIAN. ) );
#31 = SURFACE_STYLE_USAGE ( .BOTH. , #195 ) ;
#32 = PRESENTATION_STYLE_ASSIGNMENT (( #121 ) ) ;
#33 = MECHANICAL_DESIGN_GEOMETRIC_PRESENTATION_REPRESENTATION (  '', ( #144 ), #93 ) ;
#34 = DIRECTION ( 'NONE',  ( -0.000000000000000000, -0.000000000000000000, -1.000000000000000000 ) ) ;
#35 = DIRECTION ( 'NONE',  ( -1.000000000000000000, -2.046909650003432313E-16, -0.000000000000000000 ) ) ;
#36 = APPLICATION_CONTEXT ( 'automotive_design' ) ;
#37 =( NAMED_UNIT ( * ) PLANE_ANGLE_UNIT ( ) SI_UNIT ( $, .RADIAN. ) );
#38 = CARTESIAN_POINT ( 'NONE',  ( 0.000000000000000000, 0.000000000000000000, 0.000000000000000000 ) ) ;
#39 = EDGE_CURVE ( 'NONE', #154, #130, #142, .T. ) ;
#40 = VERTEX_POINT ( 'NONE', #66 ) ;
#41 = ORIENTED_EDGE ( 'NONE', *, *, #29, .T. ) ;
#42 = VECTOR ( 'NONE', #68, 1000.000000000000000 ) ;
#43 = ORIENTED_EDGE ( 'NONE', *, *, #52, .F. ) ;
#44 = AXIS2_PLACEMENT_3D ( 'NONE', #50, #56, #135 ) ;
#45 = DIRECTION ( 'NONE',  ( 1.000000000000000000, 0.000000000000000000, 0.000000000000000000 ) ) ;
#46 = DIRECTION ( 'NONE',  ( 1.000000000000000000, 0.000000000000000000, 0.000000000000000000 ) ) ;
#47 = EDGE_CURVE ( 'NONE', #9, #40, #186, .T. ) ;
#48 = FACE_OUTER_BOUND ( 'NONE', #111, .T. ) ;
#49 = DIRECTION ( 'NONE',  ( -0.000000000000000000, -0.000000000000000000, -1.000000000000000000 ) ) ;
#50 = CARTESIAN_POINT ( 'NONE',  ( 0.000000000000000000, 0.000000000000000000, -125.0000000000000000 ) ) ;
#51 = CARTESIAN_POINT ( 'NONE',  ( -6.500000000000000000, -7.164183775012017408E-16, -125.0000000000000000 ) ) ;
#52 = EDGE_CURVE ( 'NONE', #115, #40, #175, .T. ) ;
#53 =( NAMED_UNIT ( * ) SI_UNIT ( $, .STERADIAN. ) SOLID_ANGLE_UNIT ( ) );
#54 = DIRECTION ( 'NONE',  ( 0.000000000000000000, 0.000000000000000000, 1.000000000000000000 ) ) ;
#55 = CYLINDRICAL_SURFACE ( 'NONE', #79, 6.500000000000000000 ) ;
#56 = DIRECTION ( 'NONE',  ( 0.000000000000000000, 0.000000000000000000, 1.000000000000000000 ) ) ;
#57 = VECTOR ( 'NONE', #49, 1000.000000000000000 ) ;
#58 = AXIS2_PLACEMENT_3D ( 'NONE', #21, #91, #165 ) ;
#59 = APPLICATION_PROTOCOL_DEFINITION ( 'draft international standard', 'automotive_design', 1998, #182 ) ;
#60 = CIRCLE ( 'NONE', #14, 6.500000000000000000 ) ;
#61 = FACE_OUTER_BOUND ( 'NONE', #198, .T. ) ;
#62 = PRODUCT_DEFINITION_FORMATION_WITH_SPECIFIED_SOURCE ( 'ÈÎºÎ', '', #122, .NOT_KNOWN. ) ;
#63 = CYLINDRICAL_SURFACE ( 'NONE', #134, 10.00000000000000178 ) ;
#64 = ORIENTED_EDGE ( 'NONE', *, *, #19, .F. ) ;
#65 = EDGE_CURVE ( 'NONE', #3, #90, #180, .T. ) ;
#66 = CARTESIAN_POINT ( 'NONE',  ( 6.500000000000000000, -7.164183775012017408E-16, -125.0000000000000000 ) ) ;
#67 = CARTESIAN_POINT ( 'NONE',  ( -6.500000000000000000, -7.164183775012017408E-16, 125.0000000000000000 ) ) ;
#68 = DIRECTION ( 'NONE',  ( -1.000000000000000000, -2.046909650003432313E-16, -0.000000000000000000 ) ) ;
#69 = CARTESIAN_POINT ( 'NONE',  ( 10.00000000000000178, 0.000000000000000000, 125.0000000000000000 ) ) ;
#70 = PRESENTATION_STYLE_ASSIGNMENT (( #31 ) ) ;
#71 = CARTESIAN_POINT ( 'NONE',  ( 0.000000000000000000, 0.000000000000000000, 125.0000000000000000 ) ) ;
#72 = DIRECTION ( 'NONE',  ( 1.000000000000000000, 0.000000000000000000, 0.000000000000000000 ) ) ;
#73 = DIRECTION ( 'NONE',  ( 1.000000000000000000, -2.046909650003432313E-16, 0.000000000000000000 ) ) ;
#74 = EDGE_CURVE ( 'NONE', #130, #115, #167, .T. ) ;
#75 = ORIENTED_EDGE ( 'NONE', *, *, #47, .T. ) ;
#76 = ORIENTED_EDGE ( 'NONE', *, *, #12, .F. ) ;
#77 =( GEOMETRIC_REPRESENTATION_CONTEXT ( 3 ) GLOBAL_UNCERTAINTY_ASSIGNED_CONTEXT ( ( #188 ) ) GLOBAL_UNIT_ASSIGNED_CONTEXT ( ( #89, #37, #53 ) ) REPRESENTATION_CONTEXT ( 'NONE', 'WORKASPACE' ) );
#78 = LINE ( 'NONE', #176, #170 ) ;
#79 = AXIS2_PLACEMENT_3D ( 'NONE', #181, #152, #8 ) ;
#80 = VERTEX_POINT ( 'NONE', #67 ) ;
#81 =( NAMED_UNIT ( * ) SI_UNIT ( $, .STERADIAN. ) SOLID_ANGLE_UNIT ( ) );
#82 = PRODUCT_DEFINITION ( 'Î´Öª', '', #62, #171 ) ;
#83 = EDGE_CURVE ( 'NONE', #80, #154, #78, .T. ) ;
#84 = UNCERTAINTY_MEASURE_WITH_UNIT (LENGTH_MEASURE( 1.000000000000000082E-05 ), #1, 'distance_accuracy_value', 'NONE');
#85 = DIRECTION ( 'NONE',  ( -1.000000000000000000, 0.000000000000000000, 0.000000000000000000 ) ) ;
#86 = CARTESIAN_POINT ( 'NONE',  ( 6.500000000000000000, -7.164183775012017408E-16, 125.0000000000000000 ) ) ;
#87 = LINE ( 'NONE', #105, #173 ) ;
#88 = PLANE ( 'NONE',  #58 ) ;
#89 =( LENGTH_UNIT ( ) NAMED_UNIT ( * ) SI_UNIT ( .MILLI., .METRE. ) );
#90 = VERTEX_POINT ( 'NONE', #69 ) ;
#91 = DIRECTION ( 'NONE',  ( 0.000000000000000000, 0.000000000000000000, 1.000000000000000000 ) ) ;
#92 = COLOUR_RGB ( '',1.000000000000000000, 1.000000000000000000, 1.000000000000000000 ) ;
#93 =( GEOMETRIC_REPRESENTATION_CONTEXT ( 3 ) GLOBAL_UNCERTAINTY_ASSIGNED_CONTEXT ( ( #84 ) ) GLOBAL_UNIT_ASSIGNED_CONTEXT ( ( #1, #30, #81 ) ) REPRESENTATION_CONTEXT ( 'NONE', 'WORKASPACE' ) );
#94 = ORIENTED_EDGE ( 'NONE', *, *, #83, .T. ) ;
#95 = MECHANICAL_DESIGN_GEOMETRIC_PRESENTATION_REPRESENTATION (  '', ( #140 ), #77 ) ;
#96 = ADVANCED_FACE ( 'NONE', ( #138 ), #55, .F. ) ;
#97 = SHAPE_DEFINITION_REPRESENTATION ( #147, #178 ) ;
#98 = ADVANCED_FACE ( 'NONE', ( #48 ), #20, .F. ) ;
#99 = PRESENTATION_LAYER_ASSIGNMENT (  '', '', ( #140 ) ) ;
#100 = DIRECTION ( 'NONE',  ( -1.000000000000000000, 2.046909650003432313E-16, 0.000000000000000000 ) ) ;
#101 = DIRECTION ( 'NONE',  ( -0.000000000000000000, -0.000000000000000000, -1.000000000000000000 ) ) ;
#102 = VECTOR ( 'NONE', #100, 1000.000000000000000 ) ;
#103 = EDGE_LOOP ( 'NONE', ( #23, #43, #161, #5 ) ) ;
#104 = CARTESIAN_POINT ( 'NONE',  ( -6.500000000000000000, -7.164183775012017408E-16, -125.0000000000000000 ) ) ;
#105 = CARTESIAN_POINT ( 'NONE',  ( 6.500000000000000000, -7.164183775012017408E-16, 125.0000000000000000 ) ) ;
#106 = DIRECTION ( 'NONE',  ( 2.046909650003432313E-16, -1.000000000000000000, 0.000000000000000000 ) ) ;
#107 = DIRECTION ( 'NONE',  ( 1.000000000000000000, 0.000000000000000000, -0.000000000000000000 ) ) ;
#108 = ORIENTED_EDGE ( 'NONE', *, *, #47, .F. ) ;
#109 = CARTESIAN_POINT ( 'NONE',  ( 0.000000000000000000, 0.000000000000000000, -125.0000000000000000 ) ) ;
#110 = CIRCLE ( 'NONE', #189, 6.500000000000000000 ) ;
#111 = EDGE_LOOP ( 'NONE', ( #149, #64, #76, #94 ) ) ;
#112 = PRESENTATION_LAYER_ASSIGNMENT (  '', '', ( #144 ) ) ;
#113 = CARTESIAN_POINT ( 'NONE',  ( -10.00000000000000178, 0.000000000000000000, 125.0000000000000000 ) ) ;
#114 = CARTESIAN_POINT ( 'NONE',  ( 6.500000000000000000, -7.164183775012017408E-16, -125.0000000000000000 ) ) ;
#115 = VERTEX_POINT ( 'NONE', #185 ) ;
#116 = DIRECTION ( 'NONE',  ( -0.000000000000000000, -0.000000000000000000, -1.000000000000000000 ) ) ;
#117 = CARTESIAN_POINT ( 'NONE',  ( 6.500000000000000000, -7.164183775012017408E-16, 125.0000000000000000 ) ) ;
#118 = APPLICATION_PROTOCOL_DEFINITION ( 'draft international standard', 'automotive_design', 1998, #36 ) ;
#119 = DIRECTION ( 'NONE',  ( 1.000000000000000000, 2.046909650003432313E-16, 0.000000000000000000 ) ) ;
#120 = AXIS2_PLACEMENT_3D ( 'NONE', #71, #179, #107 ) ;
#121 = SURFACE_STYLE_USAGE ( .BOTH. , #24 ) ;
#122 = PRODUCT ( '¹öÖé¹ìµÀ', '¹öÖé¹ìµÀ', '', ( #166 ) ) ;
#123 = CARTESIAN_POINT ( 'NONE',  ( -6.500000000000000000, -7.164183775012017408E-16, 125.0000000000000000 ) ) ;
#124 = ORIENTED_EDGE ( 'NONE', *, *, #12, .T. ) ;
#125 = ORIENTED_EDGE ( 'NONE', *, *, #83, .F. ) ;
#126 = UNCERTAINTY_MEASURE_WITH_UNIT (LENGTH_MEASURE( 1.000000000000000082E-05 ), #169, 'distance_accuracy_value', 'NONE');
#127 = PRODUCT_RELATED_PRODUCT_CATEGORY ( 'part', '', ( #122 ) ) ;
#128 = AXIS2_PLACEMENT_3D ( 'NONE', #38, #54, #137 ) ;
#129 = EDGE_CURVE ( 'NONE', #90, #9, #87, .T. ) ;
#130 = VERTEX_POINT ( 'NONE', #150 ) ;
#131 = CARTESIAN_POINT ( 'NONE',  ( -10.00000000000000178, 0.000000000000000000, 125.0000000000000000 ) ) ;
#132 = CARTESIAN_POINT ( 'NONE',  ( 0.000000000000000000, 0.000000000000000000, 125.0000000000000000 ) ) ;
#133 = CLOSED_SHELL ( 'NONE', ( #96, #98, #16, #156, #192, #145 ) ) ;
#134 = AXIS2_PLACEMENT_3D ( 'NONE', #177, #116, #85 ) ;
#135 = DIRECTION ( 'NONE',  ( 1.000000000000000000, 0.000000000000000000, 0.000000000000000000 ) ) ;
#136 =( NAMED_UNIT ( * ) SI_UNIT ( $, .STERADIAN. ) SOLID_ANGLE_UNIT ( ) );
#137 = DIRECTION ( 'NONE',  ( 1.000000000000000000, 0.000000000000000000, 0.000000000000000000 ) ) ;
#138 = FACE_OUTER_BOUND ( 'NONE', #155, .T. ) ;
#139 = VECTOR ( 'NONE', #101, 1000.000000000000000 ) ;
#140 = STYLED_ITEM ( 'NONE', ( #32 ), #178 ) ;
#141 = ORIENTED_EDGE ( 'NONE', *, *, #19, .T. ) ;
#142 = LINE ( 'NONE', #104, #102 ) ;
#143 = FACE_OUTER_BOUND ( 'NONE', #168, .T. ) ;
#144 = STYLED_ITEM ( 'NONE', ( #70 ), #11 ) ;
#145 = ADVANCED_FACE ( 'NONE', ( #10 ), #88, .F. ) ;
#146 = EDGE_LOOP ( 'NONE', ( #41, #124, #184, #27 ) ) ;
#147 = PRODUCT_DEFINITION_SHAPE ( 'NONE', 'NONE',  #82 ) ;
#148 = PLANE ( 'NONE',  #120 ) ;
#149 = ORIENTED_EDGE ( 'NONE', *, *, #39, .T. ) ;
#150 = CARTESIAN_POINT ( 'NONE',  ( -10.00000000000000178, 0.000000000000000000, -125.0000000000000000 ) ) ;
#151 = EDGE_CURVE ( 'NONE', #40, #154, #60, .T. ) ;
#152 = DIRECTION ( 'NONE',  ( -0.000000000000000000, -0.000000000000000000, -1.000000000000000000 ) ) ;
#153 = ORIENTED_EDGE ( 'NONE', *, *, #151, .T. ) ;
#154 = VERTEX_POINT ( 'NONE', #51 ) ;
#155 = EDGE_LOOP ( 'NONE', ( #153, #125, #190, #75 ) ) ;
#156 = ADVANCED_FACE ( 'NONE', ( #143 ), #201, .F. ) ;
#157 = ORIENTED_EDGE ( 'NONE', *, *, #65, .F. ) ;
#158 = DIRECTION ( 'NONE',  ( -1.000000000000000000, 2.046909650003432313E-16, 0.000000000000000000 ) ) ;
#159 = EDGE_CURVE ( 'NONE', #90, #115, #13, .T. ) ;
#160 = ORIENTED_EDGE ( 'NONE', *, *, #159, .F. ) ;
#161 = ORIENTED_EDGE ( 'NONE', *, *, #74, .F. ) ;
#162 = FILL_AREA_STYLE_COLOUR ( '', #164 ) ;
#163 = CARTESIAN_POINT ( 'NONE',  ( -6.500000000000000000, -7.164183775012017408E-16, 125.0000000000000000 ) ) ;
#164 = COLOUR_RGB ( '',0.9960784313725490335, 0.6666666666666666297, 0.5647058823529411686 ) ;
#165 = DIRECTION ( 'NONE',  ( 1.000000000000000000, 0.000000000000000000, -0.000000000000000000 ) ) ;
#166 = PRODUCT_CONTEXT ( 'NONE', #36, 'mechanical' ) ;
#167 = CIRCLE ( 'NONE', #44, 10.00000000000000178 ) ;
#168 = EDGE_LOOP ( 'NONE', ( #205, #108, #15, #18 ) ) ;
#169 =( LENGTH_UNIT ( ) NAMED_UNIT ( * ) SI_UNIT ( .MILLI., .METRE. ) );
#170 = VECTOR ( 'NONE', #6, 1000.000000000000000 ) ;
#171 = PRODUCT_DEFINITION_CONTEXT ( 'detailed design', #182, 'design' ) ;
#172 = ORIENTED_EDGE ( 'NONE', *, *, #74, .T. ) ;
#173 = VECTOR ( 'NONE', #35, 1000.000000000000000 ) ;
#174 = CARTESIAN_POINT ( 'NONE',  ( 0.000000000000000000, 0.000000000000000000, 125.0000000000000000 ) ) ;
#175 = LINE ( 'NONE', #114, #42 ) ;
#176 = CARTESIAN_POINT ( 'NONE',  ( -6.500000000000000000, -7.164183775012017408E-16, 125.0000000000000000 ) ) ;
#177 = CARTESIAN_POINT ( 'NONE',  ( 0.000000000000000000, 0.000000000000000000, 125.0000000000000000 ) ) ;
#178 = ADVANCED_BREP_SHAPE_REPRESENTATION ( '¹öÖé¹ìµÀ', ( #11, #128 ), #28 ) ;
#179 = DIRECTION ( 'NONE',  ( 0.000000000000000000, 0.000000000000000000, 1.000000000000000000 ) ) ;
#180 = CIRCLE ( 'NONE', #191, 10.00000000000000178 ) ;
#181 = CARTESIAN_POINT ( 'NONE',  ( 0.000000000000000000, 0.000000000000000000, 125.0000000000000000 ) ) ;
#182 = APPLICATION_CONTEXT ( 'automotive_design' ) ;
#183 = DIRECTION ( 'NONE',  ( -0.000000000000000000, -0.000000000000000000, -1.000000000000000000 ) ) ;
#184 = ORIENTED_EDGE ( 'NONE', *, *, #65, .T. ) ;
#185 = CARTESIAN_POINT ( 'NONE',  ( 10.00000000000000178, 0.000000000000000000, -125.0000000000000000 ) ) ;
#186 = LINE ( 'NONE', #117, #139 ) ;
#187 = LINE ( 'NONE', #163, #202 ) ;
#188 = UNCERTAINTY_MEASURE_WITH_UNIT (LENGTH_MEASURE( 1.000000000000000082E-05 ), #89, 'distance_accuracy_value', 'NONE');
#189 = AXIS2_PLACEMENT_3D ( 'NONE', #132, #34, #46 ) ;
#190 = ORIENTED_EDGE ( 'NONE', *, *, #29, .F. ) ;
#191 = AXIS2_PLACEMENT_3D ( 'NONE', #174, #193, #45 ) ;
#192 = ADVANCED_FACE ( 'NONE', ( #196 ), #148, .T. ) ;
#193 = DIRECTION ( 'NONE',  ( 0.000000000000000000, 0.000000000000000000, 1.000000000000000000 ) ) ;
#194 = CARTESIAN_POINT ( 'NONE',  ( 6.500000000000000000, -7.164183775012017408E-16, 125.0000000000000000 ) ) ;
#195 = SURFACE_SIDE_STYLE ('',( #17 ) ) ;
#196 = FACE_OUTER_BOUND ( 'NONE', #146, .T. ) ;
#197 = DIRECTION ( 'NONE',  ( -0.000000000000000000, -0.000000000000000000, -1.000000000000000000 ) ) ;
#198 = EDGE_LOOP ( 'NONE', ( #172, #160, #157, #141 ) ) ;
#199 = DIRECTION ( 'NONE',  ( -2.046909650003432313E-16, -1.000000000000000000, 0.000000000000000000 ) ) ;
#200 = FILL_AREA_STYLE_COLOUR ( '', #92 ) ;
#201 = PLANE ( 'NONE',  #204 ) ;
#202 = VECTOR ( 'NONE', #158, 1000.000000000000000 ) ;
#203 = SURFACE_STYLE_FILL_AREA ( #7 ) ;
#204 = AXIS2_PLACEMENT_3D ( 'NONE', #86, #106, #119 ) ;
#205 = ORIENTED_EDGE ( 'NONE', *, *, #52, .T. ) ;
#206 = VECTOR ( 'NONE', #183, 1000.000000000000000 ) ;
ENDSEC;
END-ISO-10303-21;
