ISO-10303-21;
HEADER;
FILE_DESCRIPTION (( 'STEP AP214' ),
    '1' );
FILE_NAME ('连杆.STEP',
    '2026-07-29T07:34:26',
    ( 'HXX' ),
    ( '' ),
    'SwSTEP 2.0',
    'SolidWorks 2018',
    '' );
FILE_SCHEMA (( 'AUTOMOTIVE_DESIGN' ));
ENDSEC;

DATA;
#1 = DIRECTION ( 'NONE',  ( 0.7071067811865510144, 0.7071067811865441310, -0.000000000000000000 ) ) ;
#2 = FACE_OUTER_BOUND ( 'NONE', #497, .T. ) ;
#3 = DIRECTION ( 'NONE',  ( 8.693433776747944480E-32, -6.264279218805139250E-16, 1.000000000000000000 ) ) ;
#4 = COLOUR_RGB ( '',0.8235294117647058432, 0.9098039215686274384, 0.5019607843137254832 ) ;
#5 = SURFACE_SIDE_STYLE ('',( #166 ) ) ;
#6 = SURFACE_STYLE_USAGE ( .BOTH. , #318 ) ;
#7 = ORIENTED_EDGE ( 'NONE', *, *, #18, .F. ) ;
#8 = ORIENTED_EDGE ( 'NONE', *, *, #62, .T. ) ;
#9 = CARTESIAN_POINT ( 'NONE',  ( -21.99999999999999289, 55.99999999999999289, 7.000000000000009770 ) ) ;
#10 = SHAPE_DEFINITION_REPRESENTATION ( #98, #133 ) ;
#11 = DIRECTION ( 'NONE',  ( -0.7071067811865441310, 0.7071067811865510144, 0.000000000000000000 ) ) ;
#12 = DIRECTION ( 'NONE',  ( -0.7071067811865547892, 0.7071067811865403563, 0.000000000000000000 ) ) ;
#13 = AXIS2_PLACEMENT_3D ( 'NONE', #81, #464, #344 ) ;
#14 = CARTESIAN_POINT ( 'NONE',  ( 2.262741699796966266, 50.00000000000000000, 11.00000000000000000 ) ) ;
#15 = LINE ( 'NONE', #136, #397 ) ;
#16 = VERTEX_POINT ( 'NONE', #545 ) ;
#17 = VERTEX_POINT ( 'NONE', #549 ) ;
#18 = EDGE_CURVE ( 'NONE', #494, #562, #24, .T. ) ;
#19 = VECTOR ( 'NONE', #621, 1000.000000000000000 ) ;
#20 = ORIENTED_EDGE ( 'NONE', *, *, #612, .F. ) ;
#21 = AXIS2_PLACEMENT_3D ( 'NONE', #43, #3, #586 ) ;
#22 = COLOUR_RGB ( '',1.000000000000000000, 1.000000000000000000, 1.000000000000000000 ) ;
#23 = DIRECTION ( 'NONE',  ( 1.000000000000000000, 1.387778780781446169E-16, -0.000000000000000000 ) ) ;
#24 = CIRCLE ( 'NONE', #546, 1.600000000000002309 ) ;
#25 = VERTEX_POINT ( 'NONE', #387 ) ;
#26 = ORIENTED_EDGE ( 'NONE', *, *, #154, .F. ) ;
#27 = DIRECTION ( 'NONE',  ( 0.000000000000000000, 1.000000000000000000, 0.000000000000000000 ) ) ;
#28 = EDGE_CURVE ( 'NONE', #68, #526, #200, .T. ) ;
#29 = VECTOR ( 'NONE', #644, 1000.000000000000000 ) ;
#30 = LINE ( 'NONE', #645, #330 ) ;
#31 = VERTEX_POINT ( 'NONE', #652 ) ;
#32 = ORIENTED_EDGE ( 'NONE', *, *, #575, .F. ) ;
#33 = DIRECTION ( 'NONE',  ( -0.000000000000000000, -0.000000000000000000, -1.000000000000000000 ) ) ;
#34 = EDGE_CURVE ( 'NONE', #16, #356, #261, .T. ) ;
#35 = DIRECTION ( 'NONE',  ( -1.000000000000000000, -1.040834085586084257E-16, 0.000000000000000000 ) ) ;
#36 = DIRECTION ( 'NONE',  ( 1.387778780781445676E-16, -1.000000000000000000, 0.000000000000000000 ) ) ;
#37 = CARTESIAN_POINT ( 'NONE',  ( 1.131370849898477582, -1.131370849898478026, 5.500000000000000000 ) ) ;
#38 = ADVANCED_FACE ( 'NONE', ( #469 ), #492, .T. ) ;
#39 = LINE ( 'NONE', #671, #378 ) ;
#40 = CARTESIAN_POINT ( 'NONE',  ( 2.262741699796978256, 0.000000000000000000, 11.00000000000000000 ) ) ;
#41 = EDGE_LOOP ( 'NONE', ( #512, #276, #391, #419 ) ) ;
#42 = CARTESIAN_POINT ( 'NONE',  ( 0.000000000000000000, 0.000000000000000000, 11.00000000000000000 ) ) ;
#43 = CARTESIAN_POINT ( 'NONE',  ( 0.000000000000000000, 50.00000000000000000, 7.000000000000006217 ) ) ;
#44 = EDGE_CURVE ( 'NONE', #678, #582, #576, .T. ) ;
#45 = CARTESIAN_POINT ( 'NONE',  ( -5.999999999999988454, 50.00000000000000000, 5.500000000000000000 ) ) ;
#46 = LINE ( 'NONE', #531, #95 ) ;
#47 = FACE_BOUND ( 'NONE', #557, .T. ) ;
#48 = EDGE_LOOP ( 'NONE', ( #453, #160, #112, #668 ) ) ;
#49 = CARTESIAN_POINT ( 'NONE',  ( 6.000000000000011546, 50.00000000000000000, 11.00000000000000000 ) ) ;
#50 = EDGE_LOOP ( 'NONE', ( #220, #406, #513, #214 ) ) ;
#51 = ADVANCED_FACE ( 'NONE', ( #390 ), #280, .F. ) ;
#52 = DIRECTION ( 'NONE',  ( 1.000000000000000000, 1.387778780781446169E-16, 0.000000000000000000 ) ) ;
#53 = EDGE_CURVE ( 'NONE', #562, #90, #600, .T. ) ;
#54 = DIRECTION ( 'NONE',  ( 1.000000000000000000, 0.000000000000000000, 0.000000000000000000 ) ) ;
#55 = CYLINDRICAL_SURFACE ( 'NONE', #643, 1.000000000000000888 ) ;
#56 = CARTESIAN_POINT ( 'NONE',  ( 0.000000000000000000, 50.00000000000000000, 11.00000000000000000 ) ) ;
#57 = LINE ( 'NONE', #598, #210 ) ;
#58 = FILL_AREA_STYLE_COLOUR ( '', #4 ) ;
#59 = VECTOR ( 'NONE', #602, 999.9999999999998863 ) ;
#60 = EDGE_LOOP ( 'NONE', ( #61, #314, #485, #277 ) ) ;
#61 = ORIENTED_EDGE ( 'NONE', *, *, #221, .T. ) ;
#62 = EDGE_CURVE ( 'NONE', #240, #25, #525, .T. ) ;
#63 = DIRECTION ( 'NONE',  ( 1.000000000000000000, 0.000000000000000000, 0.000000000000000000 ) ) ;
#64 = AXIS2_PLACEMENT_3D ( 'NONE', #623, #242, #414 ) ;
#65 = CIRCLE ( 'NONE', #70, 1.600000000000004086 ) ;
#66 = CIRCLE ( 'NONE', #348, 6.000000000000000888 ) ;
#67 = ORIENTED_EDGE ( 'NONE', *, *, #353, .F. ) ;
#68 = VERTEX_POINT ( 'NONE', #123 ) ;
#69 = VECTOR ( 'NONE', #299, 1000.000000000000000 ) ;
#70 = AXIS2_PLACEMENT_3D ( 'NONE', #641, #488, #583 ) ;
#71 = ORIENTED_EDGE ( 'NONE', *, *, #452, .F. ) ;
#72 = DIRECTION ( 'NONE',  ( -1.387778780781445676E-16, 1.000000000000000000, -0.000000000000000000 ) ) ;
#73 = ORIENTED_EDGE ( 'NONE', *, *, #377, .T. ) ;
#74 = ORIENTED_EDGE ( 'NONE', *, *, #114, .F. ) ;
#75 = VECTOR ( 'NONE', #195, 1000.000000000000000 ) ;
#76 = ORIENTED_EDGE ( 'NONE', *, *, #221, .F. ) ;
#77 = EDGE_CURVE ( 'NONE', #169, #539, #284, .T. ) ;
#78 = ORIENTED_EDGE ( 'NONE', *, *, #394, .T. ) ;
#79 = ORIENTED_EDGE ( 'NONE', *, *, #44, .F. ) ;
#80 = UNCERTAINTY_MEASURE_WITH_UNIT (LENGTH_MEASURE( 1.000000000000000082E-05 ), #432, 'distance_accuracy_value', 'NONE');
#81 = CARTESIAN_POINT ( 'NONE',  ( 0.000000000000000000, 0.000000000000000000, 11.00000000000000000 ) ) ;
#82 = DIRECTION ( 'NONE',  ( -0.000000000000000000, -0.000000000000000000, -1.000000000000000000 ) ) ;
#83 = DIRECTION ( 'NONE',  ( -0.7071067811865507924, 0.7071067811865441310, 4.429514314863061615E-16 ) ) ;
#84 = AXIS2_PLACEMENT_3D ( 'NONE', #128, #447, #389 ) ;
#85 = CARTESIAN_POINT ( 'NONE',  ( 6.000000000000013323, 37.00000000000000711, 9.999999999999998224 ) ) ;
#86 = LINE ( 'NONE', #651, #182 ) ;
#87 = CYLINDRICAL_SURFACE ( 'NONE', #326, 1.600000000000002309 ) ;
#88 = ORIENTED_EDGE ( 'NONE', *, *, #44, .T. ) ;
#89 = DIRECTION ( 'NONE',  ( -0.000000000000000000, -0.000000000000000000, -1.000000000000000000 ) ) ;
#90 = VERTEX_POINT ( 'NONE', #608 ) ;
#91 = ORIENTED_EDGE ( 'NONE', *, *, #255, .F. ) ;
#92 = CARTESIAN_POINT ( 'NONE',  ( 2.262741699796966266, 50.00000000000000000, 11.00000000000000000 ) ) ;
#93 = CARTESIAN_POINT ( 'NONE',  ( -5.999999999999986677, 37.00000000000000711, 11.00000000000000000 ) ) ;
#94 = EDGE_CURVE ( 'NONE', #109, #539, #385, .T. ) ;
#95 = VECTOR ( 'NONE', #205, 1000.000000000000000 ) ;
#96 = CARTESIAN_POINT ( 'NONE',  ( -21.99999999999998934, 38.00000000000000000, 6.999999999999998224 ) ) ;
#97 = VECTOR ( 'NONE', #145, 1000.000000000000000 ) ;
#98 = PRODUCT_DEFINITION_SHAPE ( 'NONE', 'NONE',  #216 ) ;
#99 = DIRECTION ( 'NONE',  ( 0.000000000000000000, 0.000000000000000000, 1.000000000000000000 ) ) ;
#100 = ORIENTED_EDGE ( 'NONE', *, *, #658, .T. ) ;
#101 = ADVANCED_FACE ( 'NONE', ( #340, #627 ), #289, .F. ) ;
#102 = ORIENTED_EDGE ( 'NONE', *, *, #359, .T. ) ;
#103 = ORIENTED_EDGE ( 'NONE', *, *, #686, .T. ) ;
#104 = PLANE ( 'NONE',  #568 ) ;
#105 = ADVANCED_FACE ( 'NONE', ( #451 ), #238, .T. ) ;
#106 = PLANE ( 'NONE',  #264 ) ;
#107 = CYLINDRICAL_SURFACE ( 'NONE', #433, 1.600000000000002309 ) ;
#108 = CIRCLE ( 'NONE', #439, 5.999999999999998224 ) ;
#109 = VERTEX_POINT ( 'NONE', #565 ) ;
#110 = DIRECTION ( 'NONE',  ( 5.731934358295346332E-33, -4.130293990420970006E-17, -1.000000000000000000 ) ) ;
#111 = ORIENTED_EDGE ( 'NONE', *, *, #554, .F. ) ;
#112 = ORIENTED_EDGE ( 'NONE', *, *, #354, .F. ) ;
#113 = ORIENTED_EDGE ( 'NONE', *, *, #521, .F. ) ;
#114 = EDGE_CURVE ( 'NONE', #25, #120, #137, .T. ) ;
#115 = LINE ( 'NONE', #622, #524 ) ;
#116 = LINE ( 'NONE', #470, #97 ) ;
#117 = PRESENTATION_LAYER_ASSIGNMENT (  '', '', ( #563 ) ) ;
#118 = EDGE_LOOP ( 'NONE', ( #629, #78, #347, #687 ) ) ;
#119 = ORIENTED_EDGE ( 'NONE', *, *, #312, .T. ) ;
#120 = VERTEX_POINT ( 'NONE', #670 ) ;
#121 = LINE ( 'NONE', #45, #170 ) ;
#122 = AXIS2_PLACEMENT_3D ( 'NONE', #9, #595, #486 ) ;
#123 = CARTESIAN_POINT ( 'NONE',  ( 1.131370849898477582, 1.131370849898477582, 5.500000000000000000 ) ) ;
#124 = ORIENTED_EDGE ( 'NONE', *, *, #319, .T. ) ;
#125 = EDGE_LOOP ( 'NONE', ( #398, #331, #167, #304 ) ) ;
#126 = CARTESIAN_POINT ( 'NONE',  ( 6.000000000000019540, -6.000000000000000000, 9.500000000000001776 ) ) ;
#127 =( GEOMETRIC_REPRESENTATION_CONTEXT ( 3 ) GLOBAL_UNCERTAINTY_ASSIGNED_CONTEXT ( ( #455 ) ) GLOBAL_UNIT_ASSIGNED_CONTEXT ( ( #163, #635, #306 ) ) REPRESENTATION_CONTEXT ( 'NONE', 'WORKASPACE' ) );
#128 = CARTESIAN_POINT ( 'NONE',  ( -5.999999999999988454, 50.00000000000000000, 11.00000000000000000 ) ) ;
#129 = FACE_OUTER_BOUND ( 'NONE', #657, .T. ) ;
#130 = LINE ( 'NONE', #245, #503 ) ;
#131 = ORIENTED_EDGE ( 'NONE', *, *, #436, .F. ) ;
#132 = EDGE_LOOP ( 'NONE', ( #32, #483, #550, #20 ) ) ;
#133 = ADVANCED_BREP_SHAPE_REPRESENTATION ( '连杆', ( #361, #428 ), #171 ) ;
#134 = CARTESIAN_POINT ( 'NONE',  ( 0.000000000000000000, 0.000000000000000000, 11.00000000000000000 ) ) ;
#135 = EDGE_CURVE ( 'NONE', #294, #240, #231, .T. ) ;
#136 = CARTESIAN_POINT ( 'NONE',  ( 6.000000000000019540, -6.000000000000000000, 5.500000000000000000 ) ) ;
#137 = LINE ( 'NONE', #457, #556 ) ;
#138 = DIRECTION ( 'NONE',  ( -0.000000000000000000, -0.000000000000000000, -1.000000000000000000 ) ) ;
#139 = VERTEX_POINT ( 'NONE', #462 ) ;
#140 = EDGE_LOOP ( 'NONE', ( #179, #558, #91, #461 ) ) ;
#141 = DIRECTION ( 'NONE',  ( -0.000000000000000000, -0.000000000000000000, -1.000000000000000000 ) ) ;
#142 = DIRECTION ( 'NONE',  ( 0.000000000000000000, 0.000000000000000000, 1.000000000000000000 ) ) ;
#143 = CARTESIAN_POINT ( 'NONE',  ( -1.600000000000002309, 50.00000000000000000, 11.00000000000000000 ) ) ;
#144 = DIRECTION ( 'NONE',  ( 0.000000000000000000, 1.000000000000000000, 0.000000000000000000 ) ) ;
#145 = DIRECTION ( 'NONE',  ( -0.000000000000000000, -0.000000000000000000, -1.000000000000000000 ) ) ;
#146 = CARTESIAN_POINT ( 'NONE',  ( -5.999999999999987566, 39.00000000000000000, 6.999999999999999112 ) ) ;
#147 = ADVANCED_FACE ( 'NONE', ( #610 ), #87, .F. ) ;
#148 = CARTESIAN_POINT ( 'NONE',  ( 0.000000000000000000, 50.00000000000000000, 11.00000000000000000 ) ) ;
#149 = AXIS2_PLACEMENT_3D ( 'NONE', #85, #684, #364 ) ;
#150 = DIRECTION ( 'NONE',  ( -1.000000000000000000, -1.387778780781446169E-16, 0.000000000000000000 ) ) ;
#151 = ORIENTED_EDGE ( 'NONE', *, *, #511, .F. ) ;
#152 = EDGE_CURVE ( 'NONE', #139, #313, #15, .T. ) ;
#153 =( NAMED_UNIT ( * ) SI_UNIT ( $, .STERADIAN. ) SOLID_ANGLE_UNIT ( ) );
#154 = EDGE_CURVE ( 'NONE', #109, #582, #39, .T. ) ;
#155 = LINE ( 'NONE', #422, #567 ) ;
#156 = DIRECTION ( 'NONE',  ( 1.000000000000000000, 1.040834085586084257E-16, -0.000000000000000000 ) ) ;
#157 = PRODUCT_CONTEXT ( 'NONE', #537, 'mechanical' ) ;
#158 = ORIENTED_EDGE ( 'NONE', *, *, #436, .T. ) ;
#159 = ORIENTED_EDGE ( 'NONE', *, *, #319, .F. ) ;
#160 = ORIENTED_EDGE ( 'NONE', *, *, #507, .T. ) ;
#161 = DIRECTION ( 'NONE',  ( 1.040834085586084257E-16, -1.000000000000000000, -6.264279218805139250E-16 ) ) ;
#162 = PRESENTATION_LAYER_ASSIGNMENT (  '', '', ( #490 ) ) ;
#163 =( LENGTH_UNIT ( ) NAMED_UNIT ( * ) SI_UNIT ( .MILLI., .METRE. ) );
#164 = DIRECTION ( 'NONE',  ( -0.000000000000000000, -0.000000000000000000, -1.000000000000000000 ) ) ;
#165 = AXIS2_PLACEMENT_3D ( 'NONE', #417, #247, #256 ) ;
#166 = SURFACE_STYLE_FILL_AREA ( #317 ) ;
#167 = ORIENTED_EDGE ( 'NONE', *, *, #34, .T. ) ;
#168 = VERTEX_POINT ( 'NONE', #185 ) ;
#169 = VERTEX_POINT ( 'NONE', #628 ) ;
#170 = VECTOR ( 'NONE', #478, 1000.000000000000000 ) ;
#171 =( GEOMETRIC_REPRESENTATION_CONTEXT ( 3 ) GLOBAL_UNCERTAINTY_ASSIGNED_CONTEXT ( ( #180 ) ) GLOBAL_UNIT_ASSIGNED_CONTEXT ( ( #211, #370, #258 ) ) REPRESENTATION_CONTEXT ( 'NONE', 'WORKASPACE' ) );
#172 = EDGE_LOOP ( 'NONE', ( #234, #649, #8, #386 ) ) ;
#173 = ORIENTED_EDGE ( 'NONE', *, *, #575, .T. ) ;
#174 =( GEOMETRIC_REPRESENTATION_CONTEXT ( 3 ) GLOBAL_UNCERTAINTY_ASSIGNED_CONTEXT ( ( #80 ) ) GLOBAL_UNIT_ASSIGNED_CONTEXT ( ( #432, #489, #153 ) ) REPRESENTATION_CONTEXT ( 'NONE', 'WORKASPACE' ) );
#175 = CIRCLE ( 'NONE', #578, 6.000000000000000888 ) ;
#176 = AXIS2_PLACEMENT_3D ( 'NONE', #536, #156, #597 ) ;
#177 = ORIENTED_EDGE ( 'NONE', *, *, #152, .F. ) ;
#178 = VERTEX_POINT ( 'NONE', #358 ) ;
#179 = ORIENTED_EDGE ( 'NONE', *, *, #511, .T. ) ;
#180 = UNCERTAINTY_MEASURE_WITH_UNIT (LENGTH_MEASURE( 1.000000000000000082E-05 ), #211, 'distance_accuracy_value', 'NONE');
#181 = EDGE_CURVE ( 'NONE', #430, #356, #116, .T. ) ;
#182 = VECTOR ( 'NONE', #380, 1000.000000000000114 ) ;
#183 = VERTEX_POINT ( 'NONE', #37 ) ;
#184 = ORIENTED_EDGE ( 'NONE', *, *, #34, .F. ) ;
#185 = CARTESIAN_POINT ( 'NONE',  ( -6.000000000000001776, 7.347880794884122694E-16, 9.500000000000001776 ) ) ;
#186 = CARTESIAN_POINT ( 'NONE',  ( 6.000000000000012434, 38.00000000000000711, 5.999999999999999112 ) ) ;
#187 = DIRECTION ( 'NONE',  ( -0.000000000000000000, -0.000000000000000000, -1.000000000000000000 ) ) ;
#188 = VECTOR ( 'NONE', #83, 1000.000000000000000 ) ;
#189 = VECTOR ( 'NONE', #638, 1000.000000000000000 ) ;
#190 = VERTEX_POINT ( 'NONE', #682 ) ;
#191 = DIRECTION ( 'NONE',  ( 0.7071067811865545671, 0.7071067811865404673, -0.000000000000000000 ) ) ;
#192 = PLANE ( 'NONE',  #603 ) ;
#193 = ORIENTED_EDGE ( 'NONE', *, *, #208, .T. ) ;
#194 = CARTESIAN_POINT ( 'NONE',  ( 2.262741699796978256, 0.000000000000000000, 5.500000000000000000 ) ) ;
#195 = DIRECTION ( 'NONE',  ( -0.000000000000000000, -0.000000000000000000, -1.000000000000000000 ) ) ;
#196 = CARTESIAN_POINT ( 'NONE',  ( 2.262741699796978256, 0.000000000000000000, 11.00000000000000000 ) ) ;
#197 = CARTESIAN_POINT ( 'NONE',  ( 2.262741699796978256, -3.097720492815661715E-17, 9.500000000000001776 ) ) ;
#198 = DIRECTION ( 'NONE',  ( -1.000000000000000000, -1.387778780781446169E-16, 0.000000000000000000 ) ) ;
#199 = CYLINDRICAL_SURFACE ( 'NONE', #427, 1.600000000000002309 ) ;
#200 = CIRCLE ( 'NONE', #653, 1.600000000000002309 ) ;
#201 = ORIENTED_EDGE ( 'NONE', *, *, #135, .F. ) ;
#202 = PLANE ( 'NONE',  #165 ) ;
#203 = ORIENTED_EDGE ( 'NONE', *, *, #402, .T. ) ;
#204 = AXIS2_PLACEMENT_3D ( 'NONE', #49, #383, #407 ) ;
#205 = DIRECTION ( 'NONE',  ( -0.000000000000000000, -0.000000000000000000, -1.000000000000000000 ) ) ;
#206 = CARTESIAN_POINT ( 'NONE',  ( 0.000000000000000000, 0.000000000000000000, 9.500000000000001776 ) ) ;
#207 = DIRECTION ( 'NONE',  ( 0.000000000000000000, 0.000000000000000000, 1.000000000000000000 ) ) ;
#208 = EDGE_CURVE ( 'NONE', #240, #678, #661, .T. ) ;
#209 = VECTOR ( 'NONE', #241, 1000.000000000000000 ) ;
#210 = VECTOR ( 'NONE', #376, 1000.000000000000000 ) ;
#211 =( LENGTH_UNIT ( ) NAMED_UNIT ( * ) SI_UNIT ( .MILLI., .METRE. ) );
#212 = LINE ( 'NONE', #296, #69 ) ;
#213 = PLANE ( 'NONE',  #392 ) ;
#214 = ORIENTED_EDGE ( 'NONE', *, *, #444, .F. ) ;
#215 = DIRECTION ( 'NONE',  ( 0.000000000000000000, 1.000000000000000000, -4.130293990420970006E-17 ) ) ;
#216 = PRODUCT_DEFINITION ( '未知', '', #633, #399 ) ;
#217 = LINE ( 'NONE', #637, #29 ) ;
#218 = LINE ( 'NONE', #476, #75 ) ;
#219 = VERTEX_POINT ( 'NONE', #349 ) ;
#220 = ORIENTED_EDGE ( 'NONE', *, *, #323, .F. ) ;
#221 = EDGE_CURVE ( 'NONE', #183, #527, #646, .T. ) ;
#222 = EDGE_LOOP ( 'NONE', ( #177, #71, #548, #279, #74, #570, #193, #564, #357, #656 ) ) ;
#223 = EDGE_CURVE ( 'NONE', #442, #333, #248, .T. ) ;
#224 = CIRCLE ( 'NONE', #321, 1.600000000000002309 ) ;
#225 = DIRECTION ( 'NONE',  ( -1.445602896647339410E-16, 1.000000000000000000, -4.130293990420969390E-17 ) ) ;
#226 = VECTOR ( 'NONE', #614, 1000.000000000000000 ) ;
#227 = ORIENTED_EDGE ( 'NONE', *, *, #516, .T. ) ;
#228 = DIRECTION ( 'NONE',  ( 0.000000000000000000, 0.000000000000000000, 1.000000000000000000 ) ) ;
#229 = FACE_OUTER_BOUND ( 'NONE', #506, .T. ) ;
#230 = DIRECTION ( 'NONE',  ( 1.000000000000000000, 0.000000000000000000, -0.000000000000000000 ) ) ;
#231 = LINE ( 'NONE', #680, #418 ) ;
#232 = EDGE_LOOP ( 'NONE', ( #443, #7, #596, #667 ) ) ;
#233 = ORIENTED_EDGE ( 'NONE', *, *, #53, .T. ) ;
#234 = ORIENTED_EDGE ( 'NONE', *, *, #353, .T. ) ;
#235 = DIRECTION ( 'NONE',  ( -1.000000000000000000, 0.000000000000000000, 0.000000000000000000 ) ) ;
#236 = CARTESIAN_POINT ( 'NONE',  ( 6.000000000000013323, 36.00000000000000711, 9.500000000000000000 ) ) ;
#237 = DIRECTION ( 'NONE',  ( 0.7071067811865507924, -0.7071067811865441310, 0.000000000000000000 ) ) ;
#238 = CYLINDRICAL_SURFACE ( 'NONE', #13, 6.000000000000000888 ) ;
#239 = AXIS2_PLACEMENT_3D ( 'NONE', #434, #269, #493 ) ;
#240 = VERTEX_POINT ( 'NONE', #634 ) ;
#241 = DIRECTION ( 'NONE',  ( 1.445602896647339656E-16, -1.000000000000000000, -6.264279218805138264E-16 ) ) ;
#242 = DIRECTION ( 'NONE',  ( -1.000000000000000000, -1.387778780781445676E-16, 0.000000000000000000 ) ) ;
#243 = AXIS2_PLACEMENT_3D ( 'NONE', #267, #11, #647 ) ;
#244 = CARTESIAN_POINT ( 'NONE',  ( 1.804112415015880167E-15, 37.00000000000000711, 9.999999999999998224 ) ) ;
#245 = CARTESIAN_POINT ( 'NONE',  ( -5.999999999999988454, 50.00000000000000000, 11.00000000000000000 ) ) ;
#246 = CIRCLE ( 'NONE', #676, 1.000000000000000888 ) ;
#247 = DIRECTION ( 'NONE',  ( 0.000000000000000000, 0.000000000000000000, 1.000000000000000000 ) ) ;
#248 = CIRCLE ( 'NONE', #64, 1.000000000000000888 ) ;
#249 = ORIENTED_EDGE ( 'NONE', *, *, #444, .T. ) ;
#250 = EDGE_LOOP ( 'NONE', ( #688, #227, #131, #342 ) ) ;
#251 = PRODUCT_RELATED_PRODUCT_CATEGORY ( 'part', '', ( #412 ) ) ;
#252 = DIRECTION ( 'NONE',  ( 0.7071067811865547892, -0.7071067811865403563, 0.000000000000000000 ) ) ;
#253 = DIRECTION ( 'NONE',  ( 0.000000000000000000, 1.000000000000000000, 0.000000000000000000 ) ) ;
#254 = APPLICATION_CONTEXT ( 'automotive_design' ) ;
#255 = EDGE_CURVE ( 'NONE', #169, #313, #355, .T. ) ;
#256 = DIRECTION ( 'NONE',  ( 1.000000000000000000, 0.000000000000000000, -0.000000000000000000 ) ) ;
#257 = DIRECTION ( 'NONE',  ( -0.000000000000000000, -0.000000000000000000, -1.000000000000000000 ) ) ;
#258 =( NAMED_UNIT ( * ) SI_UNIT ( $, .STERADIAN. ) SOLID_ANGLE_UNIT ( ) );
#259 = VECTOR ( 'NONE', #404, 1000.000000000000000 ) ;
#260 = FACE_OUTER_BOUND ( 'NONE', #454, .T. ) ;
#261 = LINE ( 'NONE', #328, #59 ) ;
#262 = DIRECTION ( 'NONE',  ( 1.387778780781446169E-16, -1.000000000000000000, 0.000000000000000000 ) ) ;
#263 = DIRECTION ( 'NONE',  ( 0.000000000000000000, 0.000000000000000000, 1.000000000000000000 ) ) ;
#264 = AXIS2_PLACEMENT_3D ( 'NONE', #196, #642, #252 ) ;
#265 = EDGE_LOOP ( 'NONE', ( #76, #617, #369, #379 ) ) ;
#266 = EDGE_LOOP ( 'NONE', ( #113, #611, #540, #514 ) ) ;
#267 = CARTESIAN_POINT ( 'NONE',  ( 2.262741699796966266, 50.00000000000000000, 11.00000000000000000 ) ) ;
#268 = PLANE ( 'NONE',  #122 ) ;
#269 = DIRECTION ( 'NONE',  ( -1.000000000000000000, -1.387778780781446169E-16, -1.094764425253763580E-47 ) ) ;
#270 = CARTESIAN_POINT ( 'NONE',  ( 6.000000000000013323, 38.00000000000000711, 6.999999999999998224 ) ) ;
#271 = FACE_OUTER_BOUND ( 'NONE', #50, .T. ) ;
#272 = VECTOR ( 'NONE', #23, 1000.000000000000000 ) ;
#273 = ORIENTED_EDGE ( 'NONE', *, *, #475, .F. ) ;
#274 = CARTESIAN_POINT ( 'NONE',  ( 0.000000000000000000, 0.000000000000000000, 9.500000000000001776 ) ) ;
#275 = MECHANICAL_DESIGN_GEOMETRIC_PRESENTATION_REPRESENTATION (  '', ( #563 ), #127 ) ;
#276 = ORIENTED_EDGE ( 'NONE', *, *, #516, .F. ) ;
#277 = ORIENTED_EDGE ( 'NONE', *, *, #620, .T. ) ;
#278 = ORIENTED_EDGE ( 'NONE', *, *, #18, .T. ) ;
#279 = ORIENTED_EDGE ( 'NONE', *, *, #553, .F. ) ;
#280 = PLANE ( 'NONE',  #84 ) ;
#281 = AXIS2_PLACEMENT_3D ( 'NONE', #56, #164, #542 ) ;
#282 = EDGE_CURVE ( 'NONE', #606, #315, #130, .T. ) ;
#283 = LINE ( 'NONE', #530, #301 ) ;
#284 = LINE ( 'NONE', #126, #324 ) ;
#285 = VERTEX_POINT ( 'NONE', #143 ) ;
#286 = PRESENTATION_STYLE_ASSIGNMENT (( #6 ) ) ;
#287 = EDGE_CURVE ( 'NONE', #285, #639, #510, .T. ) ;
#288 = CIRCLE ( 'NONE', #21, 1.600000000000004086 ) ;
#289 = PLANE ( 'NONE',  #663 ) ;
#290 = LINE ( 'NONE', #431, #609 ) ;
#291 = ORIENTED_EDGE ( 'NONE', *, *, #475, .T. ) ;
#292 = DIRECTION ( 'NONE',  ( -0.7071067811865545671, -0.7071067811865404673, 2.920558888920683590E-17 ) ) ;
#293 = VERTEX_POINT ( 'NONE', #572 ) ;
#294 = VERTEX_POINT ( 'NONE', #93 ) ;
#295 = CARTESIAN_POINT ( 'NONE',  ( -1.600000000000002309, 50.00000000000000000, 11.00000000000000000 ) ) ;
#296 = CARTESIAN_POINT ( 'NONE',  ( 1.131370849898477582, 1.131370849898477582, 11.00000000000000000 ) ) ;
#297 = CARTESIAN_POINT ( 'NONE',  ( 6.000000000000013323, 36.00000000000000711, 9.999999999999998224 ) ) ;
#298 = CARTESIAN_POINT ( 'NONE',  ( 0.000000000000000000, 50.00000000000000000, 11.00000000000000000 ) ) ;
#299 = DIRECTION ( 'NONE',  ( -0.000000000000000000, -0.000000000000000000, -1.000000000000000000 ) ) ;
#300 = EDGE_CURVE ( 'NONE', #494, #183, #218, .T. ) ;
#301 = VECTOR ( 'NONE', #257, 1000.000000000000000 ) ;
#302 = ORIENTED_EDGE ( 'NONE', *, *, #223, .F. ) ;
#303 = CARTESIAN_POINT ( 'NONE',  ( 6.000000000000010658, 56.00000000000000000, 7.000000000000009770 ) ) ;
#304 = ORIENTED_EDGE ( 'NONE', *, *, #521, .T. ) ;
#305 = DIRECTION ( 'NONE',  ( -0.7071067811865545671, -0.7071067811865404673, 0.000000000000000000 ) ) ;
#306 =( NAMED_UNIT ( * ) SI_UNIT ( $, .STERADIAN. ) SOLID_ANGLE_UNIT ( ) );
#307 = DIRECTION ( 'NONE',  ( -1.387778780781446169E-16, 1.000000000000000000, 0.000000000000000000 ) ) ;
#308 = ADVANCED_FACE ( 'NONE', ( #367 ), #518, .T. ) ;
#309 = VECTOR ( 'NONE', #33, 1000.000000000000000 ) ;
#310 = LINE ( 'NONE', #381, #189 ) ;
#311 = CARTESIAN_POINT ( 'NONE',  ( -5.999999999999988454, 50.00000000000000000, 11.00000000000000000 ) ) ;
#312 = EDGE_CURVE ( 'NONE', #90, #68, #212, .T. ) ;
#313 = VERTEX_POINT ( 'NONE', #408 ) ;
#314 = ORIENTED_EDGE ( 'NONE', *, *, #332, .T. ) ;
#315 = VERTEX_POINT ( 'NONE', #411 ) ;
#316 = PLANE ( 'NONE',  #560 ) ;
#317 = FILL_AREA_STYLE ('',( #58 ) ) ;
#318 = SURFACE_SIDE_STYLE ('',( #334 ) ) ;
#319 = EDGE_CURVE ( 'NONE', #190, #17, #338, .T. ) ;
#320 = DIRECTION ( 'NONE',  ( 1.000000000000000000, 0.000000000000000000, 0.000000000000000000 ) ) ;
#321 = AXIS2_PLACEMENT_3D ( 'NONE', #423, #207, #320 ) ;
#322 = VECTOR ( 'NONE', #650, 1000.000000000000000 ) ;
#323 = EDGE_CURVE ( 'NONE', #169, #168, #66, .T. ) ;
#324 = VECTOR ( 'NONE', #225, 1000.000000000000000 ) ;
#325 = DIRECTION ( 'NONE',  ( 0.000000000000000000, 0.000000000000000000, 1.000000000000000000 ) ) ;
#326 = AXIS2_PLACEMENT_3D ( 'NONE', #134, #82, #235 ) ;
#327 = CARTESIAN_POINT ( 'NONE',  ( 1.131370849898477360, -1.131370849898477804, 9.500000000000001776 ) ) ;
#328 = CARTESIAN_POINT ( 'NONE',  ( 2.262741699796967598, 50.00000000000000000, 7.000000000000006217 ) ) ;
#329 = LINE ( 'NONE', #197, #456 ) ;
#330 = VECTOR ( 'NONE', #161, 1000.000000000000000 ) ;
#331 = ORIENTED_EDGE ( 'NONE', *, *, #554, .T. ) ;
#332 = EDGE_CURVE ( 'NONE', #527, #68, #468, .T. ) ;
#333 = VERTEX_POINT ( 'NONE', #467 ) ;
#334 = SURFACE_STYLE_FILL_AREA ( #588 ) ;
#335 = DIRECTION ( 'NONE',  ( -0.000000000000000000, -0.000000000000000000, -1.000000000000000000 ) ) ;
#336 = EDGE_CURVE ( 'NONE', #31, #313, #175, .T. ) ;
#337 = CARTESIAN_POINT ( 'NONE',  ( 0.000000000000000000, 0.000000000000000000, 9.500000000000001776 ) ) ;
#338 = CIRCLE ( 'NONE', #176, 1.000000000000000888 ) ;
#339 = DIRECTION ( 'NONE',  ( -1.000000000000000000, 0.000000000000000000, 0.000000000000000000 ) ) ;
#340 = FACE_BOUND ( 'NONE', #60, .T. ) ;
#341 = ORIENTED_EDGE ( 'NONE', *, *, #282, .F. ) ;
#342 = ORIENTED_EDGE ( 'NONE', *, *, #508, .T. ) ;
#343 = CARTESIAN_POINT ( 'NONE',  ( 6.000000000000011546, 50.00000000000000000, 11.00000000000000000 ) ) ;
#344 = DIRECTION ( 'NONE',  ( -1.000000000000000000, 0.000000000000000000, 0.000000000000000000 ) ) ;
#345 = FACE_BOUND ( 'NONE', #132, .T. ) ;
#346 = EDGE_LOOP ( 'NONE', ( #184, #648, #173, #655 ) ) ;
#347 = ORIENTED_EDGE ( 'NONE', *, *, #28, .F. ) ;
#348 = AXIS2_PLACEMENT_3D ( 'NONE', #206, #424, #253 ) ;
#349 = CARTESIAN_POINT ( 'NONE',  ( 1.131370849898478026, 51.13137084989848091, 11.00000000000000000 ) ) ;
#350 = CARTESIAN_POINT ( 'NONE',  ( -6.000000000000000888, 7.347880794884120722E-16, 11.00000000000000000 ) ) ;
#351 = ADVANCED_FACE ( 'NONE', ( #502, #458 ), #268, .F. ) ;
#352 = DIRECTION ( 'NONE',  ( -0.7071067811865442421, -0.7071067811865509034, 0.000000000000000000 ) ) ;
#353 = EDGE_CURVE ( 'NONE', #606, #294, #438, .T. ) ;
#354 = EDGE_CURVE ( 'NONE', #315, #190, #30, .T. ) ;
#355 = LINE ( 'NONE', #421, #654 ) ;
#356 = VERTEX_POINT ( 'NONE', #532 ) ;
#357 = ORIENTED_EDGE ( 'NONE', *, *, #77, .F. ) ;
#358 = CARTESIAN_POINT ( 'NONE',  ( -5.999999999999987566, 38.00000000000000000, 5.500000000000000000 ) ) ;
#359 = EDGE_CURVE ( 'NONE', #293, #16, #283, .T. ) ;
#360 = AXIS2_PLACEMENT_3D ( 'NONE', #450, #335, #339 ) ;
#361 = MANIFOLD_SOLID_BREP ( '切除-拉伸2', #552 ) ;
#362 = CARTESIAN_POINT ( 'NONE',  ( -1.600000000000002309, 0.000000000000000000, 5.500000000000000000 ) ) ;
#363 = DIRECTION ( 'NONE',  ( -1.000000000000000000, 0.000000000000000000, 0.000000000000000000 ) ) ;
#364 = DIRECTION ( 'NONE',  ( 0.000000000000000000, -1.000000000000000000, 0.000000000000000000 ) ) ;
#365 = CARTESIAN_POINT ( 'NONE',  ( 0.000000000000000000, 0.000000000000000000, 0.000000000000000000 ) ) ;
#366 = VECTOR ( 'NONE', #1, 999.9999999999998863 ) ;
#367 = FACE_OUTER_BOUND ( 'NONE', #266, .T. ) ;
#368 = DIRECTION ( 'NONE',  ( 8.693433776747944480E-32, -6.264279218805139250E-16, 1.000000000000000000 ) ) ;
#369 = ORIENTED_EDGE ( 'NONE', *, *, #674, .F. ) ;
#370 =( NAMED_UNIT ( * ) PLANE_ANGLE_UNIT ( ) SI_UNIT ( $, .RADIAN. ) );
#371 = VERTEX_POINT ( 'NONE', #599 ) ;
#372 = CARTESIAN_POINT ( 'NONE',  ( 2.262741699796978256, 0.000000000000000000, 5.500000000000000000 ) ) ;
#373 = SURFACE_STYLE_USAGE ( .BOTH. , #5 ) ;
#374 = APPLICATION_PROTOCOL_DEFINITION ( 'draft international standard', 'automotive_design', 1998, #537 ) ;
#375 = FACE_OUTER_BOUND ( 'NONE', #222, .T. ) ;
#376 = DIRECTION ( 'NONE',  ( 0.000000000000000000, 0.000000000000000000, -1.000000000000000000 ) ) ;
#377 = EDGE_CURVE ( 'NONE', #120, #315, #108, .T. ) ;
#378 = VECTOR ( 'NONE', #569, 1000.000000000000000 ) ;
#379 = ORIENTED_EDGE ( 'NONE', *, *, #479, .T. ) ;
#380 = DIRECTION ( 'NONE',  ( 0.7071067811865547892, -0.7071067811865403563, 2.920558888920683590E-17 ) ) ;
#381 = CARTESIAN_POINT ( 'NONE',  ( -1.600000000000002309, 0.000000000000000000, 11.00000000000000000 ) ) ;
#382 = ORIENTED_EDGE ( 'NONE', *, *, #114, .T. ) ;
#383 = DIRECTION ( 'NONE',  ( -1.000000000000000000, -1.387778780781445676E-16, 0.000000000000000000 ) ) ;
#384 = FACE_OUTER_BOUND ( 'NONE', #551, .T. ) ;
#385 = LINE ( 'NONE', #500, #272 ) ;
#386 = ORIENTED_EDGE ( 'NONE', *, *, #543, .T. ) ;
#387 = CARTESIAN_POINT ( 'NONE',  ( 6.000000000000011546, 50.00000000000000000, 11.00000000000000000 ) ) ;
#388 = FACE_OUTER_BOUND ( 'NONE', #618, .T. ) ;
#389 = DIRECTION ( 'NONE',  ( -1.040834085586084257E-16, 1.000000000000000000, 0.000000000000000000 ) ) ;
#390 = FACE_OUTER_BOUND ( 'NONE', #393, .T. ) ;
#391 = ORIENTED_EDGE ( 'NONE', *, *, #152, .T. ) ;
#392 = AXIS2_PLACEMENT_3D ( 'NONE', #541, #110, #215 ) ;
#393 = EDGE_LOOP ( 'NONE', ( #158, #631, #151, #249, #664, #100, #67, #409, #446, #124 ) ) ;
#394 = EDGE_CURVE ( 'NONE', #562, #526, #310, .T. ) ;
#395 = MECHANICAL_DESIGN_GEOMETRIC_PRESENTATION_REPRESENTATION (  '', ( #490 ), #174 ) ;
#396 = LINE ( 'NONE', #92, #366 ) ;
#397 = VECTOR ( 'NONE', #619, 1000.000000000000000 ) ;
#398 = ORIENTED_EDGE ( 'NONE', *, *, #625, .T. ) ;
#399 = PRODUCT_DEFINITION_CONTEXT ( 'detailed design', #254, 'design' ) ;
#400 = ORIENTED_EDGE ( 'NONE', *, *, #287, .F. ) ;
#401 = CARTESIAN_POINT ( 'NONE',  ( -21.99999999999998224, -6.000000000000003553, 5.500000000000000000 ) ) ;
#402 = EDGE_CURVE ( 'NONE', #285, #293, #561, .T. ) ;
#403 = DIRECTION ( 'NONE',  ( 0.000000000000000000, 0.000000000000000000, 1.000000000000000000 ) ) ;
#404 = DIRECTION ( 'NONE',  ( -1.000000000000000000, -1.387778780781446169E-16, -2.189528850507526673E-47 ) ) ;
#405 = VECTOR ( 'NONE', #191, 1000.000000000000227 ) ;
#406 = ORIENTED_EDGE ( 'NONE', *, *, #77, .T. ) ;
#407 = DIRECTION ( 'NONE',  ( 1.387778780781445676E-16, -1.000000000000000000, 0.000000000000000000 ) ) ;
#408 = CARTESIAN_POINT ( 'NONE',  ( 6.000000000000018652, 0.000000000000000000, 5.500000000000000000 ) ) ;
#409 = ORIENTED_EDGE ( 'NONE', *, *, #282, .T. ) ;
#410 = CARTESIAN_POINT ( 'NONE',  ( 2.262741699796964934, 50.00000000000000000, 7.000000000000006217 ) ) ;
#411 = CARTESIAN_POINT ( 'NONE',  ( -5.999999999999988454, 50.00000000000000000, 7.000000000000006217 ) ) ;
#412 = PRODUCT ( '连杆', '连杆', '', ( #157 ) ) ;
#413 = DIRECTION ( 'NONE',  ( 1.000000000000000000, 1.387778780781446169E-16, 1.094764425253763580E-47 ) ) ;
#414 = DIRECTION ( 'NONE',  ( 0.000000000000000000, -1.000000000000000000, 0.000000000000000000 ) ) ;
#415 = ADVANCED_FACE ( 'NONE', ( #260 ), #482, .F. ) ;
#416 = VECTOR ( 'NONE', #435, 1000.000000000000000 ) ;
#417 = CARTESIAN_POINT ( 'NONE',  ( 0.000000000000000000, 50.00000000000000000, 11.00000000000000000 ) ) ;
#418 = VECTOR ( 'NONE', #515, 1000.000000000000000 ) ;
#419 = ORIENTED_EDGE ( 'NONE', *, *, #336, .F. ) ;
#420 = CARTESIAN_POINT ( 'NONE',  ( 2.262741699796978256, -6.350476517473144388E-22, 9.500000000000001776 ) ) ;
#421 = CARTESIAN_POINT ( 'NONE',  ( 6.000000000000018652, 8.673617379884035472E-16, 11.00000000000000000 ) ) ;
#422 = CARTESIAN_POINT ( 'NONE',  ( 6.000000000000013323, 36.00000000000000711, 9.500000000000000000 ) ) ;
#423 = CARTESIAN_POINT ( 'NONE',  ( 0.000000000000000000, 0.000000000000000000, 5.500000000000000000 ) ) ;
#424 = DIRECTION ( 'NONE',  ( 5.731934358295347016E-33, -4.130293990420970006E-17, -1.000000000000000000 ) ) ;
#425 = CARTESIAN_POINT ( 'NONE',  ( -21.99999999999998934, 36.00000000000000000, 9.500000000000000000 ) ) ;
#426 = CARTESIAN_POINT ( 'NONE',  ( 0.000000000000000000, 0.000000000000000000, 5.500000000000000000 ) ) ;
#427 = AXIS2_PLACEMENT_3D ( 'NONE', #517, #89, #522 ) ;
#428 = AXIS2_PLACEMENT_3D ( 'NONE', #365, #99, #480 ) ;
#429 = CARTESIAN_POINT ( 'NONE',  ( -5.999999999999988454, 50.00000000000000000, 11.00000000000000000 ) ) ;
#430 = VERTEX_POINT ( 'NONE', #14 ) ;
#431 = CARTESIAN_POINT ( 'NONE',  ( -5.999999999999988454, 50.00000000000000000, 9.500000000000000000 ) ) ;
#432 =( LENGTH_UNIT ( ) NAMED_UNIT ( * ) SI_UNIT ( .MILLI., .METRE. ) );
#433 = AXIS2_PLACEMENT_3D ( 'NONE', #42, #481, #363 ) ;
#434 = CARTESIAN_POINT ( 'NONE',  ( -21.99999999999998934, 39.00000000000000000, 5.999999999999999112 ) ) ;
#435 = DIRECTION ( 'NONE',  ( 1.040834085586084257E-16, -1.000000000000000000, 0.000000000000000000 ) ) ;
#436 = EDGE_CURVE ( 'NONE', #17, #178, #57, .T. ) ;
#437 = PLANE ( 'NONE',  #243 ) ;
#438 = LINE ( 'NONE', #311, #416 ) ;
#439 = AXIS2_PLACEMENT_3D ( 'NONE', #585, #368, #587 ) ;
#440 = VECTOR ( 'NONE', #187, 1000.000000000000000 ) ;
#441 = ORIENTED_EDGE ( 'NONE', *, *, #94, .T. ) ;
#442 = VERTEX_POINT ( 'NONE', #544 ) ;
#443 = ORIENTED_EDGE ( 'NONE', *, *, #394, .F. ) ;
#444 = EDGE_CURVE ( 'NONE', #168, #109, #290, .T. ) ;
#445 = DIRECTION ( 'NONE',  ( 0.000000000000000000, 1.000000000000000000, 0.000000000000000000 ) ) ;
#446 = ORIENTED_EDGE ( 'NONE', *, *, #354, .T. ) ;
#447 = DIRECTION ( 'NONE',  ( 1.000000000000000000, 1.040834085586084257E-16, -0.000000000000000000 ) ) ;
#448 = AXIS2_PLACEMENT_3D ( 'NONE', #681, #352, #237 ) ;
#449 = CARTESIAN_POINT ( 'NONE',  ( -5.999999999999987566, 36.00000000000000000, 9.999999999999998224 ) ) ;
#450 = CARTESIAN_POINT ( 'NONE',  ( 0.000000000000000000, 50.00000000000000000, 11.00000000000000000 ) ) ;
#451 = FACE_OUTER_BOUND ( 'NONE', #140, .T. ) ;
#452 = EDGE_CURVE ( 'NONE', #442, #139, #624, .T. ) ;
#453 = ORIENTED_EDGE ( 'NONE', *, *, #553, .T. ) ;
#454 = EDGE_LOOP ( 'NONE', ( #159, #662, #302, #581 ) ) ;
#455 = UNCERTAINTY_MEASURE_WITH_UNIT (LENGTH_MEASURE( 1.000000000000000082E-05 ), #163, 'distance_accuracy_value', 'NONE');
#456 = VECTOR ( 'NONE', #292, 1000.000000000000000 ) ;
#457 = CARTESIAN_POINT ( 'NONE',  ( 6.000000000000011546, 50.00000000000000000, 11.00000000000000000 ) ) ;
#458 = FACE_OUTER_BOUND ( 'NONE', #48, .T. ) ;
#459 = CARTESIAN_POINT ( 'NONE',  ( -1.600000000000002531, -3.787931845368764241E-49, 9.500000000000001776 ) ) ;
#460 = AXIS2_PLACEMENT_3D ( 'NONE', #148, #325, #63 ) ;
#461 = ORIENTED_EDGE ( 'NONE', *, *, #323, .T. ) ;
#462 = CARTESIAN_POINT ( 'NONE',  ( 6.000000000000012434, 38.00000000000000711, 5.500000000000000000 ) ) ;
#463 = ADVANCED_FACE ( 'NONE', ( #47, #271 ), #213, .F. ) ;
#464 = DIRECTION ( 'NONE',  ( -0.000000000000000000, -0.000000000000000000, -1.000000000000000000 ) ) ;
#465 = CARTESIAN_POINT ( 'NONE',  ( 0.000000000000000000, 50.00000000000000000, 11.00000000000000000 ) ) ;
#466 = ADVANCED_FACE ( 'NONE', ( #591 ), #437, .T. ) ;
#467 = CARTESIAN_POINT ( 'NONE',  ( 6.000000000000013323, 39.00000000000000000, 6.999999999999999112 ) ) ;
#468 = LINE ( 'NONE', #372, #491 ) ;
#469 = FACE_OUTER_BOUND ( 'NONE', #607, .T. ) ;
#470 = CARTESIAN_POINT ( 'NONE',  ( 2.262741699796966266, 50.00000000000000000, 11.00000000000000000 ) ) ;
#471 = ORIENTED_EDGE ( 'NONE', *, *, #287, .T. ) ;
#472 = ADVANCED_FACE ( 'NONE', ( #129 ), #660, .F. ) ;
#473 = CARTESIAN_POINT ( 'NONE',  ( 2.262741699796978256, 0.000000000000000000, 5.500000000000000000 ) ) ;
#474 = ORIENTED_EDGE ( 'NONE', *, *, #625, .F. ) ;
#475 = EDGE_CURVE ( 'NONE', #90, #592, #86, .T. ) ;
#476 = CARTESIAN_POINT ( 'NONE',  ( 1.131370849898477360, -1.131370849898477804, 11.00000000000000000 ) ) ;
#477 = FILL_AREA_STYLE_COLOUR ( '', #22 ) ;
#478 = DIRECTION ( 'NONE',  ( 1.040834085586084257E-16, -1.000000000000000000, 0.000000000000000000 ) ) ;
#479 = EDGE_CURVE ( 'NONE', #592, #527, #605, .T. ) ;
#480 = DIRECTION ( 'NONE',  ( 1.000000000000000000, 0.000000000000000000, 0.000000000000000000 ) ) ;
#481 = DIRECTION ( 'NONE',  ( -0.000000000000000000, -0.000000000000000000, -1.000000000000000000 ) ) ;
#482 = CYLINDRICAL_SURFACE ( 'NONE', #239, 1.000000000000000888 ) ;
#483 = ORIENTED_EDGE ( 'NONE', *, *, #402, .F. ) ;
#484 = ORIENTED_EDGE ( 'NONE', *, *, #566, .F. ) ;
#485 = ORIENTED_EDGE ( 'NONE', *, *, #28, .T. ) ;
#486 = DIRECTION ( 'NONE',  ( 0.000000000000000000, -1.000000000000000000, -6.264279218805139250E-16 ) ) ;
#487 = DIRECTION ( 'NONE',  ( 0.000000000000000000, 0.000000000000000000, 1.000000000000000000 ) ) ;
#488 = DIRECTION ( 'NONE',  ( 8.693433776747944480E-32, -6.264279218805139250E-16, 1.000000000000000000 ) ) ;
#489 =( NAMED_UNIT ( * ) PLANE_ANGLE_UNIT ( ) SI_UNIT ( $, .RADIAN. ) );
#490 = STYLED_ITEM ( 'NONE', ( #675 ), #361 ) ;
#491 = VECTOR ( 'NONE', #12, 1000.000000000000114 ) ;
#492 = CYLINDRICAL_SURFACE ( 'NONE', #360, 6.000000000000000000 ) ;
#493 = DIRECTION ( 'NONE',  ( 0.000000000000000000, -1.000000000000000000, 0.000000000000000000 ) ) ;
#494 = VERTEX_POINT ( 'NONE', #327 ) ;
#495 = DIRECTION ( 'NONE',  ( -1.040834085586084380E-16, 1.000000000000000000, -4.130293990420970006E-17 ) ) ;
#496 = LINE ( 'NONE', #186, #589 ) ;
#497 = EDGE_LOOP ( 'NONE', ( #601, #505, #273, #119 ) ) ;
#498 = ORIENTED_EDGE ( 'NONE', *, *, #674, .T. ) ;
#499 = AXIS2_PLACEMENT_3D ( 'NONE', #298, #677, #630 ) ;
#500 = CARTESIAN_POINT ( 'NONE',  ( -21.99999999999998934, 36.00000000000000000, 9.500000000000000000 ) ) ;
#501 = LINE ( 'NONE', #350, #309 ) ;
#502 = FACE_BOUND ( 'NONE', #125, .T. ) ;
#503 = VECTOR ( 'NONE', #138, 1000.000000000000000 ) ;
#504 = EDGE_CURVE ( 'NONE', #219, #285, #616, .T. ) ;
#505 = ORIENTED_EDGE ( 'NONE', *, *, #479, .F. ) ;
#506 = EDGE_LOOP ( 'NONE', ( #640, #79, #559, #201 ) ) ;
#507 = EDGE_CURVE ( 'NONE', #333, #190, #509, .T. ) ;
#508 = EDGE_CURVE ( 'NONE', #17, #442, #496, .T. ) ;
#509 = LINE ( 'NONE', #146, #259 ) ;
#510 = LINE ( 'NONE', #295, #440 ) ;
#511 = EDGE_CURVE ( 'NONE', #168, #31, #501, .T. ) ;
#512 = ORIENTED_EDGE ( 'NONE', *, *, #593, .F. ) ;
#513 = ORIENTED_EDGE ( 'NONE', *, *, #94, .F. ) ;
#514 = ORIENTED_EDGE ( 'NONE', *, *, #566, .T. ) ;
#515 = DIRECTION ( 'NONE',  ( 1.000000000000000000, 1.387778780781446169E-16, -0.000000000000000000 ) ) ;
#516 = EDGE_CURVE ( 'NONE', #139, #178, #115, .T. ) ;
#517 = CARTESIAN_POINT ( 'NONE',  ( 0.000000000000000000, 50.00000000000000000, 11.00000000000000000 ) ) ;
#518 = PLANE ( 'NONE',  #448 ) ;
#519 = CARTESIAN_POINT ( 'NONE',  ( -5.999999999999986677, 37.00000000000000711, 9.999999999999998224 ) ) ;
#520 = LINE ( 'NONE', #303, #209 ) ;
#521 = EDGE_CURVE ( 'NONE', #356, #371, #535, .T. ) ;
#522 = DIRECTION ( 'NONE',  ( -1.000000000000000000, 0.000000000000000000, 0.000000000000000000 ) ) ;
#523 = ADVANCED_FACE ( 'NONE', ( #384 ), #199, .F. ) ;
#524 = VECTOR ( 'NONE', #150, 1000.000000000000000 ) ;
#525 = LINE ( 'NONE', #343, #538 ) ;
#526 = VERTEX_POINT ( 'NONE', #362 ) ;
#527 = VERTEX_POINT ( 'NONE', #194 ) ;
#528 = ADVANCED_FACE ( 'NONE', ( #229 ), #55, .T. ) ;
#529 = PLANE ( 'NONE',  #204 ) ;
#530 = CARTESIAN_POINT ( 'NONE',  ( 1.131370849898477582, 48.86862915010152619, 11.00000000000000000 ) ) ;
#531 = CARTESIAN_POINT ( 'NONE',  ( 1.131370849898478026, 51.13137084989848091, 11.00000000000000000 ) ) ;
#532 = CARTESIAN_POINT ( 'NONE',  ( 2.262741699796966266, 50.00000000000000000, 7.000000000000006217 ) ) ;
#533 = AXIS2_PLACEMENT_3D ( 'NONE', #465, #142, #574 ) ;
#534 = APPLICATION_PROTOCOL_DEFINITION ( 'draft international standard', 'automotive_design', 1998, #254 ) ;
#535 = LINE ( 'NONE', #410, #188 ) ;
#536 = CARTESIAN_POINT ( 'NONE',  ( -5.999999999999987566, 39.00000000000000000, 5.999999999999999112 ) ) ;
#537 = APPLICATION_CONTEXT ( 'automotive_design' ) ;
#538 = VECTOR ( 'NONE', #72, 1000.000000000000000 ) ;
#539 = VERTEX_POINT ( 'NONE', #236 ) ;
#540 = ORIENTED_EDGE ( 'NONE', *, *, #612, .T. ) ;
#541 = CARTESIAN_POINT ( 'NONE',  ( -21.99999999999998224, -6.000000000000003553, 9.500000000000001776 ) ) ;
#542 = DIRECTION ( 'NONE',  ( -1.000000000000000000, 0.000000000000000000, 0.000000000000000000 ) ) ;
#543 = EDGE_CURVE ( 'NONE', #25, #606, #547, .T. ) ;
#544 = CARTESIAN_POINT ( 'NONE',  ( 6.000000000000013323, 38.00000000000000711, 6.000000000000000000 ) ) ;
#545 = CARTESIAN_POINT ( 'NONE',  ( 1.131370849898477582, 48.86862915010152619, 7.000000000000005329 ) ) ;
#546 = AXIS2_PLACEMENT_3D ( 'NONE', #274, #665, #445 ) ;
#547 = CIRCLE ( 'NONE', #533, 6.000000000000000000 ) ;
#548 = ORIENTED_EDGE ( 'NONE', *, *, #223, .T. ) ;
#549 = CARTESIAN_POINT ( 'NONE',  ( -5.999999999999987566, 38.00000000000000000, 5.999999999999999112 ) ) ;
#550 = ORIENTED_EDGE ( 'NONE', *, *, #504, .F. ) ;
#551 = EDGE_LOOP ( 'NONE', ( #579, #471, #474, #484 ) ) ;
#552 = CLOSED_SHELL ( 'NONE', ( #584, #523, #105, #626, #38, #51, #632, #472, #466, #308, #573, #463, #101, #590, #351, #147, #580, #683, #528, #415 ) ) ;
#553 = EDGE_CURVE ( 'NONE', #120, #333, #520, .T. ) ;
#554 = EDGE_CURVE ( 'NONE', #639, #16, #288, .T. ) ;
#555 = CARTESIAN_POINT ( 'NONE',  ( 0.000000000000000000, 0.000000000000000000, 5.500000000000000000 ) ) ;
#556 = VECTOR ( 'NONE', #141, 1000.000000000000000 ) ;
#557 = EDGE_LOOP ( 'NONE', ( #498, #278, #233, #291 ) ) ;
#558 = ORIENTED_EDGE ( 'NONE', *, *, #336, .T. ) ;
#559 = ORIENTED_EDGE ( 'NONE', *, *, #208, .F. ) ;
#560 = AXIS2_PLACEMENT_3D ( 'NONE', #96, #262, #52 ) ;
#561 = CIRCLE ( 'NONE', #460, 1.600000000000002309 ) ;
#562 = VERTEX_POINT ( 'NONE', #459 ) ;
#563 = STYLED_ITEM ( 'NONE', ( #286 ), #133 ) ;
#564 = ORIENTED_EDGE ( 'NONE', *, *, #686, .F. ) ;
#565 = CARTESIAN_POINT ( 'NONE',  ( -5.999999999999984901, 36.00000000000000000, 9.500000000000000000 ) ) ;
#566 = EDGE_CURVE ( 'NONE', #219, #371, #46, .T. ) ;
#567 = VECTOR ( 'NONE', #487, 1000.000000000000000 ) ;
#568 = AXIS2_PLACEMENT_3D ( 'NONE', #425, #307, #198 ) ;
#569 = DIRECTION ( 'NONE',  ( 0.000000000000000000, 0.000000000000000000, 1.000000000000000000 ) ) ;
#570 = ORIENTED_EDGE ( 'NONE', *, *, #62, .F. ) ;
#571 = DIRECTION ( 'NONE',  ( -1.000000000000000000, -1.387778780781446169E-16, 0.000000000000000000 ) ) ;
#572 = CARTESIAN_POINT ( 'NONE',  ( 1.131370849898477582, 48.86862915010152619, 11.00000000000000000 ) ) ;
#573 = ADVANCED_FACE ( 'NONE', ( #388 ), #104, .F. ) ;
#574 = DIRECTION ( 'NONE',  ( 1.000000000000000000, 0.000000000000000000, 0.000000000000000000 ) ) ;
#575 = EDGE_CURVE ( 'NONE', #293, #430, #396, .T. ) ;
#576 = LINE ( 'NONE', #449, #226 ) ;
#577 = CARTESIAN_POINT ( 'NONE',  ( -1.600000000000002309, 50.00000000000000000, 7.000000000000006217 ) ) ;
#578 = AXIS2_PLACEMENT_3D ( 'NONE', #426, #263, #54 ) ;
#579 = ORIENTED_EDGE ( 'NONE', *, *, #504, .T. ) ;
#580 = ADVANCED_FACE ( 'NONE', ( #2 ), #106, .T. ) ;
#581 = ORIENTED_EDGE ( 'NONE', *, *, #508, .F. ) ;
#582 = VERTEX_POINT ( 'NONE', #594 ) ;
#583 = DIRECTION ( 'NONE',  ( 0.000000000000000000, -1.000000000000000000, -5.421010862427508365E-16 ) ) ;
#584 = ADVANCED_FACE ( 'NONE', ( #685 ), #107, .F. ) ;
#585 = CARTESIAN_POINT ( 'NONE',  ( 0.000000000000000000, 50.00000000000000000, 7.000000000000006217 ) ) ;
#586 = DIRECTION ( 'NONE',  ( 0.000000000000000000, -1.000000000000000000, -5.421010862427508365E-16 ) ) ;
#587 = DIRECTION ( 'NONE',  ( 0.000000000000000000, -1.000000000000000000, -5.782411586589358625E-16 ) ) ;
#588 = FILL_AREA_STYLE ('',( #477 ) ) ;
#589 = VECTOR ( 'NONE', #413, 1000.000000000000000 ) ;
#590 = ADVANCED_FACE ( 'NONE', ( #636 ), #316, .F. ) ;
#591 = FACE_OUTER_BOUND ( 'NONE', #346, .T. ) ;
#592 = VERTEX_POINT ( 'NONE', #420 ) ;
#593 = EDGE_CURVE ( 'NONE', #178, #31, #121, .T. ) ;
#594 = CARTESIAN_POINT ( 'NONE',  ( -5.999999999999986677, 36.00000000000000000, 9.999999999999998224 ) ) ;
#595 = DIRECTION ( 'NONE',  ( 8.693433776747944480E-32, -6.264279218805139250E-16, 1.000000000000000000 ) ) ;
#596 = ORIENTED_EDGE ( 'NONE', *, *, #300, .T. ) ;
#597 = DIRECTION ( 'NONE',  ( 0.000000000000000000, 1.000000000000000000, 0.000000000000000000 ) ) ;
#598 = CARTESIAN_POINT ( 'NONE',  ( -5.999999999999987566, 38.00000000000000000, 11.00000000000000000 ) ) ;
#599 = CARTESIAN_POINT ( 'NONE',  ( 1.131370849898478026, 51.13137084989848091, 7.000000000000007105 ) ) ;
#600 = CIRCLE ( 'NONE', #613, 1.600000000000002309 ) ;
#601 = ORIENTED_EDGE ( 'NONE', *, *, #332, .F. ) ;
#602 = DIRECTION ( 'NONE',  ( 0.7071067811865510144, 0.7071067811865441310, 4.429514314863060136E-16 ) ) ;
#603 = AXIS2_PLACEMENT_3D ( 'NONE', #40, #673, #305 ) ;
#604 = FACE_OUTER_BOUND ( 'NONE', #172, .T. ) ;
#605 = LINE ( 'NONE', #672, #19 ) ;
#606 = VERTEX_POINT ( 'NONE', #429 ) ;
#607 = EDGE_LOOP ( 'NONE', ( #382, #73, #341, #669 ) ) ;
#608 = CARTESIAN_POINT ( 'NONE',  ( 1.131370849898477804, 1.131370849898477804, 9.500000000000001776 ) ) ;
#609 = VECTOR ( 'NONE', #495, 1000.000000000000000 ) ;
#610 = FACE_OUTER_BOUND ( 'NONE', #232, .T. ) ;
#611 = ORIENTED_EDGE ( 'NONE', *, *, #181, .F. ) ;
#612 = EDGE_CURVE ( 'NONE', #430, #219, #217, .T. ) ;
#613 = AXIS2_PLACEMENT_3D ( 'NONE', #337, #666, #27 ) ;
#614 = DIRECTION ( 'NONE',  ( -1.000000000000000000, -1.387778780781446169E-16, -0.000000000000000000 ) ) ;
#615 = FACE_OUTER_BOUND ( 'NONE', #265, .T. ) ;
#616 = CIRCLE ( 'NONE', #499, 1.600000000000002309 ) ;
#617 = ORIENTED_EDGE ( 'NONE', *, *, #300, .F. ) ;
#618 = EDGE_LOOP ( 'NONE', ( #103, #88, #26, #441 ) ) ;
#619 = DIRECTION ( 'NONE',  ( 1.480861503882640347E-16, -1.000000000000000000, -0.000000000000000000 ) ) ;
#620 = EDGE_CURVE ( 'NONE', #526, #183, #224, .T. ) ;
#621 = DIRECTION ( 'NONE',  ( -0.000000000000000000, -0.000000000000000000, -1.000000000000000000 ) ) ;
#622 = CARTESIAN_POINT ( 'NONE',  ( -21.99999999999998934, 38.00000000000000000, 5.500000000000000000 ) ) ;
#623 = CARTESIAN_POINT ( 'NONE',  ( 6.000000000000012434, 39.00000000000000711, 5.999999999999999112 ) ) ;
#624 = LINE ( 'NONE', #270, #322 ) ;
#625 = EDGE_CURVE ( 'NONE', #371, #639, #65, .T. ) ;
#626 = ADVANCED_FACE ( 'NONE', ( #604, #345 ), #202, .T. ) ;
#627 = FACE_OUTER_BOUND ( 'NONE', #41, .T. ) ;
#628 = CARTESIAN_POINT ( 'NONE',  ( 6.000000000000018652, 8.673617379884035472E-16, 9.500000000000001776 ) ) ;
#629 = ORIENTED_EDGE ( 'NONE', *, *, #53, .F. ) ;
#630 = DIRECTION ( 'NONE',  ( 1.000000000000000000, 0.000000000000000000, 0.000000000000000000 ) ) ;
#631 = ORIENTED_EDGE ( 'NONE', *, *, #593, .T. ) ;
#632 = ADVANCED_FACE ( 'NONE', ( #375 ), #529, .F. ) ;
#633 = PRODUCT_DEFINITION_FORMATION_WITH_SPECIFIED_SOURCE ( '任何', '', #412, .NOT_KNOWN. ) ;
#634 = CARTESIAN_POINT ( 'NONE',  ( 6.000000000000013323, 37.00000000000000711, 11.00000000000000000 ) ) ;
#635 =( NAMED_UNIT ( * ) PLANE_ANGLE_UNIT ( ) SI_UNIT ( $, .RADIAN. ) );
#636 = FACE_OUTER_BOUND ( 'NONE', #250, .T. ) ;
#637 = CARTESIAN_POINT ( 'NONE',  ( 2.262741699796966266, 50.00000000000000000, 11.00000000000000000 ) ) ;
#638 = DIRECTION ( 'NONE',  ( -0.000000000000000000, -0.000000000000000000, -1.000000000000000000 ) ) ;
#639 = VERTEX_POINT ( 'NONE', #577 ) ;
#640 = ORIENTED_EDGE ( 'NONE', *, *, #658, .F. ) ;
#641 = CARTESIAN_POINT ( 'NONE',  ( 0.000000000000000000, 50.00000000000000000, 7.000000000000006217 ) ) ;
#642 = DIRECTION ( 'NONE',  ( -0.7071067811865403563, -0.7071067811865547892, 0.000000000000000000 ) ) ;
#643 = AXIS2_PLACEMENT_3D ( 'NONE', #244, #571, #36 ) ;
#644 = DIRECTION ( 'NONE',  ( -0.7071067811865507924, 0.7071067811865441310, 0.000000000000000000 ) ) ;
#645 = CARTESIAN_POINT ( 'NONE',  ( -5.999999999999988454, 50.00000000000000000, 7.000000000000006217 ) ) ;
#646 = LINE ( 'NONE', #473, #405 ) ;
#647 = DIRECTION ( 'NONE',  ( -0.7071067811865510144, -0.7071067811865441310, 0.000000000000000000 ) ) ;
#648 = ORIENTED_EDGE ( 'NONE', *, *, #359, .F. ) ;
#649 = ORIENTED_EDGE ( 'NONE', *, *, #135, .T. ) ;
#650 = DIRECTION ( 'NONE',  ( 0.000000000000000000, 0.000000000000000000, -1.000000000000000000 ) ) ;
#651 = CARTESIAN_POINT ( 'NONE',  ( 2.262741699796978256, -3.097720492815661099E-17, 9.500000000000001776 ) ) ;
#652 = CARTESIAN_POINT ( 'NONE',  ( -6.000000000000000888, 7.347880794884120722E-16, 5.500000000000000000 ) ) ;
#653 = AXIS2_PLACEMENT_3D ( 'NONE', #555, #228, #659 ) ;
#654 = VECTOR ( 'NONE', #679, 1000.000000000000000 ) ;
#655 = ORIENTED_EDGE ( 'NONE', *, *, #181, .T. ) ;
#656 = ORIENTED_EDGE ( 'NONE', *, *, #255, .T. ) ;
#657 = EDGE_LOOP ( 'NONE', ( #400, #203, #102, #111 ) ) ;
#658 = EDGE_CURVE ( 'NONE', #582, #294, #246, .T. ) ;
#659 = DIRECTION ( 'NONE',  ( 1.000000000000000000, 0.000000000000000000, 0.000000000000000000 ) ) ;
#660 = CYLINDRICAL_SURFACE ( 'NONE', #281, 1.600000000000002309 ) ;
#661 = CIRCLE ( 'NONE', #149, 1.000000000000000888 ) ;
#662 = ORIENTED_EDGE ( 'NONE', *, *, #507, .F. ) ;
#663 = AXIS2_PLACEMENT_3D ( 'NONE', #401, #403, #230 ) ;
#664 = ORIENTED_EDGE ( 'NONE', *, *, #154, .T. ) ;
#665 = DIRECTION ( 'NONE',  ( 5.731934358295347016E-33, -4.130293990420970006E-17, -1.000000000000000000 ) ) ;
#666 = DIRECTION ( 'NONE',  ( 5.731934358295347016E-33, -4.130293990420970006E-17, -1.000000000000000000 ) ) ;
#667 = ORIENTED_EDGE ( 'NONE', *, *, #620, .F. ) ;
#668 = ORIENTED_EDGE ( 'NONE', *, *, #377, .F. ) ;
#669 = ORIENTED_EDGE ( 'NONE', *, *, #543, .F. ) ;
#670 = CARTESIAN_POINT ( 'NONE',  ( 6.000000000000011546, 50.00000000000000000, 7.000000000000002665 ) ) ;
#671 = CARTESIAN_POINT ( 'NONE',  ( -5.999999999999986677, 36.00000000000000000, 11.00000000000000000 ) ) ;
#672 = CARTESIAN_POINT ( 'NONE',  ( 2.262741699796978256, 0.000000000000000000, 11.00000000000000000 ) ) ;
#673 = DIRECTION ( 'NONE',  ( -0.7071067811865404673, 0.7071067811865545671, 0.000000000000000000 ) ) ;
#674 = EDGE_CURVE ( 'NONE', #592, #494, #329, .T. ) ;
#675 = PRESENTATION_STYLE_ASSIGNMENT (( #373 ) ) ;
#676 = AXIS2_PLACEMENT_3D ( 'NONE', #519, #35, #144 ) ;
#677 = DIRECTION ( 'NONE',  ( 0.000000000000000000, 0.000000000000000000, 1.000000000000000000 ) ) ;
#678 = VERTEX_POINT ( 'NONE', #297 ) ;
#679 = DIRECTION ( 'NONE',  ( -0.000000000000000000, -0.000000000000000000, -1.000000000000000000 ) ) ;
#680 = CARTESIAN_POINT ( 'NONE',  ( 6.000000000000013323, 37.00000000000000711, 11.00000000000000000 ) ) ;
#681 = CARTESIAN_POINT ( 'NONE',  ( 2.262741699796966266, 50.00000000000000000, 11.00000000000000000 ) ) ;
#682 = CARTESIAN_POINT ( 'NONE',  ( -5.999999999999987566, 39.00000000000000000, 6.999999999999999112 ) ) ;
#683 = ADVANCED_FACE ( 'NONE', ( #615 ), #192, .T. ) ;
#684 = DIRECTION ( 'NONE',  ( 1.000000000000000000, 1.387778780781445676E-16, -0.000000000000000000 ) ) ;
#685 = FACE_OUTER_BOUND ( 'NONE', #118, .T. ) ;
#686 = EDGE_CURVE ( 'NONE', #539, #678, #155, .T. ) ;
#687 = ORIENTED_EDGE ( 'NONE', *, *, #312, .F. ) ;
#688 = ORIENTED_EDGE ( 'NONE', *, *, #452, .T. ) ;
ENDSEC;
END-ISO-10303-21;
