ISO-10303-21;
HEADER;
FILE_DESCRIPTION (( 'STEP AP214' ),
    '1' );
FILE_NAME ('验证底板.STEP',
    '2026-07-29T06:30:08',
    ( 'HXX' ),
    ( '' ),
    'SwSTEP 2.0',
    'SolidWorks 2018',
    '' );
FILE_SCHEMA (( 'AUTOMOTIVE_DESIGN' ));
ENDSEC;

DATA;
#1 = ORIENTED_EDGE ( 'NONE', *, *, #75, .T. ) ;
#2 = CARTESIAN_POINT ( 'NONE',  ( 1.965601422281432726E-14, 5.000000000000000000, 19.99999999999998934 ) ) ;
#3 = CARTESIAN_POINT ( 'NONE',  ( 1.965601422281432726E-14, 5.000000000000000000, -21.59999999999999076 ) ) ;
#4 = CIRCLE ( 'NONE', #746, 1.600000000000000755 ) ;
#5 = VECTOR ( 'NONE', #663, 1000.000000000000000 ) ;
#6 = EDGE_LOOP ( 'NONE', ( #371, #529, #555, #768 ) ) ;
#7 = DIRECTION ( 'NONE',  ( -1.000000000000000000, 0.000000000000000000, 0.000000000000000000 ) ) ;
#8 = ADVANCED_FACE ( 'NONE', ( #96 ), #9, .F. ) ;
#9 = PLANE ( 'NONE',  #588 ) ;
#10 = PLANE ( 'NONE',  #150 ) ;
#11 = ORIENTED_EDGE ( 'NONE', *, *, #304, .F. ) ;
#12 = VERTEX_POINT ( 'NONE', #775 ) ;
#13 = DIRECTION ( 'NONE',  ( -0.000000000000000000, -1.000000000000000000, -0.000000000000000000 ) ) ;
#14 =( LENGTH_UNIT ( ) NAMED_UNIT ( * ) SI_UNIT ( .MILLI., .METRE. ) );
#15 = CIRCLE ( 'NONE', #381, 1.599999999999990319 ) ;
#16 = CARTESIAN_POINT ( 'NONE',  ( 1.985195771067790097E-14, 0.000000000000000000, 21.59999999999999076 ) ) ;
#17 = ORIENTED_EDGE ( 'NONE', *, *, #725, .T. ) ;
#18 = ORIENTED_EDGE ( 'NONE', *, *, #598, .T. ) ;
#19 = DIRECTION ( 'NONE',  ( 0.000000000000000000, 0.000000000000000000, -1.000000000000000000 ) ) ;
#20 = PLANE ( 'NONE',  #52 ) ;
#21 = DIRECTION ( 'NONE',  ( 4.625929269271485914E-16, 0.000000000000000000, 1.000000000000000000 ) ) ;
#22 = ORIENTED_EDGE ( 'NONE', *, *, #94, .T. ) ;
#23 = CARTESIAN_POINT ( 'NONE',  ( 1.965601422281432726E-14, 0.000000000000000000, -19.99999999999998934 ) ) ;
#24 = ADVANCED_FACE ( 'NONE', ( #579 ), #420, .F. ) ;
#25 = FACE_BOUND ( 'NONE', #473, .T. ) ;
#26 = AXIS2_PLACEMENT_3D ( 'NONE', #670, #310, #502 ) ;
#27 = VERTEX_POINT ( 'NONE', #423 ) ;
#28 = CARTESIAN_POINT ( 'NONE',  ( 1.985195771067790097E-14, 5.000000000000000000, 21.59999999999999076 ) ) ;
#29 = ORIENTED_EDGE ( 'NONE', *, *, #140, .F. ) ;
#30 = SURFACE_STYLE_FILL_AREA ( #621 ) ;
#31 = VERTEX_POINT ( 'NONE', #63 ) ;
#32 = EDGE_CURVE ( 'NONE', #607, #425, #109, .T. ) ;
#33 = LINE ( 'NONE', #153, #484 ) ;
#34 = CARTESIAN_POINT ( 'NONE',  ( -9.999999999999978684, 0.000000000000000000, -35.00000000000000000 ) ) ;
#35 = EDGE_CURVE ( 'NONE', #705, #262, #213, .T. ) ;
#36 = EDGE_LOOP ( 'NONE', ( #141, #333, #700, #459 ) ) ;
#37 = AXIS2_PLACEMENT_3D ( 'NONE', #47, #464, #394 ) ;
#38 = PRODUCT ( '验证底板', '验证底板', '', ( #431 ) ) ;
#39 = EDGE_CURVE ( 'NONE', #375, #267, #51, .T. ) ;
#40 = VERTEX_POINT ( 'NONE', #666 ) ;
#41 = LINE ( 'NONE', #467, #461 ) ;
#42 = FACE_BOUND ( 'NONE', #269, .T. ) ;
#43 = AXIS2_PLACEMENT_3D ( 'NONE', #677, #72, #672 ) ;
#44 = ORIENTED_EDGE ( 'NONE', *, *, #652, .T. ) ;
#45 = AXIS2_PLACEMENT_3D ( 'NONE', #177, #547, #534 ) ;
#46 = EDGE_CURVE ( 'NONE', #644, #635, #765, .T. ) ;
#47 = CARTESIAN_POINT ( 'NONE',  ( 172.0000000000000284, 5.000000000000000000, -28.99999999999999645 ) ) ;
#48 = EDGE_LOOP ( 'NONE', ( #346, #226 ) ) ;
#49 = CYLINDRICAL_SURFACE ( 'NONE', #373, 1.599999999999990319 ) ;
#50 = DIRECTION ( 'NONE',  ( 0.000000000000000000, 1.000000000000000000, 0.000000000000000000 ) ) ;
#51 = CIRCLE ( 'NONE', #43, 1.599999999999990319 ) ;
#52 = AXIS2_PLACEMENT_3D ( 'NONE', #259, #509, #511 ) ;
#53 = DIRECTION ( 'NONE',  ( 0.000000000000000000, 0.000000000000000000, 1.000000000000000000 ) ) ;
#54 = DIRECTION ( 'NONE',  ( 1.000000000000000000, 0.000000000000000000, 0.000000000000000000 ) ) ;
#55 = CARTESIAN_POINT ( 'NONE',  ( 167.0000000000000284, 5.000000000000000000, -65.00000000000000000 ) ) ;
#56 = CARTESIAN_POINT ( 'NONE',  ( 1.985195771067790097E-14, 5.000000000000000000, 21.59999999999999076 ) ) ;
#57 = PLANE ( 'NONE',  #576 ) ;
#58 = VECTOR ( 'NONE', #401, 1000.000000000000000 ) ;
#59 = DIRECTION ( 'NONE',  ( 0.000000000000000000, 0.000000000000000000, -1.000000000000000000 ) ) ;
#60 = DIRECTION ( 'NONE',  ( -0.000000000000000000, -1.000000000000000000, -0.000000000000000000 ) ) ;
#61 = DIRECTION ( 'NONE',  ( 0.000000000000000000, 1.000000000000000000, 0.000000000000000000 ) ) ;
#62 = VERTEX_POINT ( 'NONE', #566 ) ;
#63 = CARTESIAN_POINT ( 'NONE',  ( 228.0000000000000284, 0.000000000000000000, -27.40000000000000924 ) ) ;
#64 = CARTESIAN_POINT ( 'NONE',  ( 1.985195771067790097E-14, 5.000000000000000000, -18.39999999999998792 ) ) ;
#65 = ADVANCED_FACE ( 'NONE', ( #717 ), #452, .F. ) ;
#66 = DIRECTION ( 'NONE',  ( -0.000000000000000000, -1.000000000000000000, -0.000000000000000000 ) ) ;
#67 = ORIENTED_EDGE ( 'NONE', *, *, #345, .F. ) ;
#68 = APPLICATION_PROTOCOL_DEFINITION ( 'draft international standard', 'automotive_design', 1998, #378 ) ;
#69 = ORIENTED_EDGE ( 'NONE', *, *, #182, .T. ) ;
#70 = DIRECTION ( 'NONE',  ( 0.000000000000000000, 0.000000000000000000, 1.000000000000000000 ) ) ;
#71 = LINE ( 'NONE', #184, #620 ) ;
#72 = DIRECTION ( 'NONE',  ( 0.000000000000000000, 1.000000000000000000, 0.000000000000000000 ) ) ;
#73 = VERTEX_POINT ( 'NONE', #377 ) ;
#74 = ORIENTED_EDGE ( 'NONE', *, *, #101, .T. ) ;
#75 = EDGE_CURVE ( 'NONE', #505, #439, #443, .T. ) ;
#76 = DIRECTION ( 'NONE',  ( -0.000000000000000000, -1.000000000000000000, -0.000000000000000000 ) ) ;
#77 = CARTESIAN_POINT ( 'NONE',  ( -9.999999999999978684, 5.000000000000000000, -35.00000000000000000 ) ) ;
#78 = DIRECTION ( 'NONE',  ( 0.000000000000000000, 1.000000000000000000, 0.000000000000000000 ) ) ;
#79 = DIRECTION ( 'NONE',  ( -1.000000000000000000, -0.000000000000000000, -0.000000000000000000 ) ) ;
#80 = CYLINDRICAL_SURFACE ( 'NONE', #553, 1.600000000000000755 ) ;
#81 = FACE_BOUND ( 'NONE', #204, .T. ) ;
#82 = EDGE_LOOP ( 'NONE', ( #189, #512 ) ) ;
#83 = SURFACE_STYLE_USAGE ( .BOTH. , #325 ) ;
#84 = PRESENTATION_LAYER_ASSIGNMENT (  '', '', ( #348 ) ) ;
#85 = VERTEX_POINT ( 'NONE', #314 ) ;
#86 = EDGE_CURVE ( 'NONE', #653, #483, #260, .T. ) ;
#87 = EDGE_LOOP ( 'NONE', ( #664, #400, #444, #397 ) ) ;
#88 = FACE_OUTER_BOUND ( 'NONE', #36, .T. ) ;
#89 = ORIENTED_EDGE ( 'NONE', *, *, #488, .F. ) ;
#90 = VECTOR ( 'NONE', #357, 1000.000000000000000 ) ;
#91 = AXIS2_PLACEMENT_3D ( 'NONE', #366, #59, #544 ) ;
#92 = LINE ( 'NONE', #627, #667 ) ;
#93 = ORIENTED_EDGE ( 'NONE', *, *, #751, .F. ) ;
#94 = EDGE_CURVE ( 'NONE', #403, #27, #399, .T. ) ;
#95 = UNCERTAINTY_MEASURE_WITH_UNIT (LENGTH_MEASURE( 1.000000000000000082E-05 ), #328, 'distance_accuracy_value', 'NONE');
#96 = FACE_OUTER_BOUND ( 'NONE', #465, .T. ) ;
#97 = VERTEX_POINT ( 'NONE', #562 ) ;
#98 = CARTESIAN_POINT ( 'NONE',  ( 172.0000000000000284, 0.000000000000000000, -45.59999999999998721 ) ) ;
#99 = CARTESIAN_POINT ( 'NONE',  ( 228.0000000000000284, 5.000000000000000000, -30.59999999999998721 ) ) ;
#100 = VECTOR ( 'NONE', #234, 1000.000000000000000 ) ;
#101 = EDGE_CURVE ( 'NONE', #62, #359, #710, .T. ) ;
#102 = DIRECTION ( 'NONE',  ( -0.000000000000000000, -1.000000000000000000, -0.000000000000000000 ) ) ;
#103 = DIRECTION ( 'NONE',  ( -0.000000000000000000, -1.000000000000000000, -0.000000000000000000 ) ) ;
#104 = EDGE_LOOP ( 'NONE', ( #613, #287 ) ) ;
#105 = ORIENTED_EDGE ( 'NONE', *, *, #405, .F. ) ;
#106 = LINE ( 'NONE', #634, #715 ) ;
#107 = FACE_BOUND ( 'NONE', #759, .T. ) ;
#108 = EDGE_CURVE ( 'NONE', #762, #191, #406, .T. ) ;
#109 = CIRCLE ( 'NONE', #628, 1.600000000000000755 ) ;
#110 = DIRECTION ( 'NONE',  ( 1.000000000000000000, 0.000000000000000000, -0.000000000000000000 ) ) ;
#111 = ORIENTED_EDGE ( 'NONE', *, *, #761, .F. ) ;
#112 = CARTESIAN_POINT ( 'NONE',  ( 232.0000000000000000, 0.000000000000000000, -15.00000000000000000 ) ) ;
#113 = DIRECTION ( 'NONE',  ( 0.000000000000000000, 0.000000000000000000, -1.000000000000000000 ) ) ;
#114 = PLANE ( 'NONE',  #538 ) ;
#115 = AXIS2_PLACEMENT_3D ( 'NONE', #770, #180, #176 ) ;
#116 = DIRECTION ( 'NONE',  ( 0.000000000000000000, 1.000000000000000000, -0.000000000000000000 ) ) ;
#117 = ORIENTED_EDGE ( 'NONE', *, *, #550, .T. ) ;
#118 = VECTOR ( 'NONE', #495, 1000.000000000000000 ) ;
#119 = EDGE_LOOP ( 'NONE', ( #575, #567 ) ) ;
#120 = EDGE_CURVE ( 'NONE', #85, #514, #430, .T. ) ;
#121 = ADVANCED_BREP_SHAPE_REPRESENTATION ( '验证底板', ( #524, #708 ), #605 ) ;
#122 =( LENGTH_UNIT ( ) NAMED_UNIT ( * ) SI_UNIT ( .MILLI., .METRE. ) );
#123 = ADVANCED_FACE ( 'NONE', ( #88 ), #678, .F. ) ;
#124 = DIRECTION ( 'NONE',  ( 0.000000000000000000, 0.000000000000000000, -1.000000000000000000 ) ) ;
#125 = CARTESIAN_POINT ( 'NONE',  ( 1.965601422281432726E-14, 0.000000000000000000, -19.99999999999998934 ) ) ;
#126 = CARTESIAN_POINT ( 'NONE',  ( 20.00000000000001066, 5.000000000000000000, 35.00000000000000000 ) ) ;
#127 = EDGE_LOOP ( 'NONE', ( #235, #208, #167, #297 ) ) ;
#128 = PRESENTATION_STYLE_ASSIGNMENT (( #251 ) ) ;
#129 = AXIS2_PLACEMENT_3D ( 'NONE', #578, #383, #148 ) ;
#130 = CARTESIAN_POINT ( 'NONE',  ( 172.0000000000000284, 5.000000000000000000, -30.59999999999998721 ) ) ;
#131 = LINE ( 'NONE', #573, #292 ) ;
#132 = VECTOR ( 'NONE', #675, 1000.000000000000000 ) ;
#133 = CARTESIAN_POINT ( 'NONE',  ( 167.0000000000000284, 5.000000000000000000, -65.00000000000000000 ) ) ;
#134 = EDGE_LOOP ( 'NONE', ( #689, #694, #362, #22 ) ) ;
#135 = ORIENTED_EDGE ( 'NONE', *, *, #32, .T. ) ;
#136 = DIRECTION ( 'NONE',  ( 0.000000000000000000, 0.000000000000000000, 1.000000000000000000 ) ) ;
#137 = DIRECTION ( 'NONE',  ( 0.000000000000000000, 1.000000000000000000, 0.000000000000000000 ) ) ;
#138 = ADVANCED_FACE ( 'NONE', ( #245 ), #716, .F. ) ;
#139 = CARTESIAN_POINT ( 'NONE',  ( 1.965601422281432726E-14, 5.000000000000000000, 18.39999999999998792 ) ) ;
#140 = EDGE_CURVE ( 'NONE', #12, #359, #517, .T. ) ;
#141 = ORIENTED_EDGE ( 'NONE', *, *, #190, .T. ) ;
#142 = LINE ( 'NONE', #34, #384 ) ;
#143 = VERTEX_POINT ( 'NONE', #539 ) ;
#144 = FACE_OUTER_BOUND ( 'NONE', #6, .T. ) ;
#145 = DIRECTION ( 'NONE',  ( 0.000000000000000000, 0.000000000000000000, 1.000000000000000000 ) ) ;
#146 = VECTOR ( 'NONE', #301, 1000.000000000000000 ) ;
#147 = ORIENTED_EDGE ( 'NONE', *, *, #493, .T. ) ;
#148 = DIRECTION ( 'NONE',  ( 0.000000000000000000, 0.000000000000000000, -1.000000000000000000 ) ) ;
#149 = AXIS2_PLACEMENT_3D ( 'NONE', #617, #250, #372 ) ;
#150 = AXIS2_PLACEMENT_3D ( 'NONE', #422, #565, #188 ) ;
#151 = CARTESIAN_POINT ( 'NONE',  ( 172.0000000000000284, 5.000000000000000000, -44.00000000000000000 ) ) ;
#152 = ORIENTED_EDGE ( 'NONE', *, *, #590, .T. ) ;
#153 = CARTESIAN_POINT ( 'NONE',  ( 20.00000000000001066, 5.000000000000000000, -15.00000000000000000 ) ) ;
#154 = EDGE_CURVE ( 'NONE', #191, #262, #351, .T. ) ;
#155 = VECTOR ( 'NONE', #221, 1000.000000000000000 ) ;
#156 = VECTOR ( 'NONE', #79, 1000.000000000000000 ) ;
#157 = ORIENTED_EDGE ( 'NONE', *, *, #701, .F. ) ;
#158 = EDGE_LOOP ( 'NONE', ( #253, #69, #74, #29 ) ) ;
#159 = EDGE_CURVE ( 'NONE', #589, #387, #244, .T. ) ;
#160 = AXIS2_PLACEMENT_3D ( 'NONE', #433, #379, #70 ) ;
#161 = EDGE_LOOP ( 'NONE', ( #254, #349, #773, #93 ) ) ;
#162 = COLOUR_RGB ( '',0.8784313725490195957, 0.7254901960784313486, 0.7647058823529411242 ) ;
#163 = AXIS2_PLACEMENT_3D ( 'NONE', #273, #201, #324 ) ;
#164 = FACE_OUTER_BOUND ( 'NONE', #729, .T. ) ;
#165 = ORIENTED_EDGE ( 'NONE', *, *, #531, .F. ) ;
#166 = DIRECTION ( 'NONE',  ( -0.000000000000000000, -1.000000000000000000, -0.000000000000000000 ) ) ;
#167 = ORIENTED_EDGE ( 'NONE', *, *, #643, .F. ) ;
#168 = CARTESIAN_POINT ( 'NONE',  ( -9.999999999999978684, 5.000000000000000000, 35.00000000000000000 ) ) ;
#169 = CARTESIAN_POINT ( 'NONE',  ( 228.0000000000000284, 5.000000000000000000, -44.00000000000000000 ) ) ;
#170 = UNCERTAINTY_MEASURE_WITH_UNIT (LENGTH_MEASURE( 1.000000000000000082E-05 ), #122, 'distance_accuracy_value', 'NONE');
#171 = LINE ( 'NONE', #56, #211 ) ;
#172 = MECHANICAL_DESIGN_GEOMETRIC_PRESENTATION_REPRESENTATION (  '', ( #348 ), #216 ) ;
#173 = CARTESIAN_POINT ( 'NONE',  ( 167.0000000000000284, 5.000000000000000000, -35.00000000000000000 ) ) ;
#174 = EDGE_LOOP ( 'NONE', ( #407, #382, #117, #424, #560, #619, #519, #752 ) ) ;
#175 = DIRECTION ( 'NONE',  ( -0.000000000000000000, -1.000000000000000000, -0.000000000000000000 ) ) ;
#176 = DIRECTION ( 'NONE',  ( 0.000000000000000000, 0.000000000000000000, -1.000000000000000000 ) ) ;
#177 = CARTESIAN_POINT ( 'NONE',  ( -9.999999999999978684, 5.000000000000000000, -35.00000000000000000 ) ) ;
#178 = ORIENTED_EDGE ( 'NONE', *, *, #462, .T. ) ;
#179 = LINE ( 'NONE', #347, #155 ) ;
#180 = DIRECTION ( 'NONE',  ( 0.000000000000000000, 1.000000000000000000, -0.000000000000000000 ) ) ;
#181 = FACE_OUTER_BOUND ( 'NONE', #174, .T. ) ;
#182 = EDGE_CURVE ( 'NONE', #658, #62, #386, .T. ) ;
#183 = VECTOR ( 'NONE', #103, 1000.000000000000000 ) ;
#184 = CARTESIAN_POINT ( 'NONE',  ( -9.999999999999978684, 5.000000000000000000, -35.00000000000000000 ) ) ;
#185 = ADVANCED_FACE ( 'NONE', ( #640 ), #114, .F. ) ;
#186 = CARTESIAN_POINT ( 'NONE',  ( 172.0000000000000284, 0.000000000000000000, -27.40000000000000924 ) ) ;
#187 = EDGE_LOOP ( 'NONE', ( #520, #489 ) ) ;
#188 = DIRECTION ( 'NONE',  ( 0.000000000000000000, -0.000000000000000000, 1.000000000000000000 ) ) ;
#189 = ORIENTED_EDGE ( 'NONE', *, *, #733, .T. ) ;
#190 = EDGE_CURVE ( 'NONE', #62, #658, #15, .T. ) ;
#191 = VERTEX_POINT ( 'NONE', #413 ) ;
#192 = CARTESIAN_POINT ( 'NONE',  ( 228.0000000000000284, 5.000000000000000000, -45.59999999999998721 ) ) ;
#193 = SURFACE_SIDE_STYLE ('',( #30 ) ) ;
#194 = AXIS2_PLACEMENT_3D ( 'NONE', #720, #175, #474 ) ;
#195 = ADVANCED_FACE ( 'NONE', ( #612 ), #57, .F. ) ;
#196 = DIRECTION ( 'NONE',  ( -0.000000000000000000, -1.000000000000000000, -0.000000000000000000 ) ) ;
#197 = CARTESIAN_POINT ( 'NONE',  ( 232.0000000000000000, 5.000000000000000000, -15.00000000000000000 ) ) ;
#198 = EDGE_CURVE ( 'NONE', #73, #570, #395, .T. ) ;
#199 = ADVANCED_FACE ( 'NONE', ( #516 ), #478, .F. ) ;
#200 = ORIENTED_EDGE ( 'NONE', *, *, #288, .T. ) ;
#201 = DIRECTION ( 'NONE',  ( -0.000000000000000000, -1.000000000000000000, -0.000000000000000000 ) ) ;
#202 = LINE ( 'NONE', #526, #772 ) ;
#203 = LINE ( 'NONE', #438, #457 ) ;
#204 = EDGE_LOOP ( 'NONE', ( #147, #494 ) ) ;
#205 = DIRECTION ( 'NONE',  ( 0.000000000000000000, 0.000000000000000000, 1.000000000000000000 ) ) ;
#206 = CARTESIAN_POINT ( 'NONE',  ( 232.0000000000000000, 0.000000000000000000, -65.00000000000000000 ) ) ;
#207 = EDGE_CURVE ( 'NONE', #706, #514, #592, .T. ) ;
#208 = ORIENTED_EDGE ( 'NONE', *, *, #198, .F. ) ;
#209 = CIRCLE ( 'NONE', #26, 1.599999999999990319 ) ;
#210 = VERTEX_POINT ( 'NONE', #77 ) ;
#211 = VECTOR ( 'NONE', #416, 1000.000000000000000 ) ;
#212 = DIRECTION ( 'NONE',  ( -4.625929269271485914E-16, 0.000000000000000000, -1.000000000000000000 ) ) ;
#213 = CIRCLE ( 'NONE', #261, 1.600000000000000755 ) ;
#214 = ORIENTED_EDGE ( 'NONE', *, *, #271, .T. ) ;
#215 = CARTESIAN_POINT ( 'NONE',  ( 1.965601422281432726E-14, 0.000000000000000000, 19.99999999999998934 ) ) ;
#216 =( GEOMETRIC_REPRESENTATION_CONTEXT ( 3 ) GLOBAL_UNCERTAINTY_ASSIGNED_CONTEXT ( ( #95 ) ) GLOBAL_UNIT_ASSIGNED_CONTEXT ( ( #328, #337, #275 ) ) REPRESENTATION_CONTEXT ( 'NONE', 'WORKASPACE' ) );
#217 = FACE_OUTER_BOUND ( 'NONE', #239, .T. ) ;
#218 = VECTOR ( 'NONE', #563, 1000.000000000000000 ) ;
#219 = EDGE_LOOP ( 'NONE', ( #339, #277 ) ) ;
#220 = EDGE_CURVE ( 'NONE', #143, #724, #463, .T. ) ;
#221 = DIRECTION ( 'NONE',  ( 0.000000000000000000, 0.000000000000000000, 1.000000000000000000 ) ) ;
#222 = ORIENTED_EDGE ( 'NONE', *, *, #190, .F. ) ;
#223 = ORIENTED_EDGE ( 'NONE', *, *, #462, .F. ) ;
#224 = CIRCLE ( 'NONE', #614, 1.599999999999990319 ) ;
#225 = ORIENTED_EDGE ( 'NONE', *, *, #380, .T. ) ;
#226 = ORIENTED_EDGE ( 'NONE', *, *, #35, .T. ) ;
#227 = DIRECTION ( 'NONE',  ( 0.000000000000000000, 0.000000000000000000, 1.000000000000000000 ) ) ;
#228 = DIRECTION ( 'NONE',  ( 0.000000000000000000, 0.000000000000000000, -1.000000000000000000 ) ) ;
#229 = DIRECTION ( 'NONE',  ( 1.000000000000000000, -0.000000000000000000, 0.000000000000000000 ) ) ;
#230 = CARTESIAN_POINT ( 'NONE',  ( 1.965601422281432726E-14, 5.000000000000000000, -19.99999999999998934 ) ) ;
#231 = CARTESIAN_POINT ( 'NONE',  ( 232.0000000000000000, 0.000000000000000000, -15.00000000000000000 ) ) ;
#232 = FACE_BOUND ( 'NONE', #119, .T. ) ;
#233 = DIRECTION ( 'NONE',  ( 0.000000000000000000, 0.000000000000000000, -1.000000000000000000 ) ) ;
#234 = DIRECTION ( 'NONE',  ( -0.000000000000000000, -1.000000000000000000, -0.000000000000000000 ) ) ;
#235 = ORIENTED_EDGE ( 'NONE', *, *, #559, .T. ) ;
#236 = DIRECTION ( 'NONE',  ( -0.000000000000000000, -1.000000000000000000, -0.000000000000000000 ) ) ;
#237 = DIRECTION ( 'NONE',  ( 0.000000000000000000, 0.000000000000000000, 1.000000000000000000 ) ) ;
#238 = CARTESIAN_POINT ( 'NONE',  ( 167.0000000000000284, 5.000000000000000000, -35.00000000000000000 ) ) ;
#239 = EDGE_LOOP ( 'NONE', ( #641, #135, #718, #763 ) ) ;
#240 = DIRECTION ( 'NONE',  ( 0.000000000000000000, 0.000000000000000000, 1.000000000000000000 ) ) ;
#241 = ADVANCED_FACE ( 'NONE', ( #164 ), #308, .F. ) ;
#242 = ORIENTED_EDGE ( 'NONE', *, *, #493, .F. ) ;
#243 = DIRECTION ( 'NONE',  ( 1.000000000000000000, 0.000000000000000000, 0.000000000000000000 ) ) ;
#244 = CIRCLE ( 'NONE', #458, 1.599999999999990319 ) ;
#245 = FACE_OUTER_BOUND ( 'NONE', #134, .T. ) ;
#246 =( NAMED_UNIT ( * ) PLANE_ANGLE_UNIT ( ) SI_UNIT ( $, .RADIAN. ) );
#247 = EDGE_LOOP ( 'NONE', ( #17, #44, #242, #291 ) ) ;
#248 = CARTESIAN_POINT ( 'NONE',  ( 1.214306433183764966E-14, 5.000000000000000000, -35.00000000000000000 ) ) ;
#249 = ADVANCED_FACE ( 'NONE', ( #632, #472, #306, #181, #709, #232, #25 ), #10, .T. ) ;
#250 = DIRECTION ( 'NONE',  ( 0.000000000000000000, 1.000000000000000000, 0.000000000000000000 ) ) ;
#251 = SURFACE_STYLE_USAGE ( .BOTH. , #193 ) ;
#252 = DIRECTION ( 'NONE',  ( -1.000000000000000000, -0.000000000000000000, -0.000000000000000000 ) ) ;
#253 = ORIENTED_EDGE ( 'NONE', *, *, #365, .F. ) ;
#254 = ORIENTED_EDGE ( 'NONE', *, *, #564, .T. ) ;
#255 = DIRECTION ( 'NONE',  ( -0.000000000000000000, -1.000000000000000000, -0.000000000000000000 ) ) ;
#256 = CIRCLE ( 'NONE', #572, 1.600000000000000755 ) ;
#257 = FILL_AREA_STYLE_COLOUR ( '', #749 ) ;
#258 = PRESENTATION_STYLE_ASSIGNMENT (( #83 ) ) ;
#259 = CARTESIAN_POINT ( 'NONE',  ( 0.000000000000000000, 0.000000000000000000, 0.000000000000000000 ) ) ;
#260 = LINE ( 'NONE', #126, #272 ) ;
#261 = AXIS2_PLACEMENT_3D ( 'NONE', #125, #437, #19 ) ;
#262 = VERTEX_POINT ( 'NONE', #728 ) ;
#263 = CARTESIAN_POINT ( 'NONE',  ( 1.965601422281432726E-14, 0.000000000000000000, 18.39999999999998792 ) ) ;
#264 = ADVANCED_FACE ( 'NONE', ( #507 ), #622, .F. ) ;
#265 = DIRECTION ( 'NONE',  ( -0.000000000000000000, -1.000000000000000000, -0.000000000000000000 ) ) ;
#266 = PRESENTATION_LAYER_ASSIGNMENT (  '', '', ( #657 ) ) ;
#267 = VERTEX_POINT ( 'NONE', #374 ) ;
#268 = CARTESIAN_POINT ( 'NONE',  ( 20.00000000000001066, 0.000000000000000000, -15.00000000000000000 ) ) ;
#269 = EDGE_LOOP ( 'NONE', ( #178, #587 ) ) ;
#270 = LINE ( 'NONE', #574, #156 ) ;
#271 = EDGE_CURVE ( 'NONE', #635, #644, #224, .T. ) ;
#272 = VECTOR ( 'NONE', #76, 1000.000000000000000 ) ;
#273 = CARTESIAN_POINT ( 'NONE',  ( 172.0000000000000284, 5.000000000000000000, -28.99999999999999645 ) ) ;
#274 = CARTESIAN_POINT ( 'NONE',  ( 228.0000000000000284, 5.000000000000000000, -27.40000000000000924 ) ) ;
#275 =( NAMED_UNIT ( * ) SI_UNIT ( $, .STERADIAN. ) SOLID_ANGLE_UNIT ( ) );
#276 = AXIS2_PLACEMENT_3D ( 'NONE', #625, #13, #319 ) ;
#277 = ORIENTED_EDGE ( 'NONE', *, *, #271, .F. ) ;
#278 = CLOSED_SHELL ( 'NONE', ( #123, #732, #264, #722, #312, #432, #249, #491, #195, #199, #185, #446, #24, #241, #8, #138, #552, #501, #737, #611, #65, #727 ) ) ;
#279 = PRODUCT_DEFINITION ( '未知', '', #322, #569 ) ;
#280 = LINE ( 'NONE', #480, #90 ) ;
#281 = CIRCLE ( 'NONE', #693, 1.599999999999990319 ) ;
#282 = ORIENTED_EDGE ( 'NONE', *, *, #46, .T. ) ;
#283 = UNCERTAINTY_MEASURE_WITH_UNIT (LENGTH_MEASURE( 1.000000000000000082E-05 ), #14, 'distance_accuracy_value', 'NONE');
#284 = ORIENTED_EDGE ( 'NONE', *, *, #369, .T. ) ;
#285 = AXIS2_PLACEMENT_3D ( 'NONE', #23, #692, #445 ) ;
#286 = LINE ( 'NONE', #317, #585 ) ;
#287 = ORIENTED_EDGE ( 'NONE', *, *, #32, .F. ) ;
#288 = EDGE_CURVE ( 'NONE', #191, #762, #704, .T. ) ;
#289 = DIRECTION ( 'NONE',  ( 0.000000000000000000, 0.000000000000000000, -1.000000000000000000 ) ) ;
#290 = DIRECTION ( 'NONE',  ( 0.000000000000000000, 0.000000000000000000, -1.000000000000000000 ) ) ;
#291 = ORIENTED_EDGE ( 'NONE', *, *, #479, .F. ) ;
#292 = VECTOR ( 'NONE', #756, 1000.000000000000000 ) ;
#293 = CARTESIAN_POINT ( 'NONE',  ( 228.0000000000000284, 5.000000000000000000, -44.00000000000000000 ) ) ;
#294 = DIRECTION ( 'NONE',  ( 0.000000000000000000, 0.000000000000000000, 1.000000000000000000 ) ) ;
#295 = FACE_OUTER_BOUND ( 'NONE', #247, .T. ) ;
#296 = ORIENTED_EDGE ( 'NONE', *, *, #688, .F. ) ;
#297 = ORIENTED_EDGE ( 'NONE', *, *, #714, .T. ) ;
#298 = CARTESIAN_POINT ( 'NONE',  ( 228.0000000000000284, 5.000000000000000000, -44.00000000000000000 ) ) ;
#299 = DIRECTION ( 'NONE',  ( 0.000000000000000000, 0.000000000000000000, -1.000000000000000000 ) ) ;
#300 = CARTESIAN_POINT ( 'NONE',  ( 20.00000000000001066, 5.000000000000000000, 35.00000000000000000 ) ) ;
#301 = DIRECTION ( 'NONE',  ( -0.000000000000000000, -1.000000000000000000, -0.000000000000000000 ) ) ;
#302 = EDGE_LOOP ( 'NONE', ( #282, #736, #223, #111 ) ) ;
#303 = CYLINDRICAL_SURFACE ( 'NONE', #721, 1.599999999999990319 ) ;
#304 = EDGE_CURVE ( 'NONE', #439, #706, #286, .T. ) ;
#305 = EDGE_LOOP ( 'NONE', ( #89, #214, #326, #105 ) ) ;
#306 = FACE_BOUND ( 'NONE', #104, .T. ) ;
#307 = CARTESIAN_POINT ( 'NONE',  ( 1.214306433183764966E-14, 0.000000000000000000, 35.00000000000000000 ) ) ;
#308 = PLANE ( 'NONE',  #402 ) ;
#309 = ORIENTED_EDGE ( 'NONE', *, *, #774, .T. ) ;
#310 = DIRECTION ( 'NONE',  ( 0.000000000000000000, 1.000000000000000000, 0.000000000000000000 ) ) ;
#311 =( NAMED_UNIT ( * ) SI_UNIT ( $, .STERADIAN. ) SOLID_ANGLE_UNIT ( ) );
#312 = ADVANCED_FACE ( 'NONE', ( #647 ), #522, .F. ) ;
#313 = CARTESIAN_POINT ( 'NONE',  ( 167.0000000000000284, 5.000000000000000000, -65.00000000000000000 ) ) ;
#314 = CARTESIAN_POINT ( 'NONE',  ( 232.0000000000000000, 5.000000000000000000, -65.00000000000000000 ) ) ;
#315 = ORIENTED_EDGE ( 'NONE', *, *, #550, .F. ) ;
#316 = ORIENTED_EDGE ( 'NONE', *, *, #154, .F. ) ;
#317 = CARTESIAN_POINT ( 'NONE',  ( 20.00000000000001066, 0.000000000000000000, -15.00000000000000000 ) ) ;
#318 = FACE_OUTER_BOUND ( 'NONE', #302, .T. ) ;
#319 = DIRECTION ( 'NONE',  ( 0.000000000000000000, 0.000000000000000000, -1.000000000000000000 ) ) ;
#320 = ORIENTED_EDGE ( 'NONE', *, *, #207, .F. ) ;
#321 = ORIENTED_EDGE ( 'NONE', *, *, #581, .F. ) ;
#322 = PRODUCT_DEFINITION_FORMATION_WITH_SPECIFIED_SOURCE ( '任何', '', #38, .NOT_KNOWN. ) ;
#323 = DIRECTION ( 'NONE',  ( -0.000000000000000000, -1.000000000000000000, -0.000000000000000000 ) ) ;
#324 = DIRECTION ( 'NONE',  ( 0.000000000000000000, 0.000000000000000000, -1.000000000000000000 ) ) ;
#325 = SURFACE_SIDE_STYLE ('',( #631 ) ) ;
#326 = ORIENTED_EDGE ( 'NONE', *, *, #761, .T. ) ;
#327 = FACE_BOUND ( 'NONE', #336, .T. ) ;
#328 =( LENGTH_UNIT ( ) NAMED_UNIT ( * ) SI_UNIT ( .MILLI., .METRE. ) );
#329 = VECTOR ( 'NONE', #196, 1000.000000000000000 ) ;
#330 = DIRECTION ( 'NONE',  ( -1.000000000000000000, 0.000000000000000000, 4.625929269271485914E-16 ) ) ;
#331 = CARTESIAN_POINT ( 'NONE',  ( 228.0000000000000284, 0.000000000000000000, -28.99999999999999645 ) ) ;
#332 = EDGE_LOOP ( 'NONE', ( #629, #697, #419, #618 ) ) ;
#333 = ORIENTED_EDGE ( 'NONE', *, *, #365, .T. ) ;
#334 = VECTOR ( 'NONE', #54, 1000.000000000000000 ) ;
#335 = EDGE_CURVE ( 'NONE', #403, #143, #577, .T. ) ;
#336 = EDGE_LOOP ( 'NONE', ( #309, #748 ) ) ;
#337 =( NAMED_UNIT ( * ) PLANE_ANGLE_UNIT ( ) SI_UNIT ( $, .RADIAN. ) );
#338 = VERTEX_POINT ( 'NONE', #16 ) ;
#339 = ORIENTED_EDGE ( 'NONE', *, *, #46, .F. ) ;
#340 = VECTOR ( 'NONE', #486, 1000.000000000000000 ) ;
#341 = LINE ( 'NONE', #390, #726 ) ;
#342 = EDGE_CURVE ( 'NONE', #411, #527, #385, .T. ) ;
#343 = MECHANICAL_DESIGN_GEOMETRIC_PRESENTATION_REPRESENTATION (  '', ( #657 ), #466 ) ;
#344 = DIRECTION ( 'NONE',  ( 0.000000000000000000, 1.000000000000000000, 0.000000000000000000 ) ) ;
#345 = EDGE_CURVE ( 'NONE', #143, #210, #557, .T. ) ;
#346 = ORIENTED_EDGE ( 'NONE', *, *, #449, .T. ) ;
#347 = CARTESIAN_POINT ( 'NONE',  ( -9.999999999999978684, 5.000000000000000000, -35.00000000000000000 ) ) ;
#348 = STYLED_ITEM ( 'NONE', ( #258 ), #524 ) ;
#349 = ORIENTED_EDGE ( 'NONE', *, *, #525, .T. ) ;
#350 = LINE ( 'NONE', #307, #334 ) ;
#351 = LINE ( 'NONE', #3, #183 ) ;
#352 = EDGE_LOOP ( 'NONE', ( #638, #636, #315, #606 ) ) ;
#353 = AXIS2_PLACEMENT_3D ( 'NONE', #173, #229, #290 ) ;
#354 = DIRECTION ( 'NONE',  ( 0.000000000000000000, 1.000000000000000000, 0.000000000000000000 ) ) ;
#355 = DIRECTION ( 'NONE',  ( -0.000000000000000000, -1.000000000000000000, -0.000000000000000000 ) ) ;
#356 = PRODUCT_RELATED_PRODUCT_CATEGORY ( 'part', '', ( #38 ) ) ;
#357 = DIRECTION ( 'NONE',  ( -0.000000000000000000, -1.000000000000000000, -0.000000000000000000 ) ) ;
#358 = DIRECTION ( 'NONE',  ( 1.000000000000000000, 0.000000000000000000, -0.000000000000000000 ) ) ;
#359 = VERTEX_POINT ( 'NONE', #558 ) ;
#360 = FACE_OUTER_BOUND ( 'NONE', #523, .T. ) ;
#361 = LINE ( 'NONE', #745, #764 ) ;
#362 = ORIENTED_EDGE ( 'NONE', *, *, #335, .F. ) ;
#363 = CARTESIAN_POINT ( 'NONE',  ( 1.985195771067790097E-14, 0.000000000000000000, -18.39999999999998792 ) ) ;
#364 = DIRECTION ( 'NONE',  ( 0.000000000000000000, 1.000000000000000000, 0.000000000000000000 ) ) ;
#365 = EDGE_CURVE ( 'NONE', #658, #12, #750, .T. ) ;
#366 = CARTESIAN_POINT ( 'NONE',  ( 20.00000000000001066, 5.000000000000000000, -15.00000000000000000 ) ) ;
#367 = AXIS2_PLACEMENT_3D ( 'NONE', #537, #597, #482 ) ;
#368 = APPLICATION_PROTOCOL_DEFINITION ( 'draft international standard', 'automotive_design', 1998, #435 ) ;
#369 = EDGE_CURVE ( 'NONE', #762, #705, #609, .T. ) ;
#370 = ORIENTED_EDGE ( 'NONE', *, *, #39, .T. ) ;
#371 = ORIENTED_EDGE ( 'NONE', *, *, #581, .T. ) ;
#372 = DIRECTION ( 'NONE',  ( 0.000000000000000000, 0.000000000000000000, 1.000000000000000000 ) ) ;
#373 = AXIS2_PLACEMENT_3D ( 'NONE', #293, #236, #604 ) ;
#374 = CARTESIAN_POINT ( 'NONE',  ( 172.0000000000000284, 0.000000000000000000, -30.59999999999998721 ) ) ;
#375 = VERTEX_POINT ( 'NONE', #186 ) ;
#376 = ORIENTED_EDGE ( 'NONE', *, *, #449, .F. ) ;
#377 = CARTESIAN_POINT ( 'NONE',  ( -9.999999999999978684, 5.000000000000000000, 35.00000000000000000 ) ) ;
#378 = APPLICATION_CONTEXT ( 'automotive_design' ) ;
#379 = DIRECTION ( 'NONE',  ( 0.000000000000000000, 1.000000000000000000, 0.000000000000000000 ) ) ;
#380 = EDGE_CURVE ( 'NONE', #411, #556, #600, .T. ) ;
#381 = AXIS2_PLACEMENT_3D ( 'NONE', #298, #61, #294 ) ;
#382 = ORIENTED_EDGE ( 'NONE', *, *, #643, .T. ) ;
#383 = DIRECTION ( 'NONE',  ( -0.000000000000000000, -1.000000000000000000, -0.000000000000000000 ) ) ;
#384 = VECTOR ( 'NONE', #699, 1000.000000000000000 ) ;
#385 = CIRCLE ( 'NONE', #160, 1.599999999999990319 ) ;
#386 = CIRCLE ( 'NONE', #367, 1.599999999999990319 ) ;
#387 = VERTEX_POINT ( 'NONE', #130 ) ;
#388 = CARTESIAN_POINT ( 'NONE',  ( 172.0000000000000284, 5.000000000000000000, -45.59999999999998721 ) ) ;
#389 = EDGE_CURVE ( 'NONE', #97, #706, #203, .T. ) ;
#390 = CARTESIAN_POINT ( 'NONE',  ( 1.965601422281432726E-14, 5.000000000000000000, 18.39999999999998792 ) ) ;
#391 = EDGE_LOOP ( 'NONE', ( #200, #284, #376, #316 ) ) ;
#392 = ORIENTED_EDGE ( 'NONE', *, *, #598, .F. ) ;
#393 = FACE_OUTER_BOUND ( 'NONE', #755, .T. ) ;
#394 = DIRECTION ( 'NONE',  ( 0.000000000000000000, 0.000000000000000000, 1.000000000000000000 ) ) ;
#395 = LINE ( 'NONE', #661, #146 ) ;
#396 = AXIS2_PLACEMENT_3D ( 'NONE', #418, #364, #237 ) ;
#397 = ORIENTED_EDGE ( 'NONE', *, *, #35, .F. ) ;
#398 = CARTESIAN_POINT ( 'NONE',  ( 172.0000000000000284, 5.000000000000000000, -44.00000000000000000 ) ) ;
#399 = LINE ( 'NONE', #133, #329 ) ;
#400 = ORIENTED_EDGE ( 'NONE', *, *, #108, .T. ) ;
#401 = DIRECTION ( 'NONE',  ( 1.000000000000000000, 0.000000000000000000, 0.000000000000000000 ) ) ;
#402 = AXIS2_PLACEMENT_3D ( 'NONE', #739, #7, #615 ) ;
#403 = VERTEX_POINT ( 'NONE', #313 ) ;
#404 = CARTESIAN_POINT ( 'NONE',  ( -9.999999999999978684, 0.000000000000000000, -35.00000000000000000 ) ) ;
#405 = EDGE_CURVE ( 'NONE', #31, #738, #686, .T. ) ;
#406 = CIRCLE ( 'NONE', #115, 1.600000000000000755 ) ;
#407 = ORIENTED_EDGE ( 'NONE', *, *, #345, .T. ) ;
#408 = CARTESIAN_POINT ( 'NONE',  ( 1.965601422281432726E-14, 5.000000000000000000, 19.99999999999998934 ) ) ;
#409 = CARTESIAN_POINT ( 'NONE',  ( 172.0000000000000284, 0.000000000000000000, -28.99999999999999645 ) ) ;
#410 = CARTESIAN_POINT ( 'NONE',  ( 232.0000000000000000, 5.000000000000000000, -65.00000000000000000 ) ) ;
#411 = VERTEX_POINT ( 'NONE', #388 ) ;
#412 = DIRECTION ( 'NONE',  ( -0.000000000000000000, -1.000000000000000000, -0.000000000000000000 ) ) ;
#413 = CARTESIAN_POINT ( 'NONE',  ( 1.965601422281432726E-14, 5.000000000000000000, -21.59999999999999076 ) ) ;
#414 = VECTOR ( 'NONE', #60, 1000.000000000000000 ) ;
#415 = CIRCLE ( 'NONE', #285, 1.600000000000000755 ) ;
#416 = DIRECTION ( 'NONE',  ( -0.000000000000000000, -1.000000000000000000, -0.000000000000000000 ) ) ;
#417 = ORIENTED_EDGE ( 'NONE', *, *, #220, .T. ) ;
#418 = CARTESIAN_POINT ( 'NONE',  ( 228.0000000000000284, 0.000000000000000000, -44.00000000000000000 ) ) ;
#419 = ORIENTED_EDGE ( 'NONE', *, *, #733, .F. ) ;
#420 = PLANE ( 'NONE',  #91 ) ;
#421 = EDGE_CURVE ( 'NONE', #527, #40, #361, .T. ) ;
#422 = CARTESIAN_POINT ( 'NONE',  ( 0.000000000000000000, 5.000000000000000000, 0.000000000000000000 ) ) ;
#423 = CARTESIAN_POINT ( 'NONE',  ( 167.0000000000000284, 0.000000000000000000, -65.00000000000000000 ) ) ;
#424 = ORIENTED_EDGE ( 'NONE', *, *, #642, .T. ) ;
#425 = VERTEX_POINT ( 'NONE', #139 ) ;
#426 = ORIENTED_EDGE ( 'NONE', *, *, #159, .F. ) ;
#427 = AXIS2_PLACEMENT_3D ( 'NONE', #151, #166, #513 ) ;
#428 = DIRECTION ( 'NONE',  ( -0.000000000000000000, -1.000000000000000000, -0.000000000000000000 ) ) ;
#429 = FACE_BOUND ( 'NONE', #82, .T. ) ;
#430 = LINE ( 'NONE', #410, #100 ) ;
#431 = PRODUCT_CONTEXT ( 'NONE', #435, 'mechanical' ) ;
#432 = ADVANCED_FACE ( 'NONE', ( #295 ), #485, .F. ) ;
#433 = CARTESIAN_POINT ( 'NONE',  ( 172.0000000000000284, 5.000000000000000000, -44.00000000000000000 ) ) ;
#434 = AXIS2_PLACEMENT_3D ( 'NONE', #169, #355, #113 ) ;
#435 = APPLICATION_CONTEXT ( 'automotive_design' ) ;
#436 = CARTESIAN_POINT ( 'NONE',  ( 1.985195771067790097E-14, 5.000000000000000000, -18.39999999999998792 ) ) ;
#437 = DIRECTION ( 'NONE',  ( 0.000000000000000000, 1.000000000000000000, -0.000000000000000000 ) ) ;
#438 = CARTESIAN_POINT ( 'NONE',  ( 232.0000000000000000, 5.000000000000000000, -15.00000000000000000 ) ) ;
#439 = VERTEX_POINT ( 'NONE', #268 ) ;
#440 = LINE ( 'NONE', #591, #685 ) ;
#441 = FACE_BOUND ( 'NONE', #48, .T. ) ;
#442 = DIRECTION ( 'NONE',  ( 0.000000000000000000, 1.000000000000000000, 0.000000000000000000 ) ) ;
#443 = LINE ( 'NONE', #497, #742 ) ;
#444 = ORIENTED_EDGE ( 'NONE', *, *, #154, .T. ) ;
#445 = DIRECTION ( 'NONE',  ( 0.000000000000000000, 0.000000000000000000, -1.000000000000000000 ) ) ;
#446 = ADVANCED_FACE ( 'NONE', ( #144 ), #453, .F. ) ;
#447 = AXIS2_PLACEMENT_3D ( 'NONE', #215, #344, #766 ) ;
#448 = ORIENTED_EDGE ( 'NONE', *, *, #564, .F. ) ;
#449 = EDGE_CURVE ( 'NONE', #262, #705, #415, .T. ) ;
#450 = CYLINDRICAL_SURFACE ( 'NONE', #163, 1.599999999999990319 ) ;
#451 = VECTOR ( 'NONE', #500, 1000.000000000000000 ) ;
#452 = CYLINDRICAL_SURFACE ( 'NONE', #276, 1.599999999999990319 ) ;
#453 = PLANE ( 'NONE',  #626 ) ;
#454 = DIRECTION ( 'NONE',  ( -1.000000000000000000, -0.000000000000000000, -0.000000000000000000 ) ) ;
#455 = DIRECTION ( 'NONE',  ( 0.000000000000000000, 1.000000000000000000, 0.000000000000000000 ) ) ;
#456 = ORIENTED_EDGE ( 'NONE', *, *, #649, .T. ) ;
#457 = VECTOR ( 'NONE', #323, 1000.000000000000000 ) ;
#458 = AXIS2_PLACEMENT_3D ( 'NONE', #542, #50, #53 ) ;
#459 = ORIENTED_EDGE ( 'NONE', *, *, #101, .F. ) ;
#460 = ORIENTED_EDGE ( 'NONE', *, *, #304, .T. ) ;
#461 = VECTOR ( 'NONE', #454, 1000.000000000000000 ) ;
#462 = EDGE_CURVE ( 'NONE', #738, #31, #281, .T. ) ;
#463 = LINE ( 'NONE', #712, #451 ) ;
#464 = DIRECTION ( 'NONE',  ( 0.000000000000000000, 1.000000000000000000, 0.000000000000000000 ) ) ;
#465 = EDGE_LOOP ( 'NONE', ( #456, #586, #499, #498 ) ) ;
#466 =( GEOMETRIC_REPRESENTATION_CONTEXT ( 3 ) GLOBAL_UNCERTAINTY_ASSIGNED_CONTEXT ( ( #283 ) ) GLOBAL_UNIT_ASSIGNED_CONTEXT ( ( #14, #551, #311 ) ) REPRESENTATION_CONTEXT ( 'NONE', 'WORKASPACE' ) );
#467 = CARTESIAN_POINT ( 'NONE',  ( 167.0000000000000284, 0.000000000000000000, -65.00000000000000000 ) ) ;
#468 = DIRECTION ( 'NONE',  ( -1.000000000000000000, -0.000000000000000000, -0.000000000000000000 ) ) ;
#469 = DIRECTION ( 'NONE',  ( -1.000000000000000000, 0.000000000000000000, -0.000000000000000000 ) ) ;
#470 = ORIENTED_EDGE ( 'NONE', *, *, #182, .F. ) ;
#471 = DIRECTION ( 'NONE',  ( 0.000000000000000000, 1.000000000000000000, 0.000000000000000000 ) ) ;
#472 = FACE_BOUND ( 'NONE', #187, .T. ) ;
#473 = EDGE_LOOP ( 'NONE', ( #222, #470 ) ) ;
#474 = DIRECTION ( 'NONE',  ( 0.000000000000000000, 0.000000000000000000, -1.000000000000000000 ) ) ;
#475 = CARTESIAN_POINT ( 'NONE',  ( -9.999999999999978684, 5.000000000000000000, -35.00000000000000000 ) ) ;
#476 = DIRECTION ( 'NONE',  ( 0.000000000000000000, 0.000000000000000000, 1.000000000000000000 ) ) ;
#477 = DIRECTION ( 'NONE',  ( 0.000000000000000000, 0.000000000000000000, 1.000000000000000000 ) ) ;
#478 = PLANE ( 'NONE',  #45 ) ;
#479 = EDGE_CURVE ( 'NONE', #425, #508, #341, .T. ) ;
#480 = CARTESIAN_POINT ( 'NONE',  ( 228.0000000000000284, 5.000000000000000000, -30.59999999999998721 ) ) ;
#481 = ORIENTED_EDGE ( 'NONE', *, *, #654, .T. ) ;
#482 = DIRECTION ( 'NONE',  ( 0.000000000000000000, 0.000000000000000000, 1.000000000000000000 ) ) ;
#483 = VERTEX_POINT ( 'NONE', #696 ) ;
#484 = VECTOR ( 'NONE', #580, 1000.000000000000000 ) ;
#485 = CYLINDRICAL_SURFACE ( 'NONE', #129, 1.600000000000000755 ) ;
#486 = DIRECTION ( 'NONE',  ( -0.000000000000000000, -0.000000000000000000, 1.000000000000000000 ) ) ;
#487 = CARTESIAN_POINT ( 'NONE',  ( 1.965601422281432726E-14, 5.000000000000000000, -19.99999999999998934 ) ) ;
#488 = EDGE_CURVE ( 'NONE', #635, #31, #92, .T. ) ;
#489 = ORIENTED_EDGE ( 'NONE', *, *, #108, .F. ) ;
#490 = DIRECTION ( 'NONE',  ( -0.000000000000000000, -0.000000000000000000, 1.000000000000000000 ) ) ;
#491 = ADVANCED_FACE ( 'NONE', ( #758, #81, #107, #441, #429, #42, #327 ), #20, .F. ) ;
#492 = CARTESIAN_POINT ( 'NONE',  ( 172.0000000000000284, 5.000000000000000000, -44.00000000000000000 ) ) ;
#493 = EDGE_CURVE ( 'NONE', #508, #338, #4, .T. ) ;
#494 = ORIENTED_EDGE ( 'NONE', *, *, #610, .T. ) ;
#495 = DIRECTION ( 'NONE',  ( -0.000000000000000000, -1.000000000000000000, -0.000000000000000000 ) ) ;
#496 = CIRCLE ( 'NONE', #447, 1.600000000000000755 ) ;
#497 = CARTESIAN_POINT ( 'NONE',  ( 20.00000000000001066, 5.000000000000000000, -15.00000000000000000 ) ) ;
#498 = ORIENTED_EDGE ( 'NONE', *, *, #120, .T. ) ;
#499 = ORIENTED_EDGE ( 'NONE', *, *, #510, .F. ) ;
#500 = DIRECTION ( 'NONE',  ( -0.000000000000000000, -1.000000000000000000, -0.000000000000000000 ) ) ;
#501 = ADVANCED_FACE ( 'NONE', ( #393 ), #450, .F. ) ;
#502 = DIRECTION ( 'NONE',  ( 0.000000000000000000, 0.000000000000000000, 1.000000000000000000 ) ) ;
#503 = FILL_AREA_STYLE ('',( #687 ) ) ;
#504 = CARTESIAN_POINT ( 'NONE',  ( 20.00000000000001066, 5.000000000000000000, -15.00000000000000000 ) ) ;
#505 = VERTEX_POINT ( 'NONE', #504 ) ;
#506 = VECTOR ( 'NONE', #528, 1000.000000000000000 ) ;
#507 = FACE_OUTER_BOUND ( 'NONE', #332, .T. ) ;
#508 = VERTEX_POINT ( 'NONE', #263 ) ;
#509 = DIRECTION ( 'NONE',  ( -0.000000000000000000, 1.000000000000000000, 0.000000000000000000 ) ) ;
#510 = EDGE_CURVE ( 'NONE', #85, #403, #270, .T. ) ;
#511 = DIRECTION ( 'NONE',  ( 0.000000000000000000, -0.000000000000000000, 1.000000000000000000 ) ) ;
#512 = ORIENTED_EDGE ( 'NONE', *, *, #688, .T. ) ;
#513 = DIRECTION ( 'NONE',  ( 0.000000000000000000, 0.000000000000000000, -1.000000000000000000 ) ) ;
#514 = VERTEX_POINT ( 'NONE', #206 ) ;
#515 = LINE ( 'NONE', #719, #414 ) ;
#516 = FACE_OUTER_BOUND ( 'NONE', #127, .T. ) ;
#517 = CIRCLE ( 'NONE', #396, 1.599999999999990319 ) ;
#518 = DIRECTION ( 'NONE',  ( 1.982541115402065110E-16, 0.000000000000000000, -1.000000000000000000 ) ) ;
#519 = ORIENTED_EDGE ( 'NONE', *, *, #510, .T. ) ;
#520 = ORIENTED_EDGE ( 'NONE', *, *, #288, .F. ) ;
#521 = CYLINDRICAL_SURFACE ( 'NONE', #427, 1.599999999999990319 ) ;
#522 = CYLINDRICAL_SURFACE ( 'NONE', #777, 1.599999999999990319 ) ;
#523 = EDGE_LOOP ( 'NONE', ( #674, #152, #225, #296 ) ) ;
#524 = MANIFOLD_SOLID_BREP ( '凸台-拉伸1', #278 ) ;
#525 = EDGE_CURVE ( 'NONE', #589, #375, #131, .T. ) ;
#526 = CARTESIAN_POINT ( 'NONE',  ( 20.00000000000001776, 0.000000000000000000, 0.000000000000000000 ) ) ;
#527 = VERTEX_POINT ( 'NONE', #532 ) ;
#528 = DIRECTION ( 'NONE',  ( 0.000000000000000000, 0.000000000000000000, -1.000000000000000000 ) ) ;
#529 = ORIENTED_EDGE ( 'NONE', *, *, #75, .F. ) ;
#530 = CIRCLE ( 'NONE', #646, 1.599999999999990319 ) ;
#531 = EDGE_CURVE ( 'NONE', #97, #85, #655, .T. ) ;
#532 = CARTESIAN_POINT ( 'NONE',  ( 172.0000000000000284, 5.000000000000000000, -42.40000000000000568 ) ) ;
#533 = ORIENTED_EDGE ( 'NONE', *, *, #39, .F. ) ;
#534 = DIRECTION ( 'NONE',  ( 0.000000000000000000, 0.000000000000000000, -1.000000000000000000 ) ) ;
#535 = EDGE_LOOP ( 'NONE', ( #460, #695, #571, #1 ) ) ;
#536 = CARTESIAN_POINT ( 'NONE',  ( 228.0000000000000284, 5.000000000000000000, -28.99999999999999645 ) ) ;
#537 = CARTESIAN_POINT ( 'NONE',  ( 228.0000000000000284, 5.000000000000000000, -44.00000000000000000 ) ) ;
#538 = AXIS2_PLACEMENT_3D ( 'NONE', #660, #228, #469 ) ;
#539 = CARTESIAN_POINT ( 'NONE',  ( 167.0000000000000284, 5.000000000000000000, -35.00000000000000000 ) ) ;
#540 = FACE_OUTER_BOUND ( 'NONE', #87, .T. ) ;
#541 = CARTESIAN_POINT ( 'NONE',  ( 167.0000000000000284, 0.000000000000000000, -35.00000000000000000 ) ) ;
#542 = CARTESIAN_POINT ( 'NONE',  ( 172.0000000000000284, 5.000000000000000000, -28.99999999999999645 ) ) ;
#543 = VECTOR ( 'NONE', #252, 1000.000000000000000 ) ;
#544 = DIRECTION ( 'NONE',  ( -1.000000000000000000, 0.000000000000000000, -0.000000000000000000 ) ) ;
#545 = EDGE_LOOP ( 'NONE', ( #392, #157, #668, #320, #11, #321, #743, #583 ) ) ;
#546 = CARTESIAN_POINT ( 'NONE',  ( 0.000000000000000000, 0.000000000000000000, 0.000000000000000000 ) ) ;
#547 = DIRECTION ( 'NONE',  ( 1.000000000000000000, 0.000000000000000000, 0.000000000000000000 ) ) ;
#548 = DIRECTION ( 'NONE',  ( 0.000000000000000000, 1.000000000000000000, 0.000000000000000000 ) ) ;
#549 = DIRECTION ( 'NONE',  ( 0.000000000000000000, 0.000000000000000000, -1.000000000000000000 ) ) ;
#550 = EDGE_CURVE ( 'NONE', #73, #653, #757, .T. ) ;
#551 =( NAMED_UNIT ( * ) PLANE_ANGLE_UNIT ( ) SI_UNIT ( $, .RADIAN. ) );
#552 = ADVANCED_FACE ( 'NONE', ( #217 ), #80, .F. ) ;
#553 = AXIS2_PLACEMENT_3D ( 'NONE', #408, #656, #289 ) ;
#554 = CARTESIAN_POINT ( 'NONE',  ( 228.0000000000000284, 5.000000000000000000, -42.40000000000000568 ) ) ;
#555 = ORIENTED_EDGE ( 'NONE', *, *, #642, .F. ) ;
#556 = VERTEX_POINT ( 'NONE', #98 ) ;
#557 = LINE ( 'NONE', #248, #543 ) ;
#558 = CARTESIAN_POINT ( 'NONE',  ( 228.0000000000000284, 0.000000000000000000, -45.59999999999998721 ) ) ;
#559 = EDGE_CURVE ( 'NONE', #624, #570, #142, .T. ) ;
#560 = ORIENTED_EDGE ( 'NONE', *, *, #616, .T. ) ;
#561 = EDGE_LOOP ( 'NONE', ( #18, #633, #67, #417 ) ) ;
#562 = CARTESIAN_POINT ( 'NONE',  ( 232.0000000000000000, 5.000000000000000000, -15.00000000000000000 ) ) ;
#563 = DIRECTION ( 'NONE',  ( -0.000000000000000000, -1.000000000000000000, -0.000000000000000000 ) ) ;
#564 = EDGE_CURVE ( 'NONE', #387, #589, #645, .T. ) ;
#565 = DIRECTION ( 'NONE',  ( -0.000000000000000000, 1.000000000000000000, 0.000000000000000000 ) ) ;
#566 = CARTESIAN_POINT ( 'NONE',  ( 228.0000000000000284, 5.000000000000000000, -45.59999999999998721 ) ) ;
#567 = ORIENTED_EDGE ( 'NONE', *, *, #590, .F. ) ;
#568 = FACE_OUTER_BOUND ( 'NONE', #158, .T. ) ;
#569 = PRODUCT_DEFINITION_CONTEXT ( 'detailed design', #378, 'design' ) ;
#570 = VERTEX_POINT ( 'NONE', #651 ) ;
#571 = ORIENTED_EDGE ( 'NONE', *, *, #616, .F. ) ;
#572 = AXIS2_PLACEMENT_3D ( 'NONE', #2, #354, #659 ) ;
#573 = CARTESIAN_POINT ( 'NONE',  ( 172.0000000000000284, 5.000000000000000000, -27.40000000000000924 ) ) ;
#574 = CARTESIAN_POINT ( 'NONE',  ( 167.0000000000000284, 5.000000000000000000, -65.00000000000000000 ) ) ;
#575 = ORIENTED_EDGE ( 'NONE', *, *, #342, .F. ) ;
#576 = AXIS2_PLACEMENT_3D ( 'NONE', #475, #713, #358 ) ;
#577 = LINE ( 'NONE', #238, #741 ) ;
#578 = CARTESIAN_POINT ( 'NONE',  ( 1.965601422281432726E-14, 5.000000000000000000, 19.99999999999998934 ) ) ;
#579 = FACE_OUTER_BOUND ( 'NONE', #535, .T. ) ;
#580 = DIRECTION ( 'NONE',  ( 1.000000000000000000, 0.000000000000000000, 0.000000000000000000 ) ) ;
#581 = EDGE_CURVE ( 'NONE', #483, #439, #202, .T. ) ;
#582 = AXIS2_PLACEMENT_3D ( 'NONE', #776, #778, #601 ) ;
#583 = ORIENTED_EDGE ( 'NONE', *, *, #559, .F. ) ;
#584 = CYLINDRICAL_SURFACE ( 'NONE', #194, 1.600000000000000755 ) ;
#585 = VECTOR ( 'NONE', #243, 1000.000000000000000 ) ;
#586 = ORIENTED_EDGE ( 'NONE', *, *, #94, .F. ) ;
#587 = ORIENTED_EDGE ( 'NONE', *, *, #405, .T. ) ;
#588 = AXIS2_PLACEMENT_3D ( 'NONE', #55, #476, #110 ) ;
#589 = VERTEX_POINT ( 'NONE', #650 ) ;
#590 = EDGE_CURVE ( 'NONE', #527, #411, #599, .T. ) ;
#591 = CARTESIAN_POINT ( 'NONE',  ( -9.999999999999978684, 0.000000000000000000, -35.00000000000000000 ) ) ;
#592 = LINE ( 'NONE', #231, #5 ) ;
#593 = AXIS2_PLACEMENT_3D ( 'NONE', #230, #412, #233 ) ;
#594 = VECTOR ( 'NONE', #681, 1000.000000000000000 ) ;
#595 = EDGE_LOOP ( 'NONE', ( #448, #426 ) ) ;
#596 = CARTESIAN_POINT ( 'NONE',  ( 228.0000000000000284, 0.000000000000000000, -30.59999999999998721 ) ) ;
#597 = DIRECTION ( 'NONE',  ( 0.000000000000000000, 1.000000000000000000, 0.000000000000000000 ) ) ;
#598 = EDGE_CURVE ( 'NONE', #724, #624, #440, .T. ) ;
#599 = CIRCLE ( 'NONE', #690, 1.599999999999990319 ) ;
#600 = LINE ( 'NONE', #731, #218 ) ;
#601 = DIRECTION ( 'NONE',  ( 0.000000000000000000, 0.000000000000000000, 1.000000000000000000 ) ) ;
#602 = ORIENTED_EDGE ( 'NONE', *, *, #207, .T. ) ;
#603 = CARTESIAN_POINT ( 'NONE',  ( 167.0000000000000284, 0.000000000000000000, -35.00000000000000000 ) ) ;
#604 = DIRECTION ( 'NONE',  ( 0.000000000000000000, 0.000000000000000000, -1.000000000000000000 ) ) ;
#605 =( GEOMETRIC_REPRESENTATION_CONTEXT ( 3 ) GLOBAL_UNCERTAINTY_ASSIGNED_CONTEXT ( ( #170 ) ) GLOBAL_UNIT_ASSIGNED_CONTEXT ( ( #122, #246, #730 ) ) REPRESENTATION_CONTEXT ( 'NONE', 'WORKASPACE' ) );
#606 = ORIENTED_EDGE ( 'NONE', *, *, #198, .T. ) ;
#607 = VERTEX_POINT ( 'NONE', #28 ) ;
#608 = CARTESIAN_POINT ( 'NONE',  ( 228.0000000000000284, 5.000000000000000000, -28.99999999999999645 ) ) ;
#609 = LINE ( 'NONE', #436, #118 ) ;
#610 = EDGE_CURVE ( 'NONE', #338, #508, #496, .T. ) ;
#611 = ADVANCED_FACE ( 'NONE', ( #360 ), #521, .F. ) ;
#612 = FACE_OUTER_BOUND ( 'NONE', #561, .T. ) ;
#613 = ORIENTED_EDGE ( 'NONE', *, *, #725, .F. ) ;
#614 = AXIS2_PLACEMENT_3D ( 'NONE', #608, #723, #680 ) ;
#615 = DIRECTION ( 'NONE',  ( 0.000000000000000000, 0.000000000000000000, 1.000000000000000000 ) ) ;
#616 = EDGE_CURVE ( 'NONE', #505, #97, #33, .T. ) ;
#617 = CARTESIAN_POINT ( 'NONE',  ( 228.0000000000000284, 5.000000000000000000, -28.99999999999999645 ) ) ;
#618 = ORIENTED_EDGE ( 'NONE', *, *, #380, .F. ) ;
#619 = ORIENTED_EDGE ( 'NONE', *, *, #531, .T. ) ;
#620 = VECTOR ( 'NONE', #102, 1000.000000000000000 ) ;
#621 = FILL_AREA_STYLE ('',( #257 ) ) ;
#622 = CYLINDRICAL_SURFACE ( 'NONE', #754, 1.599999999999990319 ) ;
#623 = ORIENTED_EDGE ( 'NONE', *, *, #525, .F. ) ;
#624 = VERTEX_POINT ( 'NONE', #404 ) ;
#625 = CARTESIAN_POINT ( 'NONE',  ( 228.0000000000000284, 5.000000000000000000, -28.99999999999999645 ) ) ;
#626 = AXIS2_PLACEMENT_3D ( 'NONE', #630, #330, #21 ) ;
#627 = CARTESIAN_POINT ( 'NONE',  ( 228.0000000000000284, 5.000000000000000000, -27.40000000000000924 ) ) ;
#628 = AXIS2_PLACEMENT_3D ( 'NONE', #682, #78, #735 ) ;
#629 = ORIENTED_EDGE ( 'NONE', *, *, #342, .T. ) ;
#630 = CARTESIAN_POINT ( 'NONE',  ( 20.00000000000001776, 5.000000000000000000, 0.000000000000000000 ) ) ;
#631 = SURFACE_STYLE_FILL_AREA ( #503 ) ;
#632 = FACE_BOUND ( 'NONE', #219, .T. ) ;
#633 = ORIENTED_EDGE ( 'NONE', *, *, #714, .F. ) ;
#634 = CARTESIAN_POINT ( 'NONE',  ( 20.00000000000001066, 5.000000000000000000, 35.00000000000000000 ) ) ;
#635 = VERTEX_POINT ( 'NONE', #274 ) ;
#636 = ORIENTED_EDGE ( 'NONE', *, *, #86, .F. ) ;
#637 = AXIS2_PLACEMENT_3D ( 'NONE', #744, #442, #145 ) ;
#638 = ORIENTED_EDGE ( 'NONE', *, *, #698, .T. ) ;
#639 = FACE_OUTER_BOUND ( 'NONE', #391, .T. ) ;
#640 = FACE_OUTER_BOUND ( 'NONE', #352, .T. ) ;
#641 = ORIENTED_EDGE ( 'NONE', *, *, #652, .F. ) ;
#642 = EDGE_CURVE ( 'NONE', #653, #505, #106, .T. ) ;
#643 = EDGE_CURVE ( 'NONE', #210, #73, #179, .T. ) ;
#644 = VERTEX_POINT ( 'NONE', #99 ) ;
#645 = CIRCLE ( 'NONE', #37, 1.599999999999990319 ) ;
#646 = AXIS2_PLACEMENT_3D ( 'NONE', #409, #471, #662 ) ;
#647 = FACE_OUTER_BOUND ( 'NONE', #161, .T. ) ;
#648 = ORIENTED_EDGE ( 'NONE', *, *, #389, .T. ) ;
#649 = EDGE_CURVE ( 'NONE', #514, #27, #41, .T. ) ;
#650 = CARTESIAN_POINT ( 'NONE',  ( 172.0000000000000284, 5.000000000000000000, -27.40000000000000924 ) ) ;
#651 = CARTESIAN_POINT ( 'NONE',  ( -9.999999999999978684, 0.000000000000000000, 35.00000000000000000 ) ) ;
#652 = EDGE_CURVE ( 'NONE', #607, #338, #171, .T. ) ;
#653 = VERTEX_POINT ( 'NONE', #300 ) ;
#654 = EDGE_CURVE ( 'NONE', #267, #375, #530, .T. ) ;
#655 = LINE ( 'NONE', #197, #506 ) ;
#656 = DIRECTION ( 'NONE',  ( -0.000000000000000000, -1.000000000000000000, -0.000000000000000000 ) ) ;
#657 = STYLED_ITEM ( 'NONE', ( #128 ), #121 ) ;
#658 = VERTEX_POINT ( 'NONE', #767 ) ;
#659 = DIRECTION ( 'NONE',  ( 0.000000000000000000, 0.000000000000000000, 1.000000000000000000 ) ) ;
#660 = CARTESIAN_POINT ( 'NONE',  ( 1.214306433183764966E-14, 5.000000000000000000, 35.00000000000000000 ) ) ;
#661 = CARTESIAN_POINT ( 'NONE',  ( -9.999999999999978684, 5.000000000000000000, 35.00000000000000000 ) ) ;
#662 = DIRECTION ( 'NONE',  ( 0.000000000000000000, 0.000000000000000000, 1.000000000000000000 ) ) ;
#663 = DIRECTION ( 'NONE',  ( 0.000000000000000000, 0.000000000000000000, -1.000000000000000000 ) ) ;
#664 = ORIENTED_EDGE ( 'NONE', *, *, #369, .F. ) ;
#665 = LINE ( 'NONE', #603, #340 ) ;
#666 = CARTESIAN_POINT ( 'NONE',  ( 172.0000000000000284, 0.000000000000000000, -42.40000000000000568 ) ) ;
#667 = VECTOR ( 'NONE', #691, 1000.000000000000000 ) ;
#668 = ORIENTED_EDGE ( 'NONE', *, *, #649, .F. ) ;
#669 = CARTESIAN_POINT ( 'NONE',  ( 172.0000000000000284, 0.000000000000000000, -44.00000000000000000 ) ) ;
#670 = CARTESIAN_POINT ( 'NONE',  ( 228.0000000000000284, 0.000000000000000000, -44.00000000000000000 ) ) ;
#671 = DIRECTION ( 'NONE',  ( 0.000000000000000000, 0.000000000000000000, -1.000000000000000000 ) ) ;
#672 = DIRECTION ( 'NONE',  ( 0.000000000000000000, 0.000000000000000000, 1.000000000000000000 ) ) ;
#673 = ORIENTED_EDGE ( 'NONE', *, *, #159, .T. ) ;
#674 = ORIENTED_EDGE ( 'NONE', *, *, #421, .F. ) ;
#675 = DIRECTION ( 'NONE',  ( -0.000000000000000000, -1.000000000000000000, -0.000000000000000000 ) ) ;
#676 = CIRCLE ( 'NONE', #582, 1.599999999999990319 ) ;
#677 = CARTESIAN_POINT ( 'NONE',  ( 172.0000000000000284, 0.000000000000000000, -28.99999999999999645 ) ) ;
#678 = CYLINDRICAL_SURFACE ( 'NONE', #434, 1.599999999999990319 ) ;
#679 = ORIENTED_EDGE ( 'NONE', *, *, #120, .F. ) ;
#680 = DIRECTION ( 'NONE',  ( 0.000000000000000000, 0.000000000000000000, 1.000000000000000000 ) ) ;
#681 = DIRECTION ( 'NONE',  ( -0.000000000000000000, -1.000000000000000000, -0.000000000000000000 ) ) ;
#682 = CARTESIAN_POINT ( 'NONE',  ( 1.965601422281432726E-14, 5.000000000000000000, 19.99999999999998934 ) ) ;
#683 = DIRECTION ( 'NONE',  ( 1.000000000000000000, 0.000000000000000000, 0.000000000000000000 ) ) ;
#684 = CARTESIAN_POINT ( 'NONE',  ( 1.965601422281432726E-14, 0.000000000000000000, 19.99999999999998934 ) ) ;
#685 = VECTOR ( 'NONE', #468, 1000.000000000000000 ) ;
#686 = CIRCLE ( 'NONE', #637, 1.599999999999990319 ) ;
#687 = FILL_AREA_STYLE_COLOUR ( '', #162 ) ;
#688 = EDGE_CURVE ( 'NONE', #40, #556, #703, .T. ) ;
#689 = ORIENTED_EDGE ( 'NONE', *, *, #701, .T. ) ;
#690 = AXIS2_PLACEMENT_3D ( 'NONE', #398, #455, #227 ) ;
#691 = DIRECTION ( 'NONE',  ( -0.000000000000000000, -1.000000000000000000, -0.000000000000000000 ) ) ;
#692 = DIRECTION ( 'NONE',  ( 0.000000000000000000, 1.000000000000000000, -0.000000000000000000 ) ) ;
#693 = AXIS2_PLACEMENT_3D ( 'NONE', #331, #137, #205 ) ;
#694 = ORIENTED_EDGE ( 'NONE', *, *, #220, .F. ) ;
#695 = ORIENTED_EDGE ( 'NONE', *, *, #389, .F. ) ;
#696 = CARTESIAN_POINT ( 'NONE',  ( 20.00000000000001066, 0.000000000000000000, 35.00000000000000000 ) ) ;
#697 = ORIENTED_EDGE ( 'NONE', *, *, #421, .T. ) ;
#698 = EDGE_CURVE ( 'NONE', #570, #483, #350, .T. ) ;
#699 = DIRECTION ( 'NONE',  ( 0.000000000000000000, 0.000000000000000000, 1.000000000000000000 ) ) ;
#700 = ORIENTED_EDGE ( 'NONE', *, *, #774, .F. ) ;
#701 = EDGE_CURVE ( 'NONE', #27, #724, #665, .T. ) ;
#702 = AXIS2_PLACEMENT_3D ( 'NONE', #487, #116, #124 ) ;
#703 = CIRCLE ( 'NONE', #771, 1.599999999999990319 ) ;
#704 = CIRCLE ( 'NONE', #702, 1.600000000000000755 ) ;
#705 = VERTEX_POINT ( 'NONE', #363 ) ;
#706 = VERTEX_POINT ( 'NONE', #112 ) ;
#707 = SHAPE_DEFINITION_REPRESENTATION ( #760, #121 ) ;
#708 = AXIS2_PLACEMENT_3D ( 'NONE', #546, #240, #683 ) ;
#709 = FACE_BOUND ( 'NONE', #595, .T. ) ;
#710 = LINE ( 'NONE', #192, #594 ) ;
#711 = ORIENTED_EDGE ( 'NONE', *, *, #751, .T. ) ;
#712 = CARTESIAN_POINT ( 'NONE',  ( 167.0000000000000284, 5.000000000000000000, -35.00000000000000000 ) ) ;
#713 = DIRECTION ( 'NONE',  ( 0.000000000000000000, 0.000000000000000000, 1.000000000000000000 ) ) ;
#714 = EDGE_CURVE ( 'NONE', #210, #624, #71, .T. ) ;
#715 = VECTOR ( 'NONE', #518, 1000.000000000000000 ) ;
#716 = PLANE ( 'NONE',  #353 ) ;
#717 = FACE_OUTER_BOUND ( 'NONE', #305, .T. ) ;
#718 = ORIENTED_EDGE ( 'NONE', *, *, #479, .T. ) ;
#719 = CARTESIAN_POINT ( 'NONE',  ( 172.0000000000000284, 5.000000000000000000, -30.59999999999998721 ) ) ;
#720 = CARTESIAN_POINT ( 'NONE',  ( 1.965601422281432726E-14, 5.000000000000000000, -19.99999999999998934 ) ) ;
#721 = AXIS2_PLACEMENT_3D ( 'NONE', #536, #769, #299 ) ;
#722 = ADVANCED_FACE ( 'NONE', ( #639 ), #584, .F. ) ;
#723 = DIRECTION ( 'NONE',  ( 0.000000000000000000, 1.000000000000000000, 0.000000000000000000 ) ) ;
#724 = VERTEX_POINT ( 'NONE', #541 ) ;
#725 = EDGE_CURVE ( 'NONE', #425, #607, #256, .T. ) ;
#726 = VECTOR ( 'NONE', #753, 1000.000000000000000 ) ;
#727 = ADVANCED_FACE ( 'NONE', ( #568 ), #49, .F. ) ;
#728 = CARTESIAN_POINT ( 'NONE',  ( 1.965601422281432726E-14, 0.000000000000000000, -21.59999999999999076 ) ) ;
#729 = EDGE_LOOP ( 'NONE', ( #602, #679, #165, #648 ) ) ;
#730 =( NAMED_UNIT ( * ) SI_UNIT ( $, .STERADIAN. ) SOLID_ANGLE_UNIT ( ) );
#731 = CARTESIAN_POINT ( 'NONE',  ( 172.0000000000000284, 5.000000000000000000, -45.59999999999998721 ) ) ;
#732 = ADVANCED_FACE ( 'NONE', ( #318 ), #303, .F. ) ;
#733 = EDGE_CURVE ( 'NONE', #556, #40, #676, .T. ) ;
#734 = CARTESIAN_POINT ( 'NONE',  ( 172.0000000000000284, 5.000000000000000000, -28.99999999999999645 ) ) ;
#735 = DIRECTION ( 'NONE',  ( 0.000000000000000000, 0.000000000000000000, 1.000000000000000000 ) ) ;
#736 = ORIENTED_EDGE ( 'NONE', *, *, #488, .T. ) ;
#737 = ADVANCED_FACE ( 'NONE', ( #540 ), #740, .F. ) ;
#738 = VERTEX_POINT ( 'NONE', #596 ) ;
#739 = CARTESIAN_POINT ( 'NONE',  ( 232.0000000000000000, 5.000000000000000000, -15.00000000000000000 ) ) ;
#740 = CYLINDRICAL_SURFACE ( 'NONE', #593, 1.600000000000000755 ) ;
#741 = VECTOR ( 'NONE', #490, 1000.000000000000000 ) ;
#742 = VECTOR ( 'NONE', #255, 1000.000000000000000 ) ;
#743 = ORIENTED_EDGE ( 'NONE', *, *, #698, .F. ) ;
#744 = CARTESIAN_POINT ( 'NONE',  ( 228.0000000000000284, 0.000000000000000000, -28.99999999999999645 ) ) ;
#745 = CARTESIAN_POINT ( 'NONE',  ( 172.0000000000000284, 5.000000000000000000, -42.40000000000000568 ) ) ;
#746 = AXIS2_PLACEMENT_3D ( 'NONE', #684, #747, #136 ) ;
#747 = DIRECTION ( 'NONE',  ( 0.000000000000000000, 1.000000000000000000, 0.000000000000000000 ) ) ;
#748 = ORIENTED_EDGE ( 'NONE', *, *, #140, .T. ) ;
#749 = COLOUR_RGB ( '',1.000000000000000000, 1.000000000000000000, 1.000000000000000000 ) ;
#750 = LINE ( 'NONE', #554, #132 ) ;
#751 = EDGE_CURVE ( 'NONE', #387, #267, #515, .T. ) ;
#752 = ORIENTED_EDGE ( 'NONE', *, *, #335, .T. ) ;
#753 = DIRECTION ( 'NONE',  ( -0.000000000000000000, -1.000000000000000000, -0.000000000000000000 ) ) ;
#754 = AXIS2_PLACEMENT_3D ( 'NONE', #492, #428, #671 ) ;
#755 = EDGE_LOOP ( 'NONE', ( #623, #673, #711, #533 ) ) ;
#756 = DIRECTION ( 'NONE',  ( -0.000000000000000000, -1.000000000000000000, -0.000000000000000000 ) ) ;
#757 = LINE ( 'NONE', #168, #58 ) ;
#758 = FACE_OUTER_BOUND ( 'NONE', #545, .T. ) ;
#759 = EDGE_LOOP ( 'NONE', ( #481, #370 ) ) ;
#760 = PRODUCT_DEFINITION_SHAPE ( 'NONE', 'NONE',  #279 ) ;
#761 = EDGE_CURVE ( 'NONE', #644, #738, #280, .T. ) ;
#762 = VERTEX_POINT ( 'NONE', #64 ) ;
#763 = ORIENTED_EDGE ( 'NONE', *, *, #610, .F. ) ;
#764 = VECTOR ( 'NONE', #265, 1000.000000000000000 ) ;
#765 = CIRCLE ( 'NONE', #149, 1.599999999999990319 ) ;
#766 = DIRECTION ( 'NONE',  ( 0.000000000000000000, 0.000000000000000000, 1.000000000000000000 ) ) ;
#767 = CARTESIAN_POINT ( 'NONE',  ( 228.0000000000000284, 5.000000000000000000, -42.40000000000000568 ) ) ;
#768 = ORIENTED_EDGE ( 'NONE', *, *, #86, .T. ) ;
#769 = DIRECTION ( 'NONE',  ( -0.000000000000000000, -1.000000000000000000, -0.000000000000000000 ) ) ;
#770 = CARTESIAN_POINT ( 'NONE',  ( 1.965601422281432726E-14, 5.000000000000000000, -19.99999999999998934 ) ) ;
#771 = AXIS2_PLACEMENT_3D ( 'NONE', #669, #548, #477 ) ;
#772 = VECTOR ( 'NONE', #212, 1000.000000000000000 ) ;
#773 = ORIENTED_EDGE ( 'NONE', *, *, #654, .F. ) ;
#774 = EDGE_CURVE ( 'NONE', #359, #12, #209, .T. ) ;
#775 = CARTESIAN_POINT ( 'NONE',  ( 228.0000000000000284, 0.000000000000000000, -42.40000000000000568 ) ) ;
#776 = CARTESIAN_POINT ( 'NONE',  ( 172.0000000000000284, 0.000000000000000000, -44.00000000000000000 ) ) ;
#777 = AXIS2_PLACEMENT_3D ( 'NONE', #734, #66, #549 ) ;
#778 = DIRECTION ( 'NONE',  ( 0.000000000000000000, 1.000000000000000000, 0.000000000000000000 ) ) ;
ENDSEC;
END-ISO-10303-21;
